<svg width="316" height="120" viewBox="0 0 316 120" fill="none" xmlns="http://www.w3.org/2000/svg">
<path d="M133.006 60C133.006 76.5569 132.31 91.5389 131.187 102.375C130.625 107.796 129.958 112.163 129.222 115.166C128.853 116.671 128.473 117.807 128.094 118.555C127.904 118.93 127.727 119.182 127.573 119.333C127.42 119.483 127.326 119.5 127.287 119.5C127.247 119.5 127.154 119.483 127.001 119.333C126.846 119.182 126.669 118.93 126.479 118.555C126.1 117.807 125.72 116.671 125.351 115.166C124.615 112.163 123.948 107.796 123.386 102.375C122.263 91.5389 121.567 76.5569 121.567 60C121.567 43.4431 122.263 28.4611 123.386 17.6251C123.948 12.2041 124.615 7.8372 125.351 4.83411C125.72 3.32854 126.1 2.19329 126.479 1.44493C126.669 1.0698 126.846 0.818347 127.001 0.666931C127.154 0.517002 127.247 0.5 127.287 0.5C127.326 0.5 127.42 0.517002 127.573 0.666931C127.727 0.818347 127.904 1.0698 128.094 1.44493C128.473 2.19329 128.853 3.32854 129.222 4.83411C129.958 7.8372 130.625 12.2041 131.187 17.6251C132.31 28.4611 133.006 43.4431 133.006 60Z" fill="white" stroke="#C0C0B7"/>
<path fill-rule="evenodd" clip-rule="evenodd" d="M62.9749 99.6943C69.4561 89.7604 73.6281 75.7405 73.6281 60C73.6281 44.2595 69.4561 30.2396 62.9749 20.3057C61.3312 17.7864 59.5662 15.5637 57.708 13.6483C58.5251 12.0265 59.3858 10.528 60.2853 9.16448C71.3043 19.7801 78.6281 38.5792 78.6281 60C78.6281 81.4208 71.3043 100.22 60.2853 110.836C59.3858 109.472 58.5251 107.973 57.708 106.352C59.5662 104.436 61.3312 102.214 62.9749 99.6943ZM89.419 106.123C85.1059 114.788 79.5584 120 73.5062 120C68.6482 120 64.1155 116.642 60.2853 110.836C54.2583 116.642 47.1259 120 39.4818 120C17.8619 120 0.335449 93.1371 0.335449 60C0.335449 26.8629 17.8619 0 39.4818 0C47.1259 0 54.2583 3.35817 60.2853 9.16448C64.1155 3.35817 68.6482 0 73.5062 0C79.5584 0 85.1059 5.21231 89.419 13.8772C85.9547 24.8832 83.7498 41.4596 83.7498 60C83.7498 78.5404 85.9547 95.1168 89.419 106.123ZM92.5592 98.5827C91.6072 101.315 90.556 103.839 89.419 106.123C92.1464 114.788 95.6544 120 99.4815 120C108.17 120 115.213 93.1371 115.213 60C115.213 26.8629 108.17 0 99.4815 0C95.6544 0 92.1464 5.21231 89.419 13.8772C90.556 16.1614 91.6072 18.6855 92.5592 21.4173C90.2161 31.5311 88.7498 45.0407 88.7498 60C88.7498 74.9593 90.2161 88.4689 92.5592 98.5827ZM92.5592 98.5827C96.1945 88.1517 98.3842 74.6926 98.3842 60C98.3842 45.3074 96.1945 31.8483 92.5592 21.4173C92.7643 20.5323 92.976 19.6734 93.1941 18.8417C94.5589 13.6364 96.0993 9.7828 97.6077 7.34949C98.5335 5.85611 99.1823 5.29562 99.4815 5.09309C99.7808 5.29562 100.43 5.85611 101.355 7.34949C102.864 9.7828 104.404 13.6364 105.769 18.8417C108.479 29.1781 110.213 43.7318 110.213 60C110.213 76.2682 108.479 90.8219 105.769 101.158C104.404 106.364 102.864 110.217 101.355 112.651C100.43 114.144 99.7808 114.704 99.4815 114.907C99.1823 114.704 98.5335 114.144 97.6077 112.651C96.0993 110.217 94.5589 106.364 93.1941 101.158C92.976 100.327 92.7643 99.4677 92.5592 98.5827ZM48.6281 60C48.6281 78.6694 52.1636 95.3473 57.708 106.352C52.2055 112.023 45.8862 115 39.4818 115C30.9146 115 22.4996 109.674 15.9887 99.6943C9.50745 89.7604 5.33545 75.7405 5.33545 60C5.33545 44.2595 9.50745 30.2396 15.9887 20.3057C22.4996 10.3264 30.9146 5 39.4818 5C45.8862 5 52.2055 7.97655 57.708 13.6483C52.1636 24.6527 48.6281 41.3306 48.6281 60Z" fill="white"/>
<path d="M197.711 17.7273C197.711 20.8793 197.164 23.6335 196.07 25.9901C194.977 28.3366 193.455 30.1612 191.506 31.4638C189.567 32.7663 187.33 33.4176 184.795 33.4176C182.249 33.4176 180.002 32.7663 178.053 31.4638C176.114 30.1513 174.598 28.3217 173.504 25.9751C172.411 23.6186 171.864 20.8693 171.864 17.7273C171.864 14.5753 172.411 11.826 173.504 9.4794C174.608 7.13281 176.129 5.30824 178.068 4.00568C180.007 2.69318 182.249 2.03693 184.795 2.03693C187.33 2.03693 189.567 2.68821 191.506 3.99077C193.455 5.29332 194.977 7.12287 196.07 9.4794C197.164 11.826 197.711 14.5753 197.711 17.7273ZM195.891 17.7273C195.891 14.8935 195.414 12.4375 194.46 10.3594C193.515 8.28125 192.207 6.67543 190.537 5.5419C188.866 4.39844 186.952 3.8267 184.795 3.8267C182.637 3.8267 180.723 4.39346 179.053 5.52699C177.382 6.65057 176.07 8.25639 175.115 10.3445C174.17 12.4226 173.698 14.8835 173.698 17.7273C173.698 20.5412 174.165 22.9922 175.1 25.0803C176.045 27.1584 177.352 28.7692 179.023 29.9126C180.693 31.0561 182.617 31.6278 184.795 31.6278C186.952 31.6278 188.866 31.0611 190.537 29.9276C192.207 28.7841 193.515 27.1733 194.46 25.0952C195.414 23.017 195.891 20.5611 195.891 17.7273ZM202.98 33L203.696 28.794L221.922 8.45028H207.052L208.066 2.45454H232.228L231.527 6.66051L213.272 27.0043H228.156L227.142 33H202.98Z" fill="white"/>
<path d="M171.7 77.9V55.4H173.98V57.86H174.16C174.55 57.29 176.02 55.01 179.41 55.01C183.85 55.01 187.03 58.4 187.03 63.17C187.03 68 184 71.39 179.59 71.39C176.32 71.39 174.76 69.44 174.25 68.48H174.07V77.9H171.7ZM179.32 69.23C182.38 69.23 184.6 66.74 184.6 63.17C184.6 59.51 182.26 57.17 179.26 57.17C176.02 57.17 173.98 59.9 173.98 63.17C173.98 67.01 176.38 69.23 179.32 69.23ZM189.741 71V55.4H192.081V58.01H192.261C192.711 56.69 194.241 55.01 196.521 55.01H197.541V57.38H196.131C193.281 57.38 192.111 59.69 192.111 62.66V71H189.741ZM206.275 71.39C201.595 71.39 198.145 67.94 198.145 63.2C198.145 58.49 201.655 55.01 206.305 55.01C211.015 55.01 214.435 58.52 214.435 63.2C214.435 67.88 210.955 71.39 206.275 71.39ZM206.275 69.23C209.635 69.23 212.005 66.68 212.005 63.2C212.005 59.75 209.635 57.17 206.275 57.17C202.915 57.17 200.575 59.78 200.575 63.2C200.575 66.71 202.945 69.23 206.275 69.23ZM223.542 71.39C219.102 71.39 215.922 68 215.922 63.23C215.922 58.43 218.952 55.01 223.362 55.01C226.632 55.01 228.222 57.11 228.702 57.92H228.882V48.5H231.252V71H228.972V68.54H228.792C228.402 69.11 226.932 71.39 223.542 71.39ZM223.692 69.26C226.932 69.26 228.972 66.5 228.972 63.26C228.972 59.39 226.572 57.17 223.632 57.17C220.572 57.17 218.352 59.69 218.352 63.26C218.352 66.89 220.662 69.26 223.692 69.26ZM240.361 71.39C236.731 71.39 234.541 68.66 234.541 65.21V55.4H236.911V65.12C236.911 67.61 238.741 69.23 240.931 69.23C243.391 69.23 245.311 67.34 245.311 64.76V55.4H247.681V71H245.311V68.72H245.131C244.471 70.13 242.791 71.39 240.361 71.39ZM265.34 65.87C264.59 68.96 262.1 70.94 259.16 71.33L258.71 76.46H256.49L257.15 71.33C252.95 70.91 250.07 67.52 250.07 63.2C250.07 58.58 253.46 55.01 258.05 55.01C261.44 55.01 264.44 57.05 265.28 60.53L262.94 61.07C262.52 58.73 260.54 57.17 258.11 57.17C254.78 57.17 252.53 59.81 252.53 63.2C252.53 66.71 254.9 69.23 258.17 69.23C260.6 69.23 262.58 67.67 263 65.33L265.34 65.87ZM276.902 52.58C275.342 52.58 274.292 50.93 273.122 50.93C272.462 50.93 271.982 51.35 271.982 52.55H270.182C270.182 50.27 271.442 49.01 273.092 49.01C274.622 49.01 275.762 50.63 276.842 50.63C277.502 50.63 277.982 50.18 277.982 49.01H279.752C279.752 51.26 278.552 52.58 276.902 52.58ZM274.982 71.39C270.302 71.39 266.852 67.94 266.852 63.2C266.852 58.49 270.362 55.01 275.012 55.01C279.722 55.01 283.142 58.52 283.142 63.2C283.142 67.88 279.662 71.39 274.982 71.39ZM274.982 69.23C278.342 69.23 280.712 66.68 280.712 63.2C280.712 59.75 278.342 57.17 274.982 57.17C271.622 57.17 269.282 59.78 269.282 63.2C269.282 66.71 271.652 69.23 274.982 69.23ZM292.339 71.39C287.599 71.39 284.629 68.06 284.629 63.26C284.629 58.28 288.049 55.01 292.189 55.01C296.899 55.01 299.599 58.31 299.599 62.99V63.86H287.059C287.089 67.34 289.129 69.29 292.369 69.29C294.559 69.29 296.569 68.03 297.079 65.87L299.389 66.41C298.519 69.32 295.939 71.39 292.339 71.39ZM287.119 61.94H297.169C297.019 58.7 294.769 57.14 292.189 57.14C289.639 57.14 287.299 59 287.119 61.94ZM307.448 71.39C303.938 71.39 301.748 69.47 301.388 66.68L303.548 66.14C303.728 68.24 305.198 69.32 307.568 69.32C309.908 69.32 311.198 68.18 311.198 66.59C311.198 62.21 301.868 65.54 301.868 59.36C301.868 56.72 304.238 55.01 307.508 55.01C310.208 55.01 312.818 56.57 313.178 59.39L311.108 59.99C310.898 58.16 309.398 57.05 307.358 57.05C305.408 57.05 304.148 58.01 304.148 59.36C304.148 63.32 313.508 60.02 313.508 66.47C313.508 69.41 311.078 71.39 307.448 71.39Z" fill="white"/>
<path d="M178.21 113.39C173.47 113.39 170.5 110.06 170.5 105.26C170.5 100.28 173.92 97.01 178.06 97.01C182.77 97.01 185.47 100.31 185.47 104.99V105.86H172.93C172.96 109.34 175 111.29 178.24 111.29C180.43 111.29 182.44 110.03 182.95 107.87L185.26 108.41C184.39 111.32 181.81 113.39 178.21 113.39ZM172.99 103.94H183.04C182.89 100.7 180.64 99.14 178.06 99.14C175.51 99.14 173.17 101 172.99 103.94ZM201.577 113.39C196.837 113.39 193.867 110.06 193.867 105.26C193.867 100.28 197.287 97.01 201.427 97.01C206.137 97.01 208.837 100.31 208.837 104.99V105.86H196.297C196.327 109.34 198.367 111.29 201.607 111.29C203.797 111.29 205.807 110.03 206.317 107.87L208.627 108.41C207.757 111.32 205.177 113.39 201.577 113.39ZM196.357 103.94H206.407C206.257 100.7 204.007 99.14 201.427 99.14C198.877 99.14 196.537 101 196.357 103.94ZM215.253 113L209.433 97.4H211.983L216.693 110.78H216.873L221.553 97.4H224.163L218.373 113H215.253ZM232.474 113.39C227.734 113.39 224.764 110.06 224.764 105.26C224.764 100.28 228.184 97.01 232.324 97.01C237.034 97.01 239.734 100.31 239.734 104.99V105.86H227.194C227.224 109.34 229.264 111.29 232.504 111.29C234.694 111.29 236.704 110.03 237.214 107.87L239.524 108.41C238.654 111.32 236.074 113.39 232.474 113.39ZM227.254 103.94H237.304C237.154 100.7 234.904 99.14 232.324 99.14C229.774 99.14 227.434 101 227.254 103.94ZM242.423 113V97.4H244.793V99.68H244.973C245.633 98.27 247.313 97.01 249.743 97.01C253.373 97.01 255.563 99.74 255.563 103.19V113H253.193V103.34C253.193 100.85 251.363 99.23 249.173 99.23C246.713 99.23 244.793 101.12 244.793 103.7V113H242.423ZM265.355 113C262.505 113 260.615 111.71 260.615 108.56V99.41H257.675V97.4H260.765V92.87H262.985V97.4H267.785V99.41H262.985V108.53C262.985 110.21 263.675 110.93 265.325 110.93H267.575V113H265.355ZM277.554 113.39C272.874 113.39 269.424 109.94 269.424 105.2C269.424 100.49 272.934 97.01 277.584 97.01C282.294 97.01 285.714 100.52 285.714 105.2C285.714 109.88 282.234 113.39 277.554 113.39ZM277.554 111.23C280.914 111.23 283.284 108.68 283.284 105.2C283.284 101.75 280.914 99.17 277.554 99.17C274.194 99.17 271.854 101.78 271.854 105.2C271.854 108.71 274.224 111.23 277.554 111.23ZM293.561 113.39C290.051 113.39 287.861 111.47 287.501 108.68L289.661 108.14C289.841 110.24 291.311 111.32 293.681 111.32C296.021 111.32 297.311 110.18 297.311 108.59C297.311 104.21 287.981 107.54 287.981 101.36C287.981 98.72 290.351 97.01 293.621 97.01C296.321 97.01 298.931 98.57 299.291 101.39L297.221 101.99C297.011 100.16 295.511 99.05 293.471 99.05C291.521 99.05 290.261 100.01 290.261 101.36C290.261 105.32 299.621 102.02 299.621 108.47C299.621 111.41 297.191 113.39 293.561 113.39Z" fill="white"/>
</svg>
