<svg width="324" height="503" viewBox="0 0 324 503" fill="none" xmlns="http://www.w3.org/2000/svg">
<path d="M40.86 22.86C40.86 21.42 41.28 20.28 42.12 19.44C42.96 18.48 44.16 18 45.72 18C47.16 18 48.3 18.42 49.14 19.26C50.1 20.1 50.58 21.3 50.58 22.86C50.58 24.3 50.16 25.5 49.32 26.46C48.48 27.3 47.28 27.72 45.72 27.72C44.28 27.72 43.08 27.3 42.12 26.46C41.28 25.5 40.86 24.3 40.86 22.86ZM118.44 22.86C118.44 21.42 118.86 20.28 119.7 19.44C120.54 18.48 121.74 18 123.3 18C124.74 18 125.88 18.42 126.72 19.26C127.68 20.1 128.16 21.3 128.16 22.86C128.16 24.3 127.74 25.5 126.9 26.46C126.06 27.3 124.86 27.72 123.3 27.72C121.86 27.72 120.66 27.3 119.7 26.46C118.86 25.5 118.44 24.3 118.44 22.86ZM108.72 22.86C108.72 21.42 109.14 20.28 109.98 19.44C110.82 18.48 112.02 18 113.58 18C115.02 18 116.16 18.42 117 19.26C117.96 20.1 118.44 21.3 118.44 22.86C118.44 24.3 118.02 25.5 117.18 26.46C116.34 27.3 115.14 27.72 113.58 27.72C112.14 27.72 110.94 27.3 109.98 26.46C109.14 25.5 108.72 24.3 108.72 22.86ZM99 22.86C99 21.42 99.42 20.28 100.26 19.44C101.1 18.48 102.3 18 103.86 18C105.3 18 106.44 18.42 107.28 19.26C108.24 20.1 108.72 21.3 108.72 22.86C108.72 24.3 108.3 25.5 107.46 26.46C106.62 27.3 105.42 27.72 103.86 27.72C102.42 27.72 101.22 27.3 100.26 26.46C99.42 25.5 99 24.3 99 22.86ZM89.28 22.86C89.28 21.42 89.7 20.28 90.54 19.44C91.38 18.48 92.58 18 94.14 18C95.58 18 96.72 18.42 97.56 19.26C98.52 20.1 99 21.3 99 22.86C99 24.3 98.58 25.5 97.74 26.46C96.9 27.3 95.7 27.72 94.14 27.72C92.7 27.72 91.5 27.3 90.54 26.46C89.7 25.5 89.28 24.3 89.28 22.86ZM79.56 22.86C79.56 21.42 79.98 20.28 80.82 19.44C81.66 18.48 82.86 18 84.42 18C85.86 18 87 18.42 87.84 19.26C88.8 20.1 89.28 21.3 89.28 22.86C89.28 24.3 88.86 25.5 88.02 26.46C87.18 27.3 85.98 27.72 84.42 27.72C82.98 27.72 81.78 27.3 80.82 26.46C79.98 25.5 79.56 24.3 79.56 22.86ZM69.84 22.86C69.84 21.42 70.26 20.28 71.1 19.44C71.94 18.48 73.14 18 74.7 18C76.14 18 77.28 18.42 78.12 19.26C79.08 20.1 79.56 21.3 79.56 22.86C79.56 24.3 79.14 25.5 78.3 26.46C77.46 27.3 76.26 27.72 74.7 27.72C73.26 27.72 72.06 27.3 71.1 26.46C70.26 25.5 69.84 24.3 69.84 22.86ZM60.12 22.86C60.12 21.42 60.54 20.28 61.38 19.44C62.22 18.48 63.42 18 64.98 18C66.42 18 67.56 18.42 68.4 19.26C69.36 20.1 69.84 21.3 69.84 22.86C69.84 24.3 69.42 25.5 68.58 26.46C67.74 27.3 66.54 27.72 64.98 27.72C63.54 27.72 62.34 27.3 61.38 26.46C60.54 25.5 60.12 24.3 60.12 22.86ZM50.58 22.68C50.58 21.24 51 20.1 51.84 19.26C52.8 18.42 54 18 55.44 18C58.56 18 60.12 19.68 60.12 23.04C60.12 24.48 59.64 25.62 58.68 26.46C57.84 27.3 56.7 27.72 55.26 27.72C52.14 27.72 50.58 26.16 50.58 23.04V22.68ZM50.58 32.4C50.58 30.96 51 29.82 51.84 28.98C52.8 28.14 54 27.72 55.44 27.72C58.56 27.72 60.12 29.4 60.12 32.76C60.12 34.2 59.64 35.34 58.68 36.18C57.84 37.02 56.7 37.44 55.26 37.44C52.14 37.44 50.58 35.88 50.58 32.76V32.4ZM99 32.58C99 31.14 99.42 30 100.26 29.16C101.1 28.2 102.3 27.72 103.86 27.72C105.3 27.72 106.44 28.14 107.28 28.98C108.24 29.82 108.72 31.02 108.72 32.58C108.72 34.02 108.3 35.22 107.46 36.18C106.62 37.02 105.42 37.44 103.86 37.44C102.42 37.44 101.22 37.02 100.26 36.18C99.42 35.22 99 34.02 99 32.58ZM118.44 32.58C118.44 31.14 118.86 30 119.7 29.16C120.54 28.2 121.74 27.72 123.3 27.72C124.74 27.72 125.88 28.14 126.72 28.98C127.68 29.82 128.16 31.02 128.16 32.58C128.16 34.02 127.74 35.22 126.9 36.18C126.06 37.02 124.86 37.44 123.3 37.44C121.86 37.44 120.66 37.02 119.7 36.18C118.86 35.22 118.44 34.02 118.44 32.58ZM50.58 32.58C50.58 34.02 50.16 35.22 49.32 36.18C48.48 37.02 47.28 37.44 45.72 37.44C44.28 37.44 43.08 37.02 42.12 36.18C41.28 35.34 40.86 34.14 40.86 32.58C40.86 31.14 41.28 30 42.12 29.16C42.96 28.2 44.16 27.72 45.72 27.72C47.16 27.72 48.3 28.2 49.14 29.16C50.1 30 50.58 31.14 50.58 32.58ZM60.12 32.58C60.12 31.14 60.54 30 61.38 29.16C62.22 28.2 63.42 27.72 64.98 27.72C66.42 27.72 67.56 28.14 68.4 28.98C69.36 29.82 69.84 31.02 69.84 32.58C69.84 34.02 69.42 35.22 68.58 36.18C67.74 37.02 66.54 37.44 64.98 37.44C63.54 37.44 62.34 37.02 61.38 36.18C60.54 35.22 60.12 34.02 60.12 32.58ZM69.84 32.58C69.84 31.14 70.26 30 71.1 29.16C71.94 28.2 73.14 27.72 74.7 27.72C76.14 27.72 77.28 28.14 78.12 28.98C79.08 29.82 79.56 31.02 79.56 32.58C79.56 34.02 79.14 35.22 78.3 36.18C77.46 37.02 76.26 37.44 74.7 37.44C73.26 37.44 72.06 37.02 71.1 36.18C70.26 35.22 69.84 34.02 69.84 32.58ZM79.56 32.58C79.56 31.14 79.98 30 80.82 29.16C81.66 28.2 82.86 27.72 84.42 27.72C85.86 27.72 87 28.14 87.84 28.98C88.8 29.82 89.28 31.02 89.28 32.58C89.28 34.02 88.86 35.22 88.02 36.18C87.18 37.02 85.98 37.44 84.42 37.44C82.98 37.44 81.78 37.02 80.82 36.18C79.98 35.22 79.56 34.02 79.56 32.58ZM89.28 32.58C89.28 31.14 89.7 30 90.54 29.16C91.38 28.2 92.58 27.72 94.14 27.72C95.58 27.72 96.72 28.14 97.56 28.98C98.52 29.82 99 31.02 99 32.58C99 34.02 98.58 35.22 97.74 36.18C96.9 37.02 95.7 37.44 94.14 37.44C92.7 37.44 91.5 37.02 90.54 36.18C89.7 35.22 89.28 34.02 89.28 32.58ZM108.72 32.58C108.72 31.14 109.14 30 109.98 29.16C110.82 28.2 112.02 27.72 113.58 27.72C115.02 27.72 116.16 28.14 117 28.98C117.96 29.82 118.44 31.02 118.44 32.58C118.44 34.02 118.02 35.22 117.18 36.18C116.34 37.02 115.14 37.44 113.58 37.44C112.14 37.44 110.94 37.02 109.98 36.18C109.14 35.22 108.72 34.02 108.72 32.58ZM50.58 42.3C50.58 43.74 50.16 44.94 49.32 45.9C48.48 46.74 47.28 47.16 45.72 47.16C44.28 47.16 43.08 46.74 42.12 45.9C41.28 45.06 40.86 43.86 40.86 42.3C40.86 40.86 41.28 39.72 42.12 38.88C42.96 37.92 44.16 37.44 45.72 37.44C47.16 37.44 48.3 37.92 49.14 38.88C50.1 39.72 50.58 40.86 50.58 42.3ZM60.3 42.3C60.3 43.74 59.88 44.94 59.04 45.9C58.2 46.74 57 47.16 55.44 47.16C54 47.16 52.8 46.74 51.84 45.9C51 45.06 50.58 43.86 50.58 42.3C50.58 40.86 51 39.72 51.84 38.88C52.68 37.92 53.88 37.44 55.44 37.44C56.88 37.44 58.02 37.92 58.86 38.88C59.82 39.72 60.3 40.86 60.3 42.3ZM50.58 52.02C50.58 55.14 48.9 56.7 45.54 56.7C44.1 56.7 42.96 56.28 42.12 55.44C41.28 54.48 40.86 53.28 40.86 51.84C40.86 48.72 42.54 47.16 45.9 47.16C49.02 47.16 50.58 48.72 50.58 51.84V52.02ZM60.3 52.02C60.3 55.14 58.62 56.7 55.26 56.7C53.82 56.7 52.68 56.28 51.84 55.44C51 54.48 50.58 53.28 50.58 51.84C50.58 48.72 52.26 47.16 55.62 47.16C58.74 47.16 60.3 48.72 60.3 51.84V52.02ZM50.58 61.56C50.58 63 50.16 64.2 49.32 65.16C48.48 66 47.28 66.42 45.72 66.42C44.28 66.42 43.08 66 42.12 65.16C41.28 64.32 40.86 63.12 40.86 61.56C40.86 60.12 41.28 58.98 42.12 58.14C42.96 57.18 44.16 56.7 45.72 56.7C47.16 56.7 48.3 57.18 49.14 58.14C50.1 58.98 50.58 60.12 50.58 61.56ZM60.3 61.56C60.3 63 59.88 64.2 59.04 65.16C58.2 66 57 66.42 55.44 66.42C54 66.42 52.8 66 51.84 65.16C51 64.32 50.58 63.12 50.58 61.56C50.58 60.12 51 58.98 51.84 58.14C52.68 57.18 53.88 56.7 55.44 56.7C56.88 56.7 58.02 57.18 58.86 58.14C59.82 58.98 60.3 60.12 60.3 61.56ZM50.58 71.28C50.58 69.84 51 68.7 51.84 67.86C52.68 66.9 53.88 66.42 55.44 66.42C56.88 66.42 58.02 66.9 58.86 67.86C59.82 68.7 60.3 69.84 60.3 71.28C60.3 72.72 59.88 73.92 59.04 74.88C58.2 75.72 57 76.14 55.44 76.14C54 76.14 52.8 75.72 51.84 74.88C51 74.04 50.58 72.84 50.58 71.28ZM45.72 76.14C44.28 76.14 43.08 75.72 42.12 74.88C41.28 74.04 40.86 72.84 40.86 71.28C40.86 69.84 41.28 68.7 42.12 67.86C42.96 66.9 44.16 66.42 45.72 66.42C47.16 66.42 48.3 66.9 49.14 67.86C50.1 68.7 50.58 69.84 50.58 71.28C50.58 72.72 50.16 73.92 49.32 74.88C48.48 75.72 47.28 76.14 45.72 76.14ZM108.72 81C108.72 79.56 109.14 78.42 109.98 77.58C110.82 76.62 112.02 76.14 113.58 76.14C115.02 76.14 116.16 76.62 117 77.58C117.96 78.42 118.44 79.56 118.44 81C118.44 82.44 118.02 83.64 117.18 84.6C116.34 85.44 115.14 85.86 113.58 85.86C112.14 85.86 110.94 85.44 109.98 84.6C109.14 83.76 108.72 82.56 108.72 81ZM60.12 81.18C60.12 82.62 59.64 83.76 58.68 84.6C57.84 85.44 56.7 85.86 55.26 85.86C52.14 85.86 50.58 84.18 50.58 80.82C50.58 79.38 51 78.24 51.84 77.4C52.8 76.56 54 76.14 55.44 76.14C58.56 76.14 60.12 77.7 60.12 80.82V81.18ZM69.84 81C69.84 82.44 69.42 83.64 68.58 84.6C67.74 85.44 66.54 85.86 64.98 85.86C63.54 85.86 62.34 85.44 61.38 84.6C60.54 83.76 60.12 82.56 60.12 81C60.12 79.56 60.54 78.42 61.38 77.58C62.22 76.62 63.42 76.14 64.98 76.14C66.42 76.14 67.56 76.62 68.4 77.58C69.36 78.42 69.84 79.56 69.84 81ZM50.58 81C50.58 82.44 50.16 83.64 49.32 84.6C48.48 85.44 47.28 85.86 45.72 85.86C44.28 85.86 43.08 85.44 42.12 84.6C41.28 83.76 40.86 82.56 40.86 81C40.86 79.56 41.28 78.42 42.12 77.58C42.96 76.62 44.16 76.14 45.72 76.14C47.16 76.14 48.3 76.62 49.14 77.58C50.1 78.42 50.58 79.56 50.58 81ZM79.56 81C79.56 82.44 79.14 83.64 78.3 84.6C77.46 85.44 76.26 85.86 74.7 85.86C73.26 85.86 72.06 85.44 71.1 84.6C70.26 83.76 69.84 82.56 69.84 81C69.84 79.56 70.26 78.42 71.1 77.58C71.94 76.62 73.14 76.14 74.7 76.14C76.14 76.14 77.28 76.62 78.12 77.58C79.08 78.42 79.56 79.56 79.56 81ZM89.28 81C89.28 82.44 88.86 83.64 88.02 84.6C87.18 85.44 85.98 85.86 84.42 85.86C82.98 85.86 81.78 85.44 80.82 84.6C79.98 83.76 79.56 82.56 79.56 81C79.56 79.56 79.98 78.42 80.82 77.58C81.66 76.62 82.86 76.14 84.42 76.14C85.86 76.14 87 76.62 87.84 77.58C88.8 78.42 89.28 79.56 89.28 81ZM99 81C99 82.44 98.58 83.64 97.74 84.6C96.9 85.44 95.7 85.86 94.14 85.86C92.7 85.86 91.5 85.44 90.54 84.6C89.7 83.76 89.28 82.56 89.28 81C89.28 79.56 89.7 78.42 90.54 77.58C91.38 76.62 92.58 76.14 94.14 76.14C95.58 76.14 96.72 76.62 97.56 77.58C98.52 78.42 99 79.56 99 81ZM103.86 85.86C102.42 85.86 101.22 85.44 100.26 84.6C99.42 83.76 99 82.56 99 81C99 79.56 99.42 78.42 100.26 77.58C101.1 76.62 102.3 76.14 103.86 76.14C105.3 76.14 106.44 76.62 107.28 77.58C108.24 78.42 108.72 79.56 108.72 81C108.72 82.44 108.3 83.64 107.46 84.6C106.62 85.44 105.42 85.86 103.86 85.86ZM69.84 90.72C69.84 92.16 69.42 93.36 68.58 94.32C67.74 95.16 66.54 95.58 64.98 95.58C63.54 95.58 62.34 95.16 61.38 94.32C60.54 93.48 60.12 92.28 60.12 90.72C60.12 89.28 60.54 88.14 61.38 87.3C62.22 86.34 63.42 85.86 64.98 85.86C66.42 85.86 67.56 86.34 68.4 87.3C69.36 88.14 69.84 89.28 69.84 90.72ZM79.56 90.72C79.56 92.16 79.14 93.36 78.3 94.32C77.46 95.16 76.26 95.58 74.7 95.58C73.26 95.58 72.06 95.16 71.1 94.32C70.26 93.48 69.84 92.28 69.84 90.72C69.84 89.28 70.26 88.14 71.1 87.3C71.94 86.34 73.14 85.86 74.7 85.86C76.14 85.86 77.28 86.34 78.12 87.3C79.08 88.14 79.56 89.28 79.56 90.72ZM89.28 90.72C89.28 92.16 88.86 93.36 88.02 94.32C87.18 95.16 85.98 95.58 84.42 95.58C82.98 95.58 81.78 95.16 80.82 94.32C79.98 93.48 79.56 92.28 79.56 90.72C79.56 89.28 79.98 88.14 80.82 87.3C81.66 86.34 82.86 85.86 84.42 85.86C85.86 85.86 87 86.34 87.84 87.3C88.8 88.14 89.28 89.28 89.28 90.72ZM99 90.72C99 92.16 98.58 93.36 97.74 94.32C96.9 95.16 95.7 95.58 94.14 95.58C92.7 95.58 91.5 95.16 90.54 94.32C89.7 93.48 89.28 92.28 89.28 90.72C89.28 89.28 89.7 88.14 90.54 87.3C91.38 86.34 92.58 85.86 94.14 85.86C95.58 85.86 96.72 86.34 97.56 87.3C98.52 88.14 99 89.28 99 90.72ZM108.72 90.72C108.72 92.16 108.3 93.36 107.46 94.32C106.62 95.16 105.42 95.58 103.86 95.58C102.42 95.58 101.22 95.16 100.26 94.32C99.42 93.48 99 92.28 99 90.72C99 89.28 99.42 88.14 100.26 87.3C101.1 86.34 102.3 85.86 103.86 85.86C105.3 85.86 106.44 86.34 107.28 87.3C108.24 88.14 108.72 89.28 108.72 90.72ZM60.12 90.9C60.12 92.34 59.64 93.48 58.68 94.32C57.84 95.16 56.7 95.58 55.26 95.58C52.14 95.58 50.58 93.9 50.58 90.54C50.58 89.1 51 87.96 51.84 87.12C52.8 86.28 54 85.86 55.44 85.86C58.56 85.86 60.12 87.42 60.12 90.54V90.9ZM118.44 90.72C118.44 92.16 118.02 93.36 117.18 94.32C116.34 95.16 115.14 95.58 113.58 95.58C112.14 95.58 110.94 95.16 109.98 94.32C109.14 93.48 108.72 92.28 108.72 90.72C108.72 89.28 109.14 88.14 109.98 87.3C110.82 86.34 112.02 85.86 113.58 85.86C115.02 85.86 116.16 86.34 117 87.3C117.96 88.14 118.44 89.28 118.44 90.72ZM50.58 90.72C50.58 92.16 50.16 93.36 49.32 94.32C48.48 95.16 47.28 95.58 45.72 95.58C44.28 95.58 43.08 95.16 42.12 94.32C41.28 93.48 40.86 92.28 40.86 90.72C40.86 89.28 41.28 88.14 42.12 87.3C42.96 86.34 44.16 85.86 45.72 85.86C47.16 85.86 48.3 86.34 49.14 87.3C50.1 88.14 50.58 89.28 50.58 90.72ZM50.58 100.44C50.58 99 51 97.86 51.84 97.02C52.68 96.06 53.88 95.58 55.44 95.58C56.88 95.58 58.02 96.06 58.86 97.02C59.82 97.86 60.3 99 60.3 100.44C60.3 101.88 59.88 103.08 59.04 104.04C58.2 104.88 57 105.3 55.44 105.3C54 105.3 52.8 104.88 51.84 104.04C51 103.2 50.58 102 50.58 100.44ZM45.72 105.3C44.28 105.3 43.08 104.88 42.12 104.04C41.28 103.2 40.86 102 40.86 100.44C40.86 99 41.28 97.86 42.12 97.02C42.96 96.06 44.16 95.58 45.72 95.58C47.16 95.58 48.3 96.06 49.14 97.02C50.1 97.86 50.58 99 50.58 100.44C50.58 101.88 50.16 103.08 49.32 104.04C48.48 104.88 47.28 105.3 45.72 105.3ZM50.58 110.16C50.58 113.28 48.9 114.84 45.54 114.84C44.1 114.84 42.96 114.42 42.12 113.58C41.28 112.62 40.86 111.42 40.86 109.98C40.86 106.86 42.54 105.3 45.9 105.3C49.02 105.3 50.58 106.86 50.58 109.98V110.16ZM60.3 110.16C60.3 113.28 58.62 114.84 55.26 114.84C53.82 114.84 52.68 114.42 51.84 113.58C51 112.62 50.58 111.42 50.58 109.98C50.58 106.86 52.26 105.3 55.62 105.3C58.74 105.3 60.3 106.86 60.3 109.98V110.16ZM50.58 119.7C50.58 118.26 51 117.12 51.84 116.28C52.68 115.32 53.88 114.84 55.44 114.84C56.88 114.84 58.02 115.32 58.86 116.28C59.82 117.12 60.3 118.26 60.3 119.7C60.3 121.14 59.88 122.34 59.04 123.3C58.2 124.14 57 124.56 55.44 124.56C54 124.56 52.8 124.14 51.84 123.3C51 122.46 50.58 121.26 50.58 119.7ZM45.72 124.56C44.28 124.56 43.08 124.14 42.12 123.3C41.28 122.46 40.86 121.26 40.86 119.7C40.86 118.26 41.28 117.12 42.12 116.28C42.96 115.32 44.16 114.84 45.72 114.84C47.16 114.84 48.3 115.32 49.14 116.28C50.1 117.12 50.58 118.26 50.58 119.7C50.58 121.14 50.16 122.34 49.32 123.3C48.48 124.14 47.28 124.56 45.72 124.56ZM50.58 129.42C50.58 127.98 51 126.84 51.84 126C52.68 125.04 53.88 124.56 55.44 124.56C56.88 124.56 58.02 125.04 58.86 126C59.82 126.84 60.3 127.98 60.3 129.42C60.3 130.86 59.88 132.06 59.04 133.02C58.2 133.86 57 134.28 55.44 134.28C54 134.28 52.8 133.86 51.84 133.02C51 132.18 50.58 130.98 50.58 129.42ZM45.72 134.28C44.28 134.28 43.08 133.86 42.12 133.02C41.28 132.18 40.86 130.98 40.86 129.42C40.86 127.98 41.28 126.84 42.12 126C42.96 125.04 44.16 124.56 45.72 124.56C47.16 124.56 48.3 125.04 49.14 126C50.1 126.84 50.58 127.98 50.58 129.42C50.58 130.86 50.16 132.06 49.32 133.02C48.48 133.86 47.28 134.28 45.72 134.28ZM50.58 139.14C50.58 137.7 51 136.56 51.84 135.72C52.68 134.76 53.88 134.28 55.44 134.28C56.88 134.28 58.02 134.7 58.86 135.54C59.82 136.38 60.3 137.58 60.3 139.14C60.3 140.58 59.88 141.78 59.04 142.74C58.2 143.58 57 144 55.44 144C54 144 52.8 143.58 51.84 142.74C51 141.78 50.58 140.58 50.58 139.14ZM40.86 139.14C40.86 137.7 41.28 136.56 42.12 135.72C42.96 134.76 44.16 134.28 45.72 134.28C47.16 134.28 48.3 134.7 49.14 135.54C50.1 136.38 50.58 137.58 50.58 139.14C50.58 140.58 50.16 141.78 49.32 142.74C48.48 143.58 47.28 144 45.72 144C44.28 144 43.08 143.58 42.12 142.74C41.28 141.78 40.86 140.58 40.86 139.14Z" fill="#EAE6CF"/>
<path d="M147.86 50.86C147.86 49.42 148.28 48.28 149.12 47.44C149.96 46.48 151.16 46 152.72 46C154.16 46 155.3 46.42 156.14 47.26C157.1 48.1 157.58 49.3 157.58 50.86C157.58 52.3 157.16 53.5 156.32 54.46C155.48 55.3 154.28 55.72 152.72 55.72C151.28 55.72 150.08 55.3 149.12 54.46C148.28 53.5 147.86 52.3 147.86 50.86ZM157.58 50.68C157.58 49.24 158 48.1 158.84 47.26C159.8 46.42 161 46 162.44 46C165.56 46 167.12 47.68 167.12 51.04C167.12 52.48 166.64 53.62 165.68 54.46C164.84 55.3 163.7 55.72 162.26 55.72C159.14 55.72 157.58 54.16 157.58 51.04V50.68ZM167.12 50.86C167.12 49.42 167.54 48.28 168.38 47.44C169.22 46.48 170.42 46 171.98 46C173.42 46 174.56 46.42 175.4 47.26C176.36 48.1 176.84 49.3 176.84 50.86C176.84 52.3 176.42 53.5 175.58 54.46C174.74 55.3 173.54 55.72 171.98 55.72C170.54 55.72 169.34 55.3 168.38 54.46C167.54 53.5 167.12 52.3 167.12 50.86ZM176.84 50.86C176.84 49.42 177.26 48.28 178.1 47.44C178.94 46.48 180.14 46 181.7 46C183.14 46 184.28 46.42 185.12 47.26C186.08 48.1 186.56 49.3 186.56 50.86C186.56 52.3 186.14 53.5 185.3 54.46C184.46 55.3 183.26 55.72 181.7 55.72C180.26 55.72 179.06 55.3 178.1 54.46C177.26 53.5 176.84 52.3 176.84 50.86ZM186.56 50.86C186.56 49.42 186.98 48.28 187.82 47.44C188.66 46.48 189.86 46 191.42 46C192.86 46 194 46.42 194.84 47.26C195.8 48.1 196.28 49.3 196.28 50.86C196.28 52.3 195.86 53.5 195.02 54.46C194.18 55.3 192.98 55.72 191.42 55.72C189.98 55.72 188.78 55.3 187.82 54.46C186.98 53.5 186.56 52.3 186.56 50.86ZM196.28 50.86C196.28 49.42 196.7 48.28 197.54 47.44C198.38 46.48 199.58 46 201.14 46C202.58 46 203.72 46.42 204.56 47.26C205.52 48.1 206 49.3 206 50.86C206 52.3 205.58 53.5 204.74 54.46C203.9 55.3 202.7 55.72 201.14 55.72C199.7 55.72 198.5 55.3 197.54 54.46C196.7 53.5 196.28 52.3 196.28 50.86ZM206 50.86C206 49.42 206.42 48.28 207.26 47.44C208.1 46.48 209.3 46 210.86 46C212.3 46 213.44 46.42 214.28 47.26C215.24 48.1 215.72 49.3 215.72 50.86C215.72 52.3 215.3 53.5 214.46 54.46C213.62 55.3 212.42 55.72 210.86 55.72C209.42 55.72 208.22 55.3 207.26 54.46C206.42 53.5 206 52.3 206 50.86ZM215.72 50.68C215.72 49.24 216.14 48.1 216.98 47.26C217.94 46.42 219.14 46 220.58 46C223.7 46 225.26 47.68 225.26 51.04C225.26 52.48 224.78 53.62 223.82 54.46C222.98 55.3 221.84 55.72 220.4 55.72C217.28 55.72 215.72 54.16 215.72 51.04V50.68ZM157.58 60.58C157.58 62.02 157.16 63.22 156.32 64.18C155.48 65.02 154.28 65.44 152.72 65.44C151.28 65.44 150.08 65.02 149.12 64.18C148.28 63.34 147.86 62.14 147.86 60.58C147.86 59.14 148.28 58 149.12 57.16C149.96 56.2 151.16 55.72 152.72 55.72C154.16 55.72 155.3 56.2 156.14 57.16C157.1 58 157.58 59.14 157.58 60.58ZM176.84 60.58C176.84 62.02 176.42 63.22 175.58 64.18C174.74 65.02 173.54 65.44 171.98 65.44C169.22 65.44 167.66 64.18 167.3 61.66C166.7 64.18 165.08 65.44 162.44 65.44C161 65.44 159.8 65.02 158.84 64.18C158 63.34 157.58 62.14 157.58 60.58C157.58 59.14 158 58 158.84 57.16C159.68 56.2 160.88 55.72 162.44 55.72C165.2 55.72 166.76 56.98 167.12 59.5C167.72 56.98 169.34 55.72 171.98 55.72C173.42 55.72 174.56 56.14 175.4 56.98C176.36 57.82 176.84 59.02 176.84 60.58ZM225.26 60.58C225.26 62.02 224.84 63.22 224 64.18C223.16 65.02 221.96 65.44 220.4 65.44C217.76 65.44 216.14 64.18 215.54 61.66C215.18 64.18 213.62 65.44 210.86 65.44C209.42 65.44 208.22 65.02 207.26 64.18C206.42 63.22 206 62.02 206 60.58C206 59.14 206.42 58 207.26 57.16C208.1 56.2 209.3 55.72 210.86 55.72C213.5 55.72 215.12 56.98 215.72 59.5C216.08 56.98 217.64 55.72 220.4 55.72C221.84 55.72 222.98 56.2 223.82 57.16C224.78 58 225.26 59.14 225.26 60.58ZM186.56 60.58C186.56 62.02 186.14 63.22 185.3 64.18C184.46 65.02 183.26 65.44 181.7 65.44C180.26 65.44 179.06 65.02 178.1 64.18C177.26 63.22 176.84 62.02 176.84 60.58C176.84 59.14 177.26 58 178.1 57.16C178.94 56.2 180.14 55.72 181.7 55.72C183.14 55.72 184.28 56.14 185.12 56.98C186.08 57.82 186.56 59.02 186.56 60.58ZM196.28 60.58C196.28 62.02 195.86 63.22 195.02 64.18C194.18 65.02 192.98 65.44 191.42 65.44C189.98 65.44 188.78 65.02 187.82 64.18C186.98 63.22 186.56 62.02 186.56 60.58C186.56 59.14 186.98 58 187.82 57.16C188.66 56.2 189.86 55.72 191.42 55.72C192.86 55.72 194 56.14 194.84 56.98C195.8 57.82 196.28 59.02 196.28 60.58ZM206 60.58C206 62.02 205.58 63.22 204.74 64.18C203.9 65.02 202.7 65.44 201.14 65.44C199.7 65.44 198.5 65.02 197.54 64.18C196.7 63.22 196.28 62.02 196.28 60.58C196.28 59.14 196.7 58 197.54 57.16C198.38 56.2 199.58 55.72 201.14 55.72C202.58 55.72 203.72 56.14 204.56 56.98C205.52 57.82 206 59.02 206 60.58ZM234.98 60.58C234.98 62.02 234.56 63.22 233.72 64.18C232.88 65.02 231.68 65.44 230.12 65.44C228.68 65.44 227.48 65.02 226.52 64.18C225.68 63.34 225.26 62.14 225.26 60.58C225.26 59.14 225.68 58 226.52 57.16C227.36 56.2 228.56 55.72 230.12 55.72C231.56 55.72 232.7 56.2 233.54 57.16C234.5 58 234.98 59.14 234.98 60.58ZM157.58 70.3C157.58 71.74 157.16 72.94 156.32 73.9C155.48 74.74 154.28 75.16 152.72 75.16C151.28 75.16 150.08 74.74 149.12 73.9C148.28 73.06 147.86 71.86 147.86 70.3C147.86 68.86 148.28 67.72 149.12 66.88C149.96 65.92 151.16 65.44 152.72 65.44C154.16 65.44 155.3 65.92 156.14 66.88C157.1 67.72 157.58 68.86 157.58 70.3ZM234.98 70.3C234.98 71.74 234.56 72.94 233.72 73.9C232.88 74.74 231.68 75.16 230.12 75.16C228.68 75.16 227.48 74.74 226.52 73.9C225.68 72.94 225.26 71.74 225.26 70.3C225.26 68.86 225.68 67.72 226.52 66.88C227.36 65.92 228.56 65.44 230.12 65.44C231.56 65.44 232.7 65.86 233.54 66.7C234.5 67.54 234.98 68.74 234.98 70.3ZM167.3 70.3C167.3 71.74 166.88 72.94 166.04 73.9C165.2 74.74 164 75.16 162.44 75.16C161 75.16 159.8 74.74 158.84 73.9C158 73.06 157.58 71.86 157.58 70.3C157.58 68.86 158 67.72 158.84 66.88C159.68 65.92 160.88 65.44 162.44 65.44C163.88 65.44 165.02 65.92 165.86 66.88C166.82 67.72 167.3 68.86 167.3 70.3ZM225.26 70.3C225.26 71.74 224.84 72.94 224 73.9C223.16 74.74 221.96 75.16 220.4 75.16C218.96 75.16 217.76 74.74 216.8 73.9C215.96 73.06 215.54 71.86 215.54 70.3C215.54 68.86 215.96 67.72 216.8 66.88C217.64 65.92 218.84 65.44 220.4 65.44C221.84 65.44 222.98 65.92 223.82 66.88C224.78 67.72 225.26 68.86 225.26 70.3ZM239.84 75.16C238.4 75.16 237.2 74.74 236.24 73.9C235.4 72.94 234.98 71.74 234.98 70.3C234.98 68.86 235.4 67.72 236.24 66.88C237.08 65.92 238.28 65.44 239.84 65.44C241.28 65.44 242.42 65.86 243.26 66.7C244.22 67.54 244.7 68.74 244.7 70.3C244.7 71.74 244.28 72.94 243.44 73.9C242.6 74.74 241.4 75.16 239.84 75.16ZM157.58 80.02C157.58 83.14 155.9 84.7 152.54 84.7C151.1 84.7 149.96 84.28 149.12 83.44C148.28 82.48 147.86 81.28 147.86 79.84C147.86 76.72 149.54 75.16 152.9 75.16C156.02 75.16 157.58 76.72 157.58 79.84V80.02ZM225.26 79.84C225.26 76.72 226.94 75.16 230.3 75.16C231.74 75.16 232.88 75.64 233.72 76.6C234.56 77.44 234.98 78.58 234.98 80.02C234.98 83.14 233.3 84.7 229.94 84.7C226.82 84.7 225.26 83.14 225.26 80.02V79.84ZM167.3 80.02C167.3 83.14 165.62 84.7 162.26 84.7C160.82 84.7 159.68 84.28 158.84 83.44C158 82.48 157.58 81.28 157.58 79.84C157.58 76.72 159.26 75.16 162.62 75.16C165.74 75.16 167.3 76.72 167.3 79.84V80.02ZM234.98 79.84C234.98 76.72 236.66 75.16 240.02 75.16C241.46 75.16 242.6 75.64 243.44 76.6C244.28 77.44 244.7 78.58 244.7 80.02C244.7 83.14 243.02 84.7 239.66 84.7C236.54 84.7 234.98 83.14 234.98 80.02V79.84ZM234.98 89.56C234.98 91 234.56 92.2 233.72 93.16C232.88 94 231.68 94.42 230.12 94.42C228.68 94.42 227.48 94 226.52 93.16C225.68 92.2 225.26 91 225.26 89.56C225.26 88.12 225.68 86.98 226.52 86.14C227.36 85.18 228.56 84.7 230.12 84.7C231.56 84.7 232.7 85.12 233.54 85.96C234.5 86.8 234.98 88 234.98 89.56ZM239.84 94.42C238.4 94.42 237.2 94 236.24 93.16C235.4 92.2 234.98 91 234.98 89.56C234.98 88.12 235.4 86.98 236.24 86.14C237.08 85.18 238.28 84.7 239.84 84.7C241.28 84.7 242.42 85.12 243.26 85.96C244.22 86.8 244.7 88 244.7 89.56C244.7 91 244.28 92.2 243.44 93.16C242.6 94 241.4 94.42 239.84 94.42ZM157.58 89.56C157.58 88.12 158 86.98 158.84 86.14C159.68 85.18 160.88 84.7 162.44 84.7C163.88 84.7 165.02 85.18 165.86 86.14C166.82 86.98 167.3 88.12 167.3 89.56C167.3 91 166.88 92.2 166.04 93.16C165.2 94 164 94.42 162.44 94.42C161 94.42 159.8 94 158.84 93.16C158 92.32 157.58 91.12 157.58 89.56ZM152.72 94.42C151.28 94.42 150.08 94 149.12 93.16C148.28 92.32 147.86 91.12 147.86 89.56C147.86 88.12 148.28 86.98 149.12 86.14C149.96 85.18 151.16 84.7 152.72 84.7C154.16 84.7 155.3 85.18 156.14 86.14C157.1 86.98 157.58 88.12 157.58 89.56C157.58 91 157.16 92.2 156.32 93.16C155.48 94 154.28 94.42 152.72 94.42ZM234.98 99.28C234.98 97.84 235.4 96.7 236.24 95.86C237.08 94.9 238.28 94.42 239.84 94.42C241.28 94.42 242.42 94.84 243.26 95.68C244.22 96.52 244.7 97.72 244.7 99.28C244.7 100.72 244.28 101.92 243.44 102.88C242.6 103.72 241.4 104.14 239.84 104.14C238.4 104.14 237.2 103.72 236.24 102.88C235.4 101.92 234.98 100.72 234.98 99.28ZM157.58 99.28C157.58 97.84 158 96.7 158.84 95.86C159.68 94.9 160.88 94.42 162.44 94.42C163.88 94.42 165.02 94.9 165.86 95.86C166.82 96.7 167.3 97.84 167.3 99.28C167.3 100.72 166.88 101.92 166.04 102.88C165.2 103.72 164 104.14 162.44 104.14C161 104.14 159.8 103.72 158.84 102.88C158 102.04 157.58 100.84 157.58 99.28ZM225.26 99.28C225.26 100.72 224.84 101.92 224 102.88C223.16 103.72 221.96 104.14 220.4 104.14C218.96 104.14 217.76 103.72 216.8 102.88C215.96 102.04 215.54 100.84 215.54 99.28C215.54 97.84 215.96 96.7 216.8 95.86C217.64 94.9 218.84 94.42 220.4 94.42C221.84 94.42 222.98 94.9 223.82 95.86C224.78 96.7 225.26 97.84 225.26 99.28ZM225.26 99.28C225.26 97.84 225.68 96.7 226.52 95.86C227.36 94.9 228.56 94.42 230.12 94.42C231.56 94.42 232.7 94.84 233.54 95.68C234.5 96.52 234.98 97.72 234.98 99.28C234.98 100.72 234.56 101.92 233.72 102.88C232.88 103.72 231.68 104.14 230.12 104.14C228.68 104.14 227.48 103.72 226.52 102.88C225.68 101.92 225.26 100.72 225.26 99.28ZM152.72 104.14C151.28 104.14 150.08 103.72 149.12 102.88C148.28 102.04 147.86 100.84 147.86 99.28C147.86 97.84 148.28 96.7 149.12 95.86C149.96 94.9 151.16 94.42 152.72 94.42C154.16 94.42 155.3 94.9 156.14 95.86C157.1 96.7 157.58 97.84 157.58 99.28C157.58 100.72 157.16 101.92 156.32 102.88C155.48 103.72 154.28 104.14 152.72 104.14ZM234.98 109C234.98 110.44 234.56 111.64 233.72 112.6C232.88 113.44 231.68 113.86 230.12 113.86C228.68 113.86 227.48 113.44 226.52 112.6C225.68 111.76 225.26 110.56 225.26 109C225.26 107.56 225.68 106.42 226.52 105.58C227.36 104.62 228.56 104.14 230.12 104.14C231.56 104.14 232.7 104.62 233.54 105.58C234.5 106.42 234.98 107.56 234.98 109ZM186.56 109C186.56 107.56 186.98 106.42 187.82 105.58C188.66 104.62 189.86 104.14 191.42 104.14C192.86 104.14 194 104.62 194.84 105.58C195.8 106.42 196.28 107.56 196.28 109C196.28 110.44 195.86 111.64 195.02 112.6C194.18 113.44 192.98 113.86 191.42 113.86C189.98 113.86 188.78 113.44 187.82 112.6C186.98 111.76 186.56 110.56 186.56 109ZM176.84 109C176.84 107.56 177.26 106.42 178.1 105.58C178.94 104.62 180.14 104.14 181.7 104.14C183.14 104.14 184.28 104.62 185.12 105.58C186.08 106.42 186.56 107.56 186.56 109C186.56 110.44 186.14 111.64 185.3 112.6C184.46 113.44 183.26 113.86 181.7 113.86C180.26 113.86 179.06 113.44 178.1 112.6C177.26 111.76 176.84 110.56 176.84 109ZM157.58 109C157.58 107.56 158 106.42 158.84 105.58C159.68 104.62 160.88 104.14 162.44 104.14C165.2 104.14 166.76 105.4 167.12 107.92C167.72 105.4 169.34 104.14 171.98 104.14C173.42 104.14 174.56 104.62 175.4 105.58C176.36 106.42 176.84 107.56 176.84 109C176.84 110.44 176.42 111.64 175.58 112.6C174.74 113.44 173.54 113.86 171.98 113.86C169.34 113.86 167.72 112.6 167.12 110.08C166.76 112.6 165.2 113.86 162.44 113.86C161 113.86 159.8 113.44 158.84 112.6C158 111.76 157.58 110.56 157.58 109ZM196.28 109C196.28 107.56 196.7 106.42 197.54 105.58C198.38 104.62 199.58 104.14 201.14 104.14C202.58 104.14 203.72 104.62 204.56 105.58C205.52 106.42 206 107.56 206 109C206 110.44 205.58 111.64 204.74 112.6C203.9 113.44 202.7 113.86 201.14 113.86C199.7 113.86 198.5 113.44 197.54 112.6C196.7 111.76 196.28 110.56 196.28 109ZM225.26 109C225.26 110.44 224.84 111.64 224 112.6C223.16 113.44 221.96 113.86 220.4 113.86C217.76 113.86 216.14 112.6 215.54 110.08C215.18 112.6 213.62 113.86 210.86 113.86C209.42 113.86 208.22 113.44 207.26 112.6C206.42 111.76 206 110.56 206 109C206 107.56 206.42 106.42 207.26 105.58C208.1 104.62 209.3 104.14 210.86 104.14C213.62 104.14 215.18 105.4 215.54 107.92C216.14 105.4 217.76 104.14 220.4 104.14C221.84 104.14 222.98 104.62 223.82 105.58C224.78 106.42 225.26 107.56 225.26 109ZM152.72 113.86C151.28 113.86 150.08 113.44 149.12 112.6C148.28 111.76 147.86 110.56 147.86 109C147.86 107.56 148.28 106.42 149.12 105.58C149.96 104.62 151.16 104.14 152.72 104.14C154.16 104.14 155.3 104.62 156.14 105.58C157.1 106.42 157.58 107.56 157.58 109C157.58 110.44 157.16 111.64 156.32 112.6C155.48 113.44 154.28 113.86 152.72 113.86ZM206 118.72C206 117.28 206.42 116.14 207.26 115.3C208.1 114.34 209.3 113.86 210.86 113.86C212.3 113.86 213.44 114.34 214.28 115.3C215.24 116.14 215.72 117.28 215.72 118.72C215.72 120.16 215.3 121.36 214.46 122.32C213.62 123.16 212.42 123.58 210.86 123.58C209.42 123.58 208.22 123.16 207.26 122.32C206.42 121.48 206 120.28 206 118.72ZM196.28 118.72C196.28 117.28 196.7 116.14 197.54 115.3C198.38 114.34 199.58 113.86 201.14 113.86C202.58 113.86 203.72 114.34 204.56 115.3C205.52 116.14 206 117.28 206 118.72C206 120.16 205.58 121.36 204.74 122.32C203.9 123.16 202.7 123.58 201.14 123.58C199.7 123.58 198.5 123.16 197.54 122.32C196.7 121.48 196.28 120.28 196.28 118.72ZM186.56 118.72C186.56 117.28 186.98 116.14 187.82 115.3C188.66 114.34 189.86 113.86 191.42 113.86C192.86 113.86 194 114.34 194.84 115.3C195.8 116.14 196.28 117.28 196.28 118.72C196.28 120.16 195.86 121.36 195.02 122.32C194.18 123.16 192.98 123.58 191.42 123.58C189.98 123.58 188.78 123.16 187.82 122.32C186.98 121.48 186.56 120.28 186.56 118.72ZM176.84 118.72C176.84 117.28 177.26 116.14 178.1 115.3C178.94 114.34 180.14 113.86 181.7 113.86C183.14 113.86 184.28 114.34 185.12 115.3C186.08 116.14 186.56 117.28 186.56 118.72C186.56 120.16 186.14 121.36 185.3 122.32C184.46 123.16 183.26 123.58 181.7 123.58C180.26 123.58 179.06 123.16 178.1 122.32C177.26 121.48 176.84 120.28 176.84 118.72ZM171.98 123.58C170.54 123.58 169.34 123.16 168.38 122.32C167.54 121.48 167.12 120.28 167.12 118.72C167.12 117.28 167.54 116.14 168.38 115.3C169.22 114.34 170.42 113.86 171.98 113.86C173.42 113.86 174.56 114.34 175.4 115.3C176.36 116.14 176.84 117.28 176.84 118.72C176.84 120.16 176.42 121.36 175.58 122.32C174.74 123.16 173.54 123.58 171.98 123.58ZM167.12 118.9C167.12 120.34 166.64 121.48 165.68 122.32C164.84 123.16 163.7 123.58 162.26 123.58C159.14 123.58 157.58 121.9 157.58 118.54C157.58 117.1 158 115.96 158.84 115.12C159.8 114.28 161 113.86 162.44 113.86C165.56 113.86 167.12 115.42 167.12 118.54V118.9ZM157.58 118.72C157.58 120.16 157.16 121.36 156.32 122.32C155.48 123.16 154.28 123.58 152.72 123.58C151.28 123.58 150.08 123.16 149.12 122.32C148.28 121.48 147.86 120.28 147.86 118.72C147.86 117.28 148.28 116.14 149.12 115.3C149.96 114.34 151.16 113.86 152.72 113.86C154.16 113.86 155.3 114.34 156.14 115.3C157.1 116.14 157.58 117.28 157.58 118.72ZM225.26 118.9C225.26 120.34 224.78 121.48 223.82 122.32C222.98 123.16 221.84 123.58 220.4 123.58C217.28 123.58 215.72 121.9 215.72 118.54C215.72 117.1 216.14 115.96 216.98 115.12C217.94 114.28 219.14 113.86 220.58 113.86C223.7 113.86 225.26 115.42 225.26 118.54V118.9ZM234.98 128.44C234.98 129.88 234.56 131.08 233.72 132.04C232.88 132.88 231.68 133.3 230.12 133.3C228.68 133.3 227.48 132.88 226.52 132.04C225.68 131.2 225.26 130 225.26 128.44C225.26 127 225.68 125.86 226.52 125.02C227.36 124.06 228.56 123.58 230.12 123.58C231.56 123.58 232.7 124.06 233.54 125.02C234.5 125.86 234.98 127 234.98 128.44ZM157.58 128.44C157.58 127 158 125.86 158.84 125.02C159.68 124.06 160.88 123.58 162.44 123.58C163.88 123.58 165.02 124.06 165.86 125.02C166.82 125.86 167.3 127 167.3 128.44C167.3 129.88 166.88 131.08 166.04 132.04C165.2 132.88 164 133.3 162.44 133.3C161 133.3 159.8 132.88 158.84 132.04C158 131.2 157.58 130 157.58 128.44ZM215.54 128.44C215.54 129.88 215.12 131.08 214.28 132.04C213.44 132.88 212.24 133.3 210.68 133.3C209.24 133.3 208.04 132.88 207.08 132.04C206.24 131.2 205.82 130 205.82 128.44C205.82 127 206.24 125.86 207.08 125.02C207.92 124.06 209.12 123.58 210.68 123.58C212.12 123.58 213.26 124.06 214.1 125.02C215.06 125.86 215.54 127 215.54 128.44ZM152.72 133.3C151.28 133.3 150.08 132.88 149.12 132.04C148.28 131.2 147.86 130 147.86 128.44C147.86 127 148.28 125.86 149.12 125.02C149.96 124.06 151.16 123.58 152.72 123.58C154.16 123.58 155.3 124.06 156.14 125.02C157.1 125.86 157.58 127 157.58 128.44C157.58 129.88 157.16 131.08 156.32 132.04C155.48 132.88 154.28 133.3 152.72 133.3ZM225.26 128.44C225.26 129.88 224.84 131.08 224 132.04C223.16 132.88 221.96 133.3 220.4 133.3C218.96 133.3 217.76 132.88 216.8 132.04C215.96 131.2 215.54 130 215.54 128.44C215.54 127 215.96 125.86 216.8 125.02C217.64 124.06 218.84 123.58 220.4 123.58C221.84 123.58 222.98 124.06 223.82 125.02C224.78 125.86 225.26 127 225.26 128.44ZM215.54 137.98C215.54 134.86 217.22 133.3 220.58 133.3C222.02 133.3 223.16 133.78 224 134.74C224.84 135.58 225.26 136.72 225.26 138.16C225.26 141.28 223.58 142.84 220.22 142.84C217.1 142.84 215.54 141.28 215.54 138.16V137.98ZM225.26 137.98C225.26 134.86 226.94 133.3 230.3 133.3C231.74 133.3 232.88 133.78 233.72 134.74C234.56 135.58 234.98 136.72 234.98 138.16C234.98 141.28 233.3 142.84 229.94 142.84C226.82 142.84 225.26 141.28 225.26 138.16V137.98ZM167.3 138.16C167.3 141.28 165.62 142.84 162.26 142.84C160.82 142.84 159.68 142.42 158.84 141.58C158 140.62 157.58 139.42 157.58 137.98C157.58 134.86 159.26 133.3 162.62 133.3C165.74 133.3 167.3 134.86 167.3 137.98V138.16ZM234.98 137.98C234.98 134.86 236.66 133.3 240.02 133.3C241.46 133.3 242.6 133.78 243.44 134.74C244.28 135.58 244.7 136.72 244.7 138.16C244.7 141.28 243.02 142.84 239.66 142.84C236.54 142.84 234.98 141.28 234.98 138.16V137.98ZM157.58 138.16C157.58 141.28 155.9 142.84 152.54 142.84C151.1 142.84 149.96 142.42 149.12 141.58C148.28 140.62 147.86 139.42 147.86 137.98C147.86 134.86 149.54 133.3 152.9 133.3C156.02 133.3 157.58 134.86 157.58 137.98V138.16ZM157.58 147.7C157.58 146.26 158 145.12 158.84 144.28C159.68 143.32 160.88 142.84 162.44 142.84C163.88 142.84 165.02 143.32 165.86 144.28C166.82 145.12 167.3 146.26 167.3 147.7C167.3 149.14 166.88 150.34 166.04 151.3C165.2 152.14 164 152.56 162.44 152.56C161 152.56 159.8 152.14 158.84 151.3C158 150.46 157.58 149.26 157.58 147.7ZM234.98 147.7C234.98 149.14 234.56 150.34 233.72 151.3C232.88 152.14 231.68 152.56 230.12 152.56C228.68 152.56 227.48 152.14 226.52 151.3C225.68 150.34 225.26 149.14 225.26 147.7C225.26 146.26 225.68 145.12 226.52 144.28C227.36 143.32 228.56 142.84 230.12 142.84C231.56 142.84 232.7 143.26 233.54 144.1C234.5 144.94 234.98 146.14 234.98 147.7ZM239.84 152.56C238.4 152.56 237.2 152.14 236.24 151.3C235.4 150.34 234.98 149.14 234.98 147.7C234.98 146.26 235.4 145.12 236.24 144.28C237.08 143.32 238.28 142.84 239.84 142.84C241.28 142.84 242.42 143.26 243.26 144.1C244.22 144.94 244.7 146.14 244.7 147.7C244.7 149.14 244.28 150.34 243.44 151.3C242.6 152.14 241.4 152.56 239.84 152.56ZM152.72 152.56C151.28 152.56 150.08 152.14 149.12 151.3C148.28 150.46 147.86 149.26 147.86 147.7C147.86 146.26 148.28 145.12 149.12 144.28C149.96 143.32 151.16 142.84 152.72 142.84C154.16 142.84 155.3 143.32 156.14 144.28C157.1 145.12 157.58 146.26 157.58 147.7C157.58 149.14 157.16 150.34 156.32 151.3C155.48 152.14 154.28 152.56 152.72 152.56ZM234.98 157.42C234.98 158.86 234.56 160.06 233.72 161.02C232.88 161.86 231.68 162.28 230.12 162.28C228.68 162.28 227.48 161.86 226.52 161.02C225.68 160.06 225.26 158.86 225.26 157.42C225.26 155.98 225.68 154.84 226.52 154C227.36 153.04 228.56 152.56 230.12 152.56C231.56 152.56 232.7 152.98 233.54 153.82C234.5 154.66 234.98 155.86 234.98 157.42ZM157.58 157.42C157.58 155.98 158 154.84 158.84 154C159.68 153.04 160.88 152.56 162.44 152.56C163.88 152.56 165.02 153.04 165.86 154C166.82 154.84 167.3 155.98 167.3 157.42C167.3 158.86 166.88 160.06 166.04 161.02C165.2 161.86 164 162.28 162.44 162.28C161 162.28 159.8 161.86 158.84 161.02C158 160.18 157.58 158.98 157.58 157.42ZM239.84 162.28C238.4 162.28 237.2 161.86 236.24 161.02C235.4 160.06 234.98 158.86 234.98 157.42C234.98 155.98 235.4 154.84 236.24 154C237.08 153.04 238.28 152.56 239.84 152.56C241.28 152.56 242.42 152.98 243.26 153.82C244.22 154.66 244.7 155.86 244.7 157.42C244.7 158.86 244.28 160.06 243.44 161.02C242.6 161.86 241.4 162.28 239.84 162.28ZM152.72 162.28C151.28 162.28 150.08 161.86 149.12 161.02C148.28 160.18 147.86 158.98 147.86 157.42C147.86 155.98 148.28 154.84 149.12 154C149.96 153.04 151.16 152.56 152.72 152.56C154.16 152.56 155.3 153.04 156.14 154C157.1 154.84 157.58 155.98 157.58 157.42C157.58 158.86 157.16 160.06 156.32 161.02C155.48 161.86 154.28 162.28 152.72 162.28ZM234.98 167.14C234.98 168.58 234.56 169.78 233.72 170.74C232.88 171.58 231.68 172 230.12 172C228.68 172 227.48 171.58 226.52 170.74C225.68 169.78 225.26 168.58 225.26 167.14C225.26 165.7 225.68 164.56 226.52 163.72C227.36 162.76 228.56 162.28 230.12 162.28C231.56 162.28 232.7 162.7 233.54 163.54C234.5 164.38 234.98 165.58 234.98 167.14ZM157.58 167.14C157.58 165.7 158 164.56 158.84 163.72C159.68 162.76 160.88 162.28 162.44 162.28C163.88 162.28 165.02 162.7 165.86 163.54C166.82 164.38 167.3 165.58 167.3 167.14C167.3 168.58 166.88 169.78 166.04 170.74C165.2 171.58 164 172 162.44 172C161 172 159.8 171.58 158.84 170.74C158 169.78 157.58 168.58 157.58 167.14ZM147.86 167.14C147.86 165.7 148.28 164.56 149.12 163.72C149.96 162.76 151.16 162.28 152.72 162.28C154.16 162.28 155.3 162.7 156.14 163.54C157.1 164.38 157.58 165.58 157.58 167.14C157.58 168.58 157.16 169.78 156.32 170.74C155.48 171.58 154.28 172 152.72 172C151.28 172 150.08 171.58 149.12 170.74C148.28 169.78 147.86 168.58 147.86 167.14ZM239.84 172C238.4 172 237.2 171.58 236.24 170.74C235.4 169.78 234.98 168.58 234.98 167.14C234.98 165.7 235.4 164.56 236.24 163.72C237.08 162.76 238.28 162.28 239.84 162.28C241.28 162.28 242.42 162.7 243.26 163.54C244.22 164.38 244.7 165.58 244.7 167.14C244.7 168.58 244.28 169.78 243.44 170.74C242.6 171.58 241.4 172 239.84 172Z" fill="#EAE6CF"/>
<path d="M210.124 184.872C209.694 183.497 209.754 182.284 210.305 181.231C210.935 180.029 211.936 179.212 213.311 178.782C214.8 178.317 216.088 178.416 217.177 179.082C218.229 179.633 218.97 180.595 219.4 181.97C219.866 183.458 219.766 184.747 219.101 185.835C218.55 186.888 217.587 187.629 216.213 188.059C214.724 188.525 213.453 188.482 212.401 187.931C211.313 187.266 210.553 186.246 210.124 184.872ZM200.847 187.774C200.417 186.399 200.477 185.186 201.028 184.134C201.658 182.931 202.66 182.114 204.034 181.684C205.523 181.219 206.812 181.318 207.9 181.984C208.952 182.535 209.694 183.497 210.124 184.872C210.589 186.361 210.489 187.649 209.824 188.737C209.273 189.79 208.311 190.531 206.936 190.961C205.447 191.427 204.177 191.384 203.124 190.833C202.036 190.168 201.277 189.148 200.847 187.774ZM203.749 197.05C203.283 195.562 203.326 194.291 203.877 193.238C204.542 192.15 205.562 191.391 206.936 190.961C208.425 190.495 209.714 190.595 210.802 191.261C211.854 191.811 212.596 192.774 213.026 194.148C213.456 195.523 213.356 196.811 212.726 198.014C212.175 199.067 211.213 199.808 209.838 200.238C208.349 200.703 207.079 200.661 206.026 200.11C204.938 199.445 204.179 198.425 203.749 197.05ZM200.562 203.14C199.073 203.606 197.802 203.563 196.75 203.012C195.661 202.347 194.902 201.327 194.472 199.953C194.007 198.464 194.049 197.193 194.6 196.141C195.265 195.052 196.285 194.293 197.66 193.863C199.148 193.397 200.437 193.497 201.525 194.163C202.578 194.713 203.319 195.676 203.749 197.05C204.179 198.425 204.079 199.713 203.449 200.916C202.899 201.969 201.936 202.71 200.562 203.14ZM222.302 191.246C222.732 192.621 222.632 193.909 222.003 195.112C221.452 196.164 220.489 196.906 219.115 197.336C217.626 197.801 216.355 197.759 215.303 197.208C214.215 196.542 213.456 195.523 213.026 194.148C212.56 192.659 212.602 191.389 213.153 190.336C213.819 189.248 214.839 188.489 216.213 188.059C217.702 187.593 218.99 187.693 220.079 188.358C221.131 188.909 221.872 189.872 222.302 191.246ZM231.461 188.57C232.392 191.547 231.369 193.502 228.392 194.433C227.017 194.863 225.747 194.821 224.58 194.306C223.527 193.755 222.786 192.792 222.356 191.418C221.353 188.211 222.34 186.142 225.318 185.211C226.692 184.781 227.905 184.841 228.958 185.392C230.125 185.907 230.923 186.852 231.353 188.226L231.461 188.57ZM206.651 206.327C206.185 204.838 206.228 203.568 206.779 202.515C207.444 201.427 208.464 200.668 209.838 200.238C211.327 199.772 212.616 199.872 213.704 200.537C214.757 201.088 215.498 202.051 215.928 203.425C216.358 204.799 216.258 206.088 215.628 207.291C215.077 208.343 214.115 209.084 212.74 209.514C211.252 209.98 209.981 209.938 208.928 209.387C207.84 208.721 207.081 207.701 206.651 206.327ZM203.464 212.416C201.975 212.882 200.704 212.84 199.652 212.289C198.563 211.623 197.804 210.603 197.374 209.229C196.909 207.74 196.951 206.47 197.502 205.417C198.168 204.329 199.187 203.57 200.562 203.14C202.051 202.674 203.339 202.774 204.427 203.439C205.48 203.99 206.221 204.953 206.651 206.327C207.081 207.701 206.981 208.99 206.352 210.193C205.801 211.245 204.838 211.986 203.464 212.416ZM234.363 197.846C235.295 200.824 234.271 202.779 231.294 203.71C229.919 204.14 228.649 204.098 227.482 203.582C226.429 203.032 225.688 202.069 225.258 200.695C224.255 197.488 225.242 195.419 228.22 194.487C229.594 194.057 230.808 194.118 231.86 194.669C233.027 195.184 233.826 196.128 234.255 197.503L234.363 197.846ZM225.204 200.523C225.634 201.897 225.534 203.186 224.905 204.389C224.354 205.441 223.391 206.182 222.017 206.612C220.528 207.078 219.258 207.035 218.205 206.485C217.117 205.819 216.358 204.799 215.928 203.425C215.462 201.936 215.505 200.665 216.055 199.613C216.721 198.525 217.741 197.766 219.115 197.336C220.604 196.87 221.892 196.97 222.981 197.635C224.033 198.186 224.774 199.149 225.204 200.523ZM200.277 218.506C199.847 217.131 199.907 215.918 200.458 214.866C200.973 213.699 201.918 212.9 203.292 212.47C206.499 211.467 208.568 212.454 209.499 215.432L209.553 215.604C210.485 218.581 209.462 220.536 206.484 221.468C203.277 222.471 201.208 221.483 200.277 218.506ZM191 221.408C190.57 220.034 190.63 218.82 191.181 217.768C191.696 216.601 192.641 215.802 194.015 215.372C197.222 214.369 199.291 215.356 200.223 218.334L200.277 218.506C201.208 221.483 200.185 223.438 197.207 224.37C194.001 225.373 191.931 224.386 191 221.408ZM237.211 206.951C236.781 205.577 236.842 204.363 237.393 203.311C237.908 202.144 238.852 201.345 240.227 200.916C243.434 199.912 245.503 200.9 246.434 203.877L246.488 204.049C247.42 207.027 246.396 208.981 243.419 209.913C240.212 210.916 238.143 209.929 237.211 206.951ZM227.935 209.853C227.505 208.479 227.565 207.266 228.116 206.213C228.631 205.046 229.576 204.248 230.95 203.818C234.157 202.814 236.226 203.802 237.158 206.779L237.211 206.951C238.143 209.929 237.12 211.883 234.142 212.815C230.935 213.818 228.866 212.831 227.935 209.853ZM203.125 227.611C202.659 226.122 202.702 224.851 203.253 223.799C203.918 222.71 204.938 221.951 206.312 221.521C207.801 221.056 209.09 221.155 210.178 221.821C211.23 222.372 211.972 223.334 212.402 224.709C212.831 226.083 212.732 227.371 212.102 228.574C211.551 229.627 210.589 230.368 209.214 230.798C207.725 231.264 206.455 231.221 205.402 230.67C204.314 230.005 203.555 228.985 203.125 227.611ZM240.06 216.056C239.594 214.567 239.636 213.297 240.187 212.244C240.853 211.156 241.873 210.397 243.247 209.967C244.736 209.501 246.024 209.601 247.113 210.266C248.165 210.817 248.906 211.78 249.336 213.154C249.766 214.528 249.666 215.817 249.037 217.02C248.486 218.072 247.523 218.813 246.149 219.243C244.66 219.709 243.39 219.667 242.337 219.116C241.249 218.45 240.49 217.43 240.06 216.056ZM199.938 233.7C198.449 234.166 197.178 234.123 196.126 233.572C195.037 232.907 194.278 231.887 193.848 230.513C193.382 229.024 193.425 227.753 193.976 226.701C194.641 225.612 195.661 224.853 197.035 224.423C198.524 223.958 199.813 224.057 200.901 224.723C201.954 225.274 202.695 226.236 203.125 227.611C203.555 228.985 203.455 230.274 202.825 231.476C202.275 232.529 201.312 233.27 199.938 233.7ZM236.872 222.145C235.384 222.611 234.113 222.569 233.06 222.018C231.972 221.352 231.213 220.332 230.783 218.958C230.317 217.469 230.36 216.199 230.911 215.146C231.576 214.058 232.596 213.299 233.97 212.869C235.459 212.403 236.748 212.503 237.836 213.168C238.889 213.719 239.63 214.682 240.06 216.056C240.49 217.43 240.39 218.719 239.76 219.922C239.209 220.974 238.247 221.715 236.872 222.145ZM206.027 236.887C205.561 235.398 205.604 234.128 206.155 233.075C206.82 231.987 207.84 231.228 209.214 230.798C210.703 230.332 211.992 230.432 213.08 231.097C214.132 231.648 214.874 232.611 215.304 233.985C215.734 235.36 215.634 236.648 215.004 237.851C214.453 238.903 213.491 239.645 212.116 240.075C210.627 240.54 209.357 240.498 208.304 239.947C207.216 239.282 206.457 238.262 206.027 236.887ZM242.962 225.333C242.496 223.844 242.539 222.573 243.089 221.521C243.755 220.432 244.775 219.673 246.149 219.243C247.638 218.778 248.926 218.877 250.015 219.543C251.067 220.094 251.808 221.056 252.238 222.431C252.668 223.805 252.569 225.093 251.939 226.296C251.388 227.349 250.425 228.09 249.051 228.52C247.562 228.986 246.292 228.943 245.239 228.392C244.151 227.727 243.392 226.707 242.962 225.333ZM202.84 242.977C201.351 243.442 200.08 243.4 199.028 242.849C197.939 242.184 197.18 241.164 196.75 239.789C196.285 238.301 196.327 237.03 196.878 235.977C197.543 234.889 198.563 234.13 199.938 233.7C201.426 233.234 202.715 233.334 203.803 234C204.856 234.55 205.597 235.513 206.027 236.887C206.457 238.262 206.357 239.55 205.727 240.753C205.177 241.806 204.214 242.547 202.84 242.977ZM239.774 231.422C238.286 231.888 237.015 231.845 235.962 231.294C234.874 230.629 234.115 229.609 233.685 228.235C233.219 226.746 233.262 225.475 233.813 224.423C234.478 223.334 235.498 222.575 236.872 222.145C238.361 221.68 239.65 221.779 240.738 222.445C241.791 222.996 242.532 223.958 242.962 225.333C243.392 226.707 243.292 227.996 242.662 229.198C242.111 230.251 241.149 230.992 239.774 231.422ZM199.652 249.066C199.187 247.577 199.229 246.307 199.78 245.254C200.445 244.166 201.465 243.407 202.84 242.977C204.329 242.511 205.617 242.611 206.705 243.276C207.758 243.827 208.499 244.79 208.929 246.164C209.359 247.538 209.259 248.827 208.63 250.03C208.079 251.082 207.116 251.823 205.742 252.253C204.253 252.719 202.982 252.677 201.93 252.126C200.841 251.46 200.082 250.44 199.652 249.066ZM255.141 231.707C255.57 233.082 255.471 234.37 254.841 235.573C254.29 236.625 253.328 237.367 251.953 237.797C250.464 238.262 249.194 238.22 248.141 237.669C247.053 237.004 246.294 235.984 245.864 234.609C245.398 233.12 245.441 231.85 245.992 230.797C246.657 229.709 247.677 228.95 249.051 228.52C250.54 228.054 251.829 228.154 252.917 228.819C253.969 229.37 254.711 230.333 255.141 231.707ZM264.417 228.805C264.847 230.179 264.747 231.468 264.118 232.671C263.567 233.723 262.604 234.465 261.23 234.895C259.741 235.36 258.47 235.318 257.418 234.767C256.33 234.101 255.57 233.082 255.141 231.707C254.675 230.218 254.717 228.948 255.268 227.895C255.934 226.807 256.953 226.048 258.328 225.618C259.817 225.152 261.105 225.252 262.194 225.917C263.246 226.468 263.987 227.431 264.417 228.805ZM196.465 255.155C194.976 255.621 193.706 255.579 192.653 255.028C191.565 254.362 190.806 253.342 190.376 251.968C189.91 250.479 189.953 249.209 190.503 248.156C191.169 247.068 192.189 246.309 193.563 245.879C195.052 245.413 196.34 245.513 197.429 246.178C198.481 246.729 199.222 247.692 199.652 249.066C200.082 250.44 199.983 251.729 199.353 252.932C198.802 253.984 197.839 254.725 196.465 255.155ZM202.554 258.343C202.984 259.717 202.885 261.006 202.255 262.208C201.704 263.261 200.742 264.002 199.367 264.432C197.878 264.898 196.608 264.855 195.555 264.304C194.467 263.639 193.708 262.619 193.278 261.245C192.812 259.756 192.855 258.485 193.406 257.433C194.071 256.345 195.091 255.585 196.465 255.155C197.954 254.69 199.243 254.789 200.331 255.455C201.383 256.006 202.125 256.968 202.554 258.343ZM258.043 240.984C257.577 239.495 257.619 238.224 258.17 237.172C258.836 236.084 259.856 235.324 261.23 234.895C262.719 234.429 264.007 234.529 265.096 235.194C266.148 235.745 266.889 236.707 267.319 238.082C267.749 239.456 267.649 240.745 267.02 241.948C266.469 243 265.506 243.741 264.132 244.171C262.643 244.637 261.372 244.594 260.32 244.043C259.232 243.378 258.473 242.358 258.043 240.984ZM211.831 255.441C212.261 256.815 212.161 258.104 211.532 259.306C210.981 260.359 210.018 261.1 208.644 261.53C207.155 261.996 205.884 261.953 204.832 261.402C203.744 260.737 202.984 259.717 202.554 258.343C202.089 256.854 202.131 255.583 202.682 254.531C203.348 253.442 204.367 252.683 205.742 252.253C207.231 251.788 208.519 251.887 209.608 252.553C210.66 253.104 211.401 254.066 211.831 255.441ZM254.855 247.073C253.366 247.539 252.096 247.496 251.043 246.946C249.955 246.28 249.196 245.26 248.766 243.886C248.3 242.397 248.343 241.126 248.894 240.074C249.559 238.986 250.579 238.227 251.953 237.797C253.442 237.331 254.731 237.431 255.819 238.096C256.871 238.647 257.613 239.61 258.043 240.984C258.473 242.358 258.373 243.647 257.743 244.85C257.192 245.902 256.23 246.643 254.855 247.073ZM251.668 253.163C252.098 254.537 251.998 255.826 251.369 257.028C250.818 258.081 249.855 258.822 248.481 259.252C246.992 259.718 245.721 259.675 244.669 259.124C243.58 258.459 242.821 257.439 242.391 256.065C241.926 254.576 241.968 253.305 242.519 252.253C243.184 251.164 244.204 250.405 245.579 249.975C247.068 249.51 248.356 249.609 249.444 250.275C250.497 250.826 251.238 251.788 251.668 253.163ZM242.445 256.237C243.377 259.214 242.354 261.169 239.376 262.1C238.002 262.53 236.731 262.488 235.564 261.973C234.511 261.422 233.77 260.459 233.34 259.085C232.337 255.878 233.324 253.809 236.302 252.877C237.676 252.448 238.89 252.508 239.942 253.059C241.109 253.574 241.908 254.519 242.338 255.893L242.445 256.237ZM260.945 250.261C261.375 251.635 261.275 252.923 260.645 254.126C260.094 255.179 259.132 255.92 257.757 256.35C256.269 256.816 254.998 256.773 253.945 256.222C252.857 255.557 252.098 254.537 251.668 253.163C251.202 251.674 251.245 250.403 251.796 249.351C252.461 248.262 253.481 247.503 254.855 247.073C256.344 246.607 257.633 246.707 258.721 247.373C259.774 247.924 260.515 248.886 260.945 250.261ZM270.221 247.358C270.651 248.733 270.551 250.021 269.922 251.224C269.371 252.277 268.408 253.018 267.034 253.448C265.545 253.914 264.275 253.871 263.222 253.32C262.134 252.655 261.375 251.635 260.945 250.261C260.479 248.772 260.521 247.501 261.072 246.449C261.738 245.36 262.758 244.601 264.132 244.171C265.621 243.705 266.909 243.805 267.998 244.471C269.05 245.022 269.791 245.984 270.221 247.358ZM224.01 261.815C223.544 260.326 223.587 259.056 224.138 258.003C224.803 256.915 225.823 256.156 227.197 255.726C228.686 255.26 229.975 255.36 231.063 256.025C232.115 256.576 232.857 257.539 233.287 258.913C233.716 260.287 233.617 261.576 232.987 262.779C232.436 263.831 231.474 264.573 230.099 265.002C228.61 265.468 227.34 265.426 226.287 264.875C225.199 264.209 224.44 263.189 224.01 261.815ZM214.733 264.717C214.267 263.228 214.31 261.958 214.861 260.905C215.526 259.817 216.546 259.058 217.921 258.628C219.409 258.162 220.698 258.262 221.786 258.927C222.839 259.478 223.58 260.441 224.01 261.815C224.44 263.189 224.34 264.478 223.71 265.681C223.16 266.733 222.197 267.475 220.823 267.905C219.334 268.37 218.063 268.328 217.011 267.777C215.922 267.111 215.163 266.092 214.733 264.717ZM205.457 267.619C204.991 266.131 205.033 264.86 205.584 263.807C206.25 262.719 207.27 261.96 208.644 261.53C210.133 261.064 211.421 261.164 212.51 261.829C213.562 262.38 214.303 263.343 214.733 264.717C215.163 266.092 215.063 267.38 214.434 268.583C213.883 269.635 212.92 270.377 211.546 270.807C210.057 271.272 208.786 271.23 207.734 270.679C206.646 270.014 205.887 268.994 205.457 267.619ZM196.18 270.521C195.714 269.033 195.757 267.762 196.308 266.709C196.973 265.621 197.993 264.862 199.367 264.432C200.856 263.966 202.145 264.066 203.233 264.732C204.285 265.282 205.027 266.245 205.457 267.619C205.887 268.994 205.787 270.282 205.157 271.485C204.606 272.538 203.644 273.279 202.269 273.709C200.78 274.175 199.51 274.132 198.457 273.581C197.369 272.916 196.61 271.896 196.18 270.521ZM279.498 244.456C279.928 245.831 279.828 247.119 279.199 248.322C278.648 249.375 277.685 250.116 276.311 250.546C274.822 251.011 273.551 250.969 272.499 250.418C271.41 249.753 270.651 248.733 270.221 247.358C269.756 245.87 269.798 244.599 270.349 243.546C271.014 242.458 272.034 241.699 273.409 241.269C274.897 240.803 276.186 240.903 277.274 241.569C278.327 242.119 279.068 243.082 279.498 244.456ZM192.993 276.611C191.504 277.077 190.233 277.034 189.181 276.483C188.092 275.818 187.333 274.798 186.903 273.424C186.438 271.935 186.48 270.664 187.031 269.612C187.696 268.523 188.716 267.764 190.091 267.334C191.579 266.868 192.868 266.968 193.956 267.634C195.009 268.185 195.75 269.147 196.18 270.521C196.61 271.896 196.51 273.184 195.88 274.387C195.33 275.44 194.367 276.181 192.993 276.611ZM273.123 256.635C274.055 259.613 273.032 261.567 270.054 262.499C266.847 263.502 264.778 262.515 263.847 259.537C263.417 258.163 263.477 256.949 264.028 255.897C264.543 254.73 265.488 253.932 266.862 253.502C270.069 252.498 272.138 253.486 273.07 256.463L273.123 256.635ZM245.347 265.513C246.279 268.491 245.256 270.445 242.278 271.377C240.904 271.807 239.633 271.764 238.466 271.249C237.414 270.698 236.672 269.736 236.242 268.362C235.239 265.155 236.226 263.086 239.204 262.154C240.578 261.724 241.792 261.785 242.844 262.336C244.011 262.851 244.81 263.795 245.24 265.17L245.347 265.513ZM226.912 271.092C226.446 269.603 226.489 268.332 227.04 267.28C227.705 266.192 228.725 265.432 230.099 265.002C231.588 264.537 232.877 264.637 233.965 265.302C235.017 265.853 235.759 266.815 236.189 268.19C236.619 269.564 236.519 270.853 235.889 272.055C235.338 273.108 234.376 273.849 233.001 274.279C231.513 274.745 230.242 274.702 229.189 274.151C228.101 273.486 227.342 272.466 226.912 271.092ZM217.635 273.994C217.17 272.505 217.212 271.234 217.763 270.182C218.428 269.094 219.448 268.334 220.823 267.905C222.311 267.439 223.6 267.539 224.688 268.204C225.741 268.755 226.482 269.718 226.912 271.092C227.342 272.466 227.242 273.755 226.613 274.958C226.062 276.01 225.099 276.751 223.725 277.181C222.236 277.647 220.965 277.604 219.913 277.054C218.824 276.388 218.065 275.368 217.635 273.994ZM208.359 276.896C207.893 275.407 207.935 274.137 208.486 273.084C209.152 271.996 210.172 271.237 211.546 270.807C213.035 270.341 214.323 270.441 215.412 271.106C216.464 271.657 217.205 272.62 217.635 273.994C218.065 275.368 217.965 276.657 217.336 277.86C216.785 278.912 215.822 279.653 214.448 280.083C212.959 280.549 211.689 280.507 210.636 279.956C209.548 279.29 208.789 278.27 208.359 276.896ZM282.4 253.733C283.332 256.711 282.309 258.665 279.331 259.597C276.124 260.6 274.055 259.613 273.123 256.635C272.694 255.261 272.754 254.047 273.305 252.995C273.82 251.828 274.765 251.029 276.139 250.599C279.346 249.596 281.415 250.584 282.346 253.561L282.4 253.733ZM254.57 262.439C255 263.814 254.9 265.102 254.271 266.305C253.72 267.358 252.757 268.099 251.383 268.529C249.894 268.994 248.623 268.952 247.571 268.401C246.483 267.736 245.723 266.716 245.293 265.341C244.828 263.853 244.87 262.582 245.421 261.529C246.087 260.441 247.106 259.682 248.481 259.252C249.97 258.786 251.258 258.886 252.347 259.551C253.399 260.102 254.14 261.065 254.57 262.439ZM199.082 279.798C200.014 282.776 198.99 284.73 196.013 285.662C192.806 286.665 190.737 285.678 189.805 282.7C189.375 281.326 189.436 280.112 189.987 279.06C190.502 277.893 191.447 277.095 192.821 276.665C196.028 275.661 198.097 276.649 199.028 279.626L199.082 279.798ZM263.847 259.537C264.277 260.912 264.177 262.2 263.547 263.403C262.996 264.455 262.034 265.197 260.66 265.627C259.171 266.092 257.9 266.05 256.848 265.499C255.759 264.833 255 263.814 254.57 262.439C254.104 260.95 254.147 259.68 254.698 258.627C255.363 257.539 256.383 256.78 257.757 256.35C259.246 255.884 260.535 255.984 261.623 256.649C262.676 257.2 263.417 258.163 263.847 259.537ZM199.082 279.798C198.652 278.424 198.713 277.21 199.263 276.158C199.779 274.991 200.723 274.192 202.098 273.762C205.304 272.759 207.373 273.747 208.305 276.724L208.359 276.896C209.29 279.874 208.267 281.828 205.289 282.76C202.083 283.763 200.014 282.776 199.082 279.798ZM201.93 288.903C201.465 287.414 201.507 286.143 202.058 285.091C202.723 284.003 203.743 283.244 205.118 282.814C206.607 282.348 207.895 282.448 208.983 283.113C210.036 283.664 210.777 284.627 211.207 286.001C211.637 287.375 211.537 288.664 210.908 289.867C210.357 290.919 209.394 291.66 208.02 292.09C206.531 292.556 205.26 292.513 204.208 291.963C203.119 291.297 202.36 290.277 201.93 288.903ZM275.972 265.74C275.506 264.251 275.549 262.98 276.099 261.928C276.765 260.84 277.785 260.081 279.159 259.651C280.648 259.185 281.937 259.285 283.025 259.95C284.077 260.501 284.819 261.464 285.248 262.838C285.678 264.212 285.579 265.501 284.949 266.704C284.398 267.756 283.435 268.497 282.061 268.927C280.572 269.393 279.302 269.35 278.249 268.8C277.161 268.134 276.402 267.114 275.972 265.74ZM285.248 262.838C284.783 261.349 284.825 260.078 285.376 259.026C286.042 257.938 287.061 257.178 288.436 256.748C289.925 256.283 291.213 256.383 292.301 257.048C293.354 257.599 294.095 258.561 294.525 259.936C294.955 261.31 294.855 262.599 294.226 263.802C293.675 264.854 292.712 265.595 291.338 266.025C289.849 266.491 288.578 266.448 287.526 265.897C286.438 265.232 285.678 264.212 285.248 262.838ZM272.785 271.829C271.296 272.295 270.025 272.253 268.973 271.702C267.884 271.036 267.125 270.016 266.695 268.642C266.229 267.153 266.272 265.883 266.823 264.83C267.488 263.742 268.508 262.983 269.882 262.553C271.371 262.087 272.66 262.187 273.748 262.852C274.801 263.403 275.542 264.366 275.972 265.74C276.402 267.114 276.302 268.403 275.672 269.606C275.121 270.658 274.159 271.399 272.785 271.829ZM192.654 291.805C192.188 290.316 192.231 289.046 192.781 287.993C193.447 286.905 194.467 286.146 195.841 285.716C197.33 285.25 198.618 285.35 199.707 286.015C200.759 286.566 201.5 287.529 201.93 288.903C202.36 290.277 202.26 291.566 201.631 292.769C201.08 293.821 200.117 294.562 198.743 294.992C197.254 295.458 195.984 295.416 194.931 294.865C193.843 294.199 193.084 293.179 192.654 291.805ZM189.466 297.894C187.978 298.36 186.707 298.318 185.654 297.767C184.566 297.101 183.807 296.081 183.377 294.707C182.911 293.218 182.954 291.948 183.505 290.895C184.17 289.807 185.19 289.048 186.564 288.618C188.053 288.152 189.342 288.252 190.43 288.917C191.483 289.468 192.224 290.431 192.654 291.805C193.084 293.179 192.984 294.468 192.354 295.671C191.803 296.723 190.841 297.464 189.466 297.894ZM195.556 301.082C195.09 299.593 195.133 298.322 195.684 297.27C196.349 296.181 197.369 295.422 198.743 294.992C200.232 294.527 201.521 294.626 202.609 295.292C203.661 295.843 204.403 296.805 204.832 298.18C205.262 299.554 205.163 300.843 204.533 302.045C203.982 303.098 203.02 303.839 201.645 304.269C200.156 304.735 198.886 304.692 197.833 304.141C196.745 303.476 195.986 302.456 195.556 301.082ZM288.151 272.115C287.721 270.74 287.781 269.527 288.332 268.474C288.962 267.271 289.964 266.455 291.338 266.025C292.827 265.559 294.115 265.659 295.204 266.325C296.256 266.876 296.997 267.838 297.427 269.212C297.893 270.701 297.793 271.99 297.128 273.078C296.577 274.131 295.614 274.872 294.24 275.302C292.751 275.768 291.48 275.725 290.428 275.174C289.34 274.509 288.58 273.489 288.151 272.115ZM278.874 275.017C278.444 273.642 278.504 272.429 279.055 271.376C279.685 270.174 280.687 269.357 282.061 268.927C283.55 268.461 284.839 268.561 285.927 269.227C286.979 269.778 287.721 270.74 288.151 272.115C288.616 273.603 288.516 274.892 287.851 275.98C287.3 277.033 286.338 277.774 284.963 278.204C283.474 278.67 282.204 278.627 281.151 278.076C280.063 277.411 279.304 276.391 278.874 275.017ZM192.369 307.171C190.88 307.637 189.609 307.594 188.557 307.043C187.468 306.378 186.709 305.358 186.279 303.984C185.813 302.495 185.856 301.224 186.407 300.172C187.072 299.084 188.092 298.324 189.466 297.894C190.955 297.429 192.244 297.528 193.332 298.194C194.385 298.745 195.126 299.707 195.556 301.082C195.986 302.456 195.886 303.745 195.256 304.947C194.705 306 193.743 306.741 192.369 307.171ZM198.458 310.358C198.028 308.984 198.088 307.771 198.639 306.718C199.269 305.515 200.271 304.699 201.645 304.269C203.134 303.803 204.423 303.903 205.511 304.568C206.563 305.119 207.305 306.082 207.735 307.456C208.2 308.945 208.101 310.234 207.435 311.322C206.884 312.374 205.922 313.116 204.547 313.546C203.058 314.011 201.788 313.969 200.735 313.418C199.647 312.753 198.888 311.733 198.458 310.358ZM291.053 281.391C290.623 280.017 290.683 278.803 291.234 277.751C291.864 276.548 292.866 275.732 294.24 275.302C295.729 274.836 297.017 274.936 298.106 275.601C299.158 276.152 299.899 277.115 300.329 278.489C300.795 279.978 300.695 281.266 300.03 282.355C299.479 283.407 298.516 284.149 297.142 284.578C295.653 285.044 294.383 285.002 293.33 284.451C292.242 283.785 291.483 282.765 291.053 281.391ZM281.776 284.293C281.346 282.919 281.407 281.706 281.957 280.653C282.587 279.45 283.589 278.634 284.963 278.204C286.452 277.738 287.741 277.838 288.829 278.503C289.881 279.054 290.623 280.017 291.053 281.391C291.518 282.88 291.419 284.169 290.753 285.257C290.202 286.309 289.24 287.051 287.865 287.481C286.377 287.946 285.106 287.904 284.053 287.353C282.965 286.687 282.206 285.668 281.776 284.293ZM189.181 313.26C188.751 311.886 188.812 310.673 189.363 309.62C189.992 308.417 190.994 307.601 192.369 307.171C193.857 306.705 195.146 306.805 196.234 307.471C197.287 308.021 198.028 308.984 198.458 310.358C198.924 311.847 198.824 313.136 198.158 314.224C197.608 315.277 196.645 316.018 195.271 316.448C193.782 316.914 192.511 316.871 191.459 316.32C190.37 315.655 189.611 314.635 189.181 313.26Z" fill="#EAE6CF"/>
<path d="M139.795 288.839C139.136 287.559 138.986 286.354 139.348 285.222C139.655 283.984 140.501 283.007 141.888 282.293C143.168 281.633 144.374 281.484 145.505 281.845C146.743 282.152 147.72 282.999 148.435 284.385C149.095 285.665 149.271 286.924 148.965 288.162C148.603 289.294 147.729 290.217 146.342 290.932C145.062 291.592 143.803 291.768 142.565 291.462C141.379 290.993 140.455 290.119 139.795 288.839ZM148.435 284.385C147.775 283.105 147.626 281.899 147.987 280.768C148.294 279.53 149.141 278.553 150.527 277.838C151.807 277.178 153.013 277.029 154.144 277.391C155.383 277.698 156.359 278.544 157.074 279.931C157.734 281.211 157.911 282.47 157.604 283.708C157.242 284.84 156.368 285.763 154.982 286.478C153.702 287.138 152.443 287.314 151.204 287.007C150.018 286.539 149.095 285.665 148.435 284.385ZM144.25 297.479C143.59 296.199 143.441 294.993 143.802 293.862C144.109 292.623 144.956 291.647 146.342 290.932C147.622 290.272 148.828 290.123 149.959 290.485C151.198 290.791 152.174 291.638 152.889 293.024C153.549 294.304 153.725 295.563 153.419 296.802C153.057 297.933 152.183 298.856 150.796 299.571C149.517 300.231 148.257 300.408 147.019 300.101C145.833 299.633 144.91 298.759 144.25 297.479ZM152.889 293.024C152.229 291.745 152.08 290.539 152.442 289.407C152.748 288.169 153.595 287.193 154.982 286.478C156.261 285.818 157.467 285.669 158.599 286.03C159.837 286.337 160.813 287.184 161.528 288.57C162.188 289.85 162.365 291.109 162.058 292.347C161.696 293.479 160.822 294.402 159.436 295.117C158.156 295.777 156.897 295.953 155.659 295.647C154.472 295.178 153.549 294.304 152.889 293.024ZM148.704 306.118C148.044 304.838 147.895 303.632 148.257 302.501C148.563 301.263 149.41 300.286 150.796 299.571C152.076 298.911 153.282 298.762 154.414 299.124C155.652 299.431 156.628 300.277 157.343 301.664C158.003 302.944 158.18 304.203 157.873 305.441C157.511 306.572 156.637 307.496 155.251 308.211C153.971 308.87 152.712 309.047 151.474 308.74C150.287 308.272 149.364 307.398 148.704 306.118ZM157.343 301.664C156.683 300.384 156.534 299.178 156.896 298.047C157.203 296.808 158.049 295.832 159.436 295.117C160.716 294.457 161.921 294.308 163.053 294.67C164.291 294.976 165.268 295.823 165.983 297.21C166.642 298.489 166.819 299.748 166.512 300.987C166.151 302.118 165.277 303.041 163.89 303.756C162.61 304.416 161.351 304.593 160.113 304.286C158.926 303.818 158.003 302.944 157.343 301.664ZM153.076 314.597C151.646 311.824 152.424 309.668 155.411 308.128C156.691 307.468 157.924 307.372 159.11 307.841C160.242 308.202 161.138 309.023 161.797 310.303C163.227 313.076 162.449 315.233 159.462 316.772C156.689 318.202 154.588 317.53 153.158 314.757L153.076 314.597ZM161.715 310.143C160.285 307.37 161.064 305.214 164.05 303.674C165.33 303.014 166.563 302.918 167.75 303.386C168.881 303.748 169.777 304.569 170.437 305.849C171.867 308.622 171.088 310.778 168.102 312.318C165.329 313.748 163.227 313.076 161.797 310.303L161.715 310.143ZM157.53 323.237C156.87 321.957 156.721 320.751 157.083 319.62C157.389 318.381 158.236 317.405 159.622 316.69C160.902 316.03 162.108 315.881 163.24 316.243C164.478 316.549 165.454 317.396 166.169 318.782C166.829 320.062 167.006 321.321 166.699 322.56C166.337 323.691 165.463 324.614 164.077 325.329C162.797 325.989 161.538 326.166 160.3 325.859C159.113 325.391 158.19 324.517 157.53 323.237ZM166.169 318.782C165.509 317.503 165.36 316.297 165.722 315.165C166.029 313.927 166.875 312.951 168.262 312.236C169.542 311.576 170.747 311.427 171.879 311.788C173.117 312.095 174.094 312.942 174.809 314.328C175.468 315.608 175.645 316.867 175.338 318.105C174.977 319.237 174.103 320.16 172.716 320.875C171.436 321.535 170.177 321.711 168.939 321.405C167.752 320.936 166.829 320.062 166.169 318.782ZM161.984 331.876C161.324 330.596 161.175 329.39 161.537 328.259C161.844 327.021 162.69 326.044 164.077 325.329C165.357 324.669 166.562 324.52 167.694 324.882C168.932 325.189 169.909 326.035 170.624 327.422C171.283 328.702 171.46 329.961 171.153 331.199C170.792 332.33 169.918 333.254 168.531 333.969C167.251 334.628 165.992 334.805 164.754 334.498C163.567 334.03 162.644 333.156 161.984 331.876ZM170.624 327.422C169.964 326.142 169.815 324.936 170.176 323.805C170.483 322.566 171.329 321.59 172.716 320.875C173.996 320.215 175.202 320.066 176.333 320.428C177.571 320.734 178.548 321.581 179.263 322.968C179.923 324.247 180.099 325.506 179.793 326.745C179.431 327.876 178.557 328.799 177.17 329.514C175.89 330.174 174.631 330.351 173.393 330.044C172.207 329.576 171.283 328.702 170.624 327.422ZM166.438 340.515C165.779 339.235 165.629 338.03 165.991 336.898C166.298 335.66 167.144 334.683 168.531 333.969C169.811 333.309 171.017 333.16 172.148 333.521C173.386 333.828 174.363 334.675 175.078 336.061C175.738 337.341 175.914 338.6 175.608 339.838C175.246 340.97 174.372 341.893 172.985 342.608C171.705 343.268 170.446 343.444 169.208 343.138C168.022 342.669 167.098 341.795 166.438 340.515ZM175.078 336.061C174.418 334.781 174.269 333.575 174.63 332.444C174.937 331.206 175.784 330.229 177.17 329.514C178.45 328.854 179.656 328.705 180.787 329.067C182.026 329.374 183.002 330.22 183.717 331.607C184.377 332.887 184.554 334.146 184.247 335.384C183.885 336.516 183.011 337.439 181.625 338.154C180.345 338.814 179.086 338.99 177.847 338.683C176.661 338.215 175.738 337.341 175.078 336.061ZM170.893 349.155C170.233 347.875 170.084 346.669 170.445 345.538C170.752 344.299 171.599 343.323 172.985 342.608C174.265 341.948 175.471 341.799 176.602 342.161C177.841 342.467 178.817 343.314 179.532 344.7C180.192 345.98 180.369 347.239 180.062 348.478C179.7 349.609 178.826 350.532 177.439 351.247C176.16 351.907 174.901 352.084 173.662 351.777C172.476 351.309 171.553 350.435 170.893 349.155ZM179.532 344.7C178.872 343.421 178.723 342.215 179.085 341.083C179.391 339.845 180.238 338.869 181.625 338.154C182.904 337.494 184.11 337.345 185.242 337.706C186.48 338.013 187.456 338.86 188.171 340.246C188.831 341.526 189.008 342.785 188.701 344.023C188.339 345.155 187.465 346.078 186.079 346.793C184.799 347.453 183.54 347.629 182.302 347.323C181.115 346.854 180.192 345.98 179.532 344.7ZM175.347 357.794C174.687 356.514 174.538 355.308 174.9 354.177C175.206 352.939 176.053 351.962 177.439 351.247C178.719 350.587 179.925 350.438 181.057 350.8C182.295 351.107 183.271 351.953 183.986 353.34C184.646 354.62 184.823 355.879 184.516 357.117C184.154 358.248 183.28 359.172 181.894 359.887C180.614 360.546 179.355 360.723 178.117 360.416C176.93 359.948 176.007 359.074 175.347 357.794ZM183.986 353.34C183.326 352.06 183.177 350.854 183.539 349.723C183.846 348.484 184.692 347.508 186.079 346.793C187.359 346.133 188.564 345.984 189.696 346.346C190.934 346.652 191.911 347.499 192.626 348.885C193.285 350.165 193.462 351.424 193.155 352.663C192.794 353.794 191.92 354.717 190.533 355.432C189.253 356.092 187.994 356.269 186.756 355.962C185.569 355.494 184.646 354.62 183.986 353.34ZM179.719 366.273C178.289 363.5 179.067 361.344 182.054 359.804C183.334 359.144 184.567 359.048 185.753 359.517C186.885 359.878 187.781 360.699 188.441 361.979C189.87 364.752 189.092 366.909 186.106 368.448C183.332 369.878 181.231 369.206 179.801 366.433L179.719 366.273ZM188.358 361.819C186.928 359.046 187.707 356.89 190.693 355.35C191.973 354.69 193.206 354.594 194.393 355.062C195.524 355.424 196.42 356.245 197.08 357.525C198.51 360.298 197.731 362.454 194.745 363.994C191.972 365.424 189.87 364.752 188.441 361.979L188.358 361.819ZM184.173 374.913C183.513 373.633 183.364 372.427 183.726 371.296C184.032 370.057 184.879 369.081 186.266 368.366C187.545 367.706 188.751 367.557 189.883 367.919C191.121 368.225 192.097 369.072 192.812 370.458C193.472 371.738 193.649 372.997 193.342 374.236C192.98 375.367 192.106 376.29 190.72 377.005C189.44 377.665 188.181 377.842 186.943 377.535C185.756 377.067 184.833 376.193 184.173 374.913ZM192.812 370.458C192.152 369.179 192.003 367.973 192.365 366.841C192.672 365.603 193.518 364.627 194.905 363.912C196.185 363.252 197.39 363.103 198.522 363.464C199.76 363.771 200.737 364.618 201.452 366.004C202.112 367.284 202.288 368.543 201.981 369.781C201.62 370.913 200.746 371.836 199.359 372.551C198.079 373.211 196.82 373.387 195.582 373.081C194.395 372.612 193.472 371.738 192.812 370.458ZM188.627 383.552C187.967 382.272 187.818 381.066 188.18 379.935C188.487 378.697 189.333 377.72 190.72 377.005C192 376.345 193.205 376.196 194.337 376.558C195.575 376.865 196.552 377.711 197.267 379.098C197.926 380.378 198.103 381.637 197.796 382.875C197.435 384.006 196.561 384.93 195.174 385.645C193.894 386.304 192.635 386.481 191.397 386.174C190.21 385.706 189.287 384.832 188.627 383.552ZM197.267 379.098C196.607 377.818 196.458 376.612 196.819 375.481C197.126 374.242 197.973 373.266 199.359 372.551C200.639 371.891 201.845 371.742 202.976 372.104C204.214 372.41 205.191 373.257 205.906 374.644C206.566 375.923 206.742 377.182 206.436 378.421C206.074 379.552 205.2 380.475 203.813 381.19C202.533 381.85 201.274 382.027 200.036 381.72C198.85 381.252 197.926 380.378 197.267 379.098ZM193.081 392.191C192.422 390.911 192.272 389.706 192.634 388.574C192.941 387.336 193.787 386.359 195.174 385.645C196.454 384.985 197.66 384.836 198.791 385.197C200.029 385.504 201.006 386.351 201.721 387.737C202.381 389.017 202.557 390.276 202.251 391.514C201.889 392.646 201.015 393.569 199.628 394.284C198.348 394.944 197.089 395.12 195.851 394.814C194.665 394.345 193.741 393.471 193.081 392.191ZM201.721 387.737C201.061 386.457 200.912 385.251 201.273 384.12C201.58 382.882 202.427 381.905 203.813 381.19C205.093 380.53 206.299 380.381 207.431 380.743C208.669 381.05 209.645 381.896 210.36 383.283C211.02 384.563 211.197 385.822 210.89 387.06C210.528 388.192 209.654 389.115 208.268 389.83C206.988 390.49 205.729 390.666 204.49 390.359C203.304 389.891 202.381 389.017 201.721 387.737Z" fill="#EAE6CF"/>
<path d="M91.7617 317.416C92.1634 318.924 92.0085 320.207 91.2971 321.266C90.7017 322.294 89.7083 322.993 88.3168 323.364C86.8094 323.765 85.5417 323.668 84.5138 323.073C83.4549 322.362 82.7401 321.31 82.3694 319.919C81.9987 318.527 82.111 317.318 82.7064 316.29C83.3869 315.115 84.4229 314.342 85.8143 313.971C87.3217 313.57 88.6049 313.725 89.6637 314.436C90.6917 315.031 91.391 316.025 91.7617 317.416ZM54.1924 327.426C53.8217 326.035 53.934 324.825 54.5294 323.797C55.2099 322.622 56.2459 321.85 57.6373 321.479C59.1447 321.077 60.4279 321.232 61.4867 321.944C62.5147 322.539 63.214 323.532 63.5847 324.924C63.9864 326.431 63.8315 327.714 63.1201 328.773C62.5247 329.801 61.5313 330.501 60.1398 330.871C58.6324 331.273 57.3647 331.176 56.3368 330.581C55.2779 329.869 54.5632 328.818 54.1924 327.426ZM101.154 314.914C100.783 313.522 100.896 312.313 101.491 311.285C102.172 310.11 103.208 309.337 104.599 308.966C106.106 308.565 107.39 308.72 108.448 309.431C109.476 310.026 110.176 311.02 110.546 312.411C110.948 313.919 110.793 315.202 110.082 316.261C109.486 317.289 108.493 317.988 107.101 318.359C105.594 318.76 104.326 318.663 103.298 318.068C102.24 317.357 101.525 316.305 101.154 314.914ZM63.5847 324.924C63.214 323.532 63.3263 322.323 63.9218 321.295C64.6022 320.12 65.6382 319.347 67.0297 318.976C68.5371 318.575 69.8202 318.73 70.879 319.441C71.907 320.036 72.6063 321.03 72.9771 322.421C73.3787 323.929 73.2238 325.212 72.5125 326.271C71.9171 327.299 70.9236 327.998 69.5322 328.369C68.0247 328.77 66.7571 328.673 65.7291 328.078C64.6703 327.367 63.9555 326.315 63.5847 324.924ZM72.9771 322.421C72.6063 321.03 72.7187 319.82 73.3141 318.792C73.9946 317.617 75.0305 316.845 76.422 316.474C77.9294 316.072 79.2125 316.227 80.2714 316.939C81.2993 317.534 81.9987 318.527 82.3694 319.919C82.771 321.426 82.6162 322.709 81.9048 323.768C81.3094 324.796 80.3159 325.495 78.9245 325.866C77.4171 326.268 76.1494 326.171 75.1214 325.576C74.0626 324.864 73.3478 323.813 72.9771 322.421ZM97.7092 320.861C96.2017 321.263 94.9341 321.166 93.9061 320.571C92.8473 319.859 92.1325 318.808 91.7617 317.416C91.391 316.025 91.5033 314.815 92.0988 313.787C92.7792 312.612 93.8152 311.84 95.2066 311.469C96.7141 311.067 97.9972 311.222 99.056 311.934C100.084 312.529 100.783 313.522 101.154 314.914C101.556 316.421 101.401 317.704 100.689 318.763C100.094 319.791 99.1006 320.49 97.7092 320.861ZM103.657 324.306C103.286 322.915 103.398 321.705 103.994 320.677C104.674 319.502 105.71 318.729 107.101 318.359C108.609 317.957 109.892 318.112 110.951 318.823C111.979 319.419 112.678 320.412 113.049 321.804C113.451 323.311 113.296 324.594 112.584 325.653C111.989 326.681 110.995 327.38 109.604 327.751C108.097 328.153 106.829 328.056 105.801 327.46C104.742 326.749 104.027 325.698 103.657 324.306ZM94.2642 326.809C94.6659 328.316 94.511 329.599 93.7996 330.658C93.2042 331.686 92.2108 332.385 90.8193 332.756C89.3119 333.158 88.0442 333.061 87.0163 332.465C85.9574 331.754 85.2426 330.703 84.8719 329.311C84.5012 327.92 84.6135 326.71 85.2089 325.682C85.8894 324.507 86.9254 323.734 88.3168 323.364C89.8242 322.962 91.1074 323.117 92.1662 323.828C93.1942 324.424 93.8935 325.417 94.2642 326.809ZM100.212 330.254C98.7042 330.655 97.4366 330.558 96.4086 329.963C95.3498 329.252 94.635 328.2 94.2642 326.809C93.8935 325.417 94.0058 324.207 94.6013 323.18C95.2817 322.005 96.3177 321.232 97.7092 320.861C99.2166 320.46 100.5 320.614 101.559 321.326C102.586 321.921 103.286 322.915 103.657 324.306C104.058 325.814 103.903 327.097 103.192 328.156C102.597 329.183 101.603 329.883 100.212 330.254ZM75.4796 331.814C75.1088 330.422 75.2212 329.212 75.8166 328.185C76.4971 327.01 77.533 326.237 78.9245 325.866C80.4319 325.465 81.715 325.619 82.7739 326.331C83.8018 326.926 84.5012 327.92 84.8719 329.311C85.2735 330.819 85.1187 332.102 84.4073 333.161C83.8119 334.188 82.8185 334.888 81.427 335.259C79.9196 335.66 78.6519 335.563 77.624 334.968C76.5651 334.257 75.8503 333.205 75.4796 331.814ZM56.7413 336.993C57.5445 340.007 56.4388 341.916 53.4239 342.72C52.0325 343.09 50.7648 342.994 49.6209 342.429C48.5929 341.834 47.8936 340.84 47.5229 339.449C46.6578 336.202 47.7327 334.177 50.7475 333.374C52.139 333.003 53.3487 333.115 54.3766 333.711C55.5205 334.275 56.2778 335.253 56.6486 336.645L56.7413 336.993ZM66.0872 334.316C65.7165 332.925 65.8288 331.715 66.4243 330.687C67.1047 329.512 68.1407 328.739 69.5322 328.369C71.0396 327.967 72.3227 328.122 73.3815 328.833C74.4095 329.429 75.1088 330.422 75.4796 331.814C75.8812 333.321 75.7263 334.604 75.015 335.663C74.4196 336.691 73.4261 337.39 72.0347 337.761C70.5273 338.163 69.2596 338.066 68.2316 337.47C67.1728 336.759 66.458 335.708 66.0872 334.316ZM56.6949 336.819C56.3242 335.427 56.4365 334.218 57.0319 333.19C57.7124 332.015 58.7484 331.242 60.1398 330.871C61.6472 330.47 62.9304 330.624 63.9892 331.336C65.0172 331.931 65.7165 332.925 66.0872 334.316C66.4889 335.824 66.334 337.107 65.6226 338.166C65.0272 339.193 64.0338 339.893 62.6423 340.264C61.1349 340.665 59.8672 340.568 58.8393 339.973C57.7804 339.262 57.0657 338.21 56.6949 336.819ZM122.314 319.521C123.117 322.536 122.011 324.445 118.996 325.249C117.605 325.619 116.337 325.522 115.193 324.958C114.165 324.362 113.466 323.369 113.095 321.978C112.23 318.731 113.305 316.706 116.32 315.903C117.711 315.532 118.921 315.644 119.949 316.24C121.093 316.804 121.85 317.782 122.221 319.174L122.314 319.521ZM49.979 348.667C50.3498 350.059 50.1949 351.342 49.5144 352.517C48.919 353.544 47.9256 354.244 46.5341 354.615C45.0267 355.016 43.759 354.919 42.7311 354.324C41.6722 353.613 40.9574 352.561 40.5867 351.17C40.185 349.662 40.2819 348.395 40.8774 347.367C41.5887 346.308 42.6401 345.593 44.0316 345.222C45.539 344.821 46.8221 344.975 47.881 345.687C48.9089 346.282 49.6083 347.276 49.979 348.667ZM124.77 328.74C125.141 330.131 124.986 331.414 124.305 332.589C123.71 333.617 122.716 334.316 121.325 334.687C118.774 335.367 116.884 334.566 115.656 332.286C115.956 334.814 114.773 336.433 112.106 337.143C110.599 337.545 109.331 337.448 108.303 336.853C107.245 336.141 106.53 335.09 106.159 333.698C105.788 332.307 105.901 331.097 106.496 330.069C107.177 328.895 108.213 328.122 109.604 327.751C112.155 327.071 114.045 327.872 115.273 330.152C114.972 327.625 116.155 326.005 118.822 325.295C120.33 324.893 121.613 325.048 122.672 325.76C123.7 326.355 124.399 327.348 124.77 328.74ZM59.2438 346.385C60.047 349.4 58.9413 351.309 55.9264 352.112C54.535 352.483 53.2673 352.386 52.1234 351.821C51.0954 351.226 50.3961 350.233 50.0254 348.841C49.1603 345.594 50.2352 343.569 53.25 342.766C54.6415 342.395 55.8512 342.508 56.8791 343.103C58.023 343.668 58.7803 344.646 59.1511 346.037L59.2438 346.385ZM59.1974 346.211C58.8267 344.82 58.939 343.61 59.5344 342.582C60.2149 341.407 61.2509 340.634 62.6423 340.264C64.1497 339.862 65.4329 340.017 66.4917 340.728C67.5197 341.324 68.219 342.317 68.5897 343.708C68.9914 345.216 68.8365 346.499 68.1251 347.558C67.5297 348.586 66.5363 349.285 65.1448 349.656C63.6374 350.058 62.3697 349.961 61.3418 349.365C60.2829 348.654 59.5682 347.602 59.1974 346.211ZM124.77 328.74C124.399 327.348 124.511 326.139 125.107 325.111C125.787 323.936 126.823 323.163 128.215 322.792C129.722 322.391 131.005 322.546 132.064 323.257C133.092 323.852 133.791 324.846 134.162 326.237C134.564 327.745 134.409 329.028 133.698 330.087C133.102 331.115 132.109 331.814 130.717 332.185C129.21 332.586 127.942 332.489 126.914 331.894C125.855 331.183 125.141 330.131 124.77 328.74ZM61.6999 355.603C62.5032 358.618 61.3974 360.527 58.3826 361.33C55.5997 362.072 53.7253 361.329 52.7596 359.103C52.7977 361.577 51.5992 363.138 49.1642 363.787C45.9175 364.652 43.8925 363.577 43.0892 360.562C42.7184 359.171 42.8308 357.961 43.4262 356.933C43.9907 355.789 44.9687 355.032 46.3602 354.661C49.0271 353.95 50.9749 354.735 52.2035 357.016C51.9025 354.488 53.0276 352.884 55.5786 352.205C58.8253 351.34 60.8503 352.415 61.6536 355.429L61.6999 355.603ZM127.272 338.132C127.674 339.64 127.519 340.923 126.808 341.982C126.212 343.009 125.219 343.709 123.827 344.08C122.32 344.481 121.052 344.384 120.024 343.789C118.966 343.078 118.251 342.026 117.88 340.635C117.509 339.243 117.622 338.033 118.217 337.006C118.897 335.831 119.933 335.058 121.325 334.687C122.832 334.286 124.115 334.44 125.174 335.152C126.202 335.747 126.902 336.741 127.272 338.132ZM133.22 341.577C131.712 341.979 130.445 341.882 129.417 341.286C128.358 340.575 127.643 339.524 127.272 338.132C126.902 336.741 127.014 335.531 127.609 334.503C128.29 333.328 129.326 332.555 130.717 332.185C132.225 331.783 133.508 331.938 134.567 332.649C135.595 333.245 136.294 334.238 136.665 335.63C137.066 337.137 136.911 338.42 136.2 339.479C135.605 340.507 134.611 341.206 133.22 341.577ZM64.1561 364.822C64.5268 366.213 64.3719 367.496 63.6915 368.671C63.0961 369.699 62.1026 370.398 60.7112 370.769C58.1602 371.449 56.2704 370.648 55.0418 368.368C55.3427 370.896 54.1597 372.515 51.4928 373.225C49.9854 373.627 48.7177 373.53 47.6897 372.935C46.6309 372.223 45.9161 371.172 45.5453 369.78C45.1437 368.273 45.2406 367.005 45.836 365.977C46.5474 364.919 47.5988 364.204 48.9903 363.833C51.5413 363.153 53.4311 363.954 54.6596 366.234C54.3587 363.707 55.5417 362.087 58.2087 361.377C59.7161 360.975 60.9992 361.13 62.058 361.841C63.086 362.437 63.7853 363.43 64.1561 364.822ZM73.5484 362.319C73.9191 363.711 73.7643 364.994 73.0838 366.169C72.4884 367.197 71.495 367.896 70.1035 368.267C68.5961 368.668 67.3284 368.571 66.3005 367.976C65.2416 367.265 64.5268 366.213 64.1561 364.822C63.7544 363.314 63.8513 362.047 64.4467 361.019C65.1581 359.96 66.2095 359.245 67.601 358.874C69.1084 358.473 70.3915 358.628 71.4504 359.339C72.4783 359.934 73.1777 360.928 73.5484 362.319ZM76.0509 371.712C75.6493 370.204 75.7462 368.936 76.3416 367.909C77.053 366.85 78.1044 366.135 79.4958 365.764C81.0032 365.362 82.2864 365.517 83.3452 366.229C84.3732 366.824 85.0725 367.818 85.4432 369.209C85.814 370.601 85.6591 371.884 84.9786 373.058C84.3832 374.086 83.3898 374.786 81.9983 375.156C80.4909 375.558 79.2232 375.461 78.1953 374.866C77.1364 374.154 76.4217 373.103 76.0509 371.712ZM66.7049 374.388C67.5082 377.403 66.4024 379.312 63.3876 380.115C61.9961 380.486 60.7285 380.389 59.5846 379.824C58.5566 379.229 57.8573 378.236 57.4865 376.844C56.6215 373.597 57.6963 371.572 60.7112 370.769C62.1026 370.398 63.3123 370.511 64.3403 371.106C65.4842 371.671 66.2415 372.649 66.6122 374.04L66.7049 374.388ZM113.62 361.702C113.219 360.194 113.315 358.926 113.911 357.899C114.622 356.84 115.674 356.125 117.065 355.754C118.573 355.352 119.856 355.507 120.915 356.219C121.942 356.814 122.642 357.808 123.013 359.199C123.383 360.59 123.228 361.874 122.548 363.048C121.953 364.076 120.959 364.776 119.568 365.146C118.06 365.548 116.793 365.451 115.765 364.856C114.706 364.144 113.991 363.093 113.62 361.702ZM104.228 364.204C103.826 362.697 103.923 361.429 104.519 360.401C105.23 359.342 106.281 358.627 107.673 358.257C109.18 357.855 110.463 358.01 111.522 358.721C112.55 359.317 113.249 360.31 113.62 361.702C113.991 363.093 113.836 364.376 113.156 365.551C112.56 366.579 111.567 367.278 110.175 367.649C108.668 368.051 107.4 367.954 106.372 367.358C105.313 366.647 104.599 365.596 104.228 364.204ZM85.4432 369.209C85.0416 367.702 85.1385 366.434 85.7339 365.406C86.4453 364.347 87.4967 363.632 88.8882 363.262C90.3956 362.86 91.6787 363.015 92.7375 363.726C93.7655 364.322 94.4648 365.315 94.8356 366.707C95.2063 368.098 95.0514 369.381 94.371 370.556C93.7756 371.584 92.7821 372.283 91.3907 372.654C89.8832 373.056 88.6156 372.959 87.5876 372.363C86.5288 371.652 85.814 370.601 85.4432 369.209ZM94.8356 366.707C94.4339 365.199 94.5308 363.931 95.1262 362.904C95.8376 361.845 96.889 361.13 98.2805 360.759C99.7879 360.357 101.071 360.512 102.13 361.224C103.158 361.819 103.857 362.813 104.228 364.204C104.599 365.596 104.444 366.879 103.763 368.053C103.168 369.081 102.174 369.781 100.783 370.151C99.2756 370.553 98.0079 370.456 96.98 369.861C95.9211 369.149 95.2063 368.098 94.8356 366.707ZM72.606 377.659C71.0986 378.061 69.8309 377.964 68.803 377.368C67.7441 376.657 67.0293 375.606 66.6586 374.214C66.2569 372.707 66.3538 371.439 66.9492 370.411C67.6606 369.352 68.712 368.637 70.1035 368.267C71.6109 367.865 72.894 368.02 73.9529 368.731C74.9808 369.327 75.6802 370.32 76.0509 371.712C76.4217 373.103 76.2668 374.386 75.5863 375.561C74.9909 376.589 73.9975 377.288 72.606 377.659ZM78.5534 381.104C78.9242 382.495 78.7693 383.778 78.0888 384.953C77.4934 385.981 76.5 386.681 75.1085 387.051C73.6011 387.453 72.3334 387.356 71.3055 386.761C70.2466 386.049 69.5318 384.998 69.1611 383.606C68.7594 382.099 68.8563 380.831 69.4518 379.803C70.1631 378.745 71.2145 378.03 72.606 377.659C74.1134 377.257 75.3965 377.412 76.4554 378.124C77.4833 378.719 78.1827 379.712 78.5534 381.104ZM116.123 371.094C115.721 369.586 115.818 368.319 116.413 367.291C117.125 366.232 118.176 365.517 119.568 365.146C121.075 364.745 122.358 364.9 123.417 365.611C124.445 366.206 125.144 367.2 125.515 368.591C125.886 369.983 125.731 371.266 125.05 372.441C124.455 373.469 123.462 374.168 122.07 374.539C120.563 374.94 119.295 374.844 118.267 374.248C117.208 373.537 116.493 372.485 116.123 371.094ZM97.3381 376.099C96.9364 374.591 97.0333 373.324 97.6287 372.296C98.3401 371.237 99.3915 370.522 100.783 370.151C102.29 369.75 103.574 369.905 104.632 370.616C105.66 371.211 106.36 372.205 106.73 373.596C107.101 374.988 106.946 376.271 106.266 377.446C105.67 378.474 104.677 379.173 103.285 379.544C101.778 379.945 100.51 379.849 99.4825 379.253C98.4236 378.542 97.7088 377.49 97.3381 376.099ZM134.78 366.309C135.583 369.324 134.477 371.233 131.462 372.036C130.071 372.407 128.803 372.31 127.659 371.746C126.632 371.15 125.932 370.157 125.561 368.765C124.696 365.519 125.771 363.494 128.786 362.69C130.178 362.32 131.387 362.432 132.415 363.027C133.559 363.592 134.316 364.57 134.687 365.961L134.78 366.309ZM106.73 373.596C106.329 372.089 106.426 370.821 107.021 369.793C107.732 368.734 108.784 368.02 110.175 367.649C111.683 367.247 112.966 367.402 114.025 368.114C115.053 368.709 115.752 369.702 116.123 371.094C116.493 372.485 116.339 373.768 115.658 374.943C115.063 375.971 114.069 376.671 112.678 377.041C111.17 377.443 109.903 377.346 108.875 376.751C107.816 376.039 107.101 374.988 106.73 373.596ZM87.9457 378.601C88.3165 379.993 88.1616 381.276 87.4811 382.451C86.8857 383.479 85.8923 384.178 84.5008 384.549C82.9934 384.95 81.7257 384.854 80.6978 384.258C79.6389 383.547 78.9242 382.495 78.5534 381.104C78.1518 379.596 78.2487 378.329 78.8441 377.301C79.5555 376.242 80.6069 375.527 81.9983 375.156C83.5057 374.755 84.7889 374.91 85.8477 375.621C86.8757 376.216 87.575 377.21 87.9457 378.601ZM93.8932 382.046C92.3858 382.448 91.1181 382.351 90.0901 381.756C89.0313 381.044 88.3165 379.993 87.9457 378.601C87.5441 377.094 87.641 375.826 88.2364 374.798C88.9478 373.74 89.9992 373.025 91.3907 372.654C92.8981 372.252 94.1812 372.407 95.24 373.119C96.268 373.714 96.9673 374.707 97.3381 376.099C97.7088 377.49 97.5539 378.773 96.8735 379.948C96.2781 380.976 95.2846 381.676 93.8932 382.046ZM137.282 375.701C138.086 378.716 136.98 380.625 133.965 381.429C132.574 381.799 131.306 381.702 130.162 381.138C129.134 380.543 128.435 379.549 128.064 378.158C127.199 374.911 128.274 372.886 131.289 372.083C132.68 371.712 133.89 371.824 134.918 372.42C136.062 372.984 136.819 373.962 137.19 375.354L137.282 375.701ZM137.236 375.528C136.865 374.136 136.978 372.926 137.573 371.898C138.253 370.724 139.289 369.951 140.681 369.58C142.188 369.178 143.471 369.333 144.53 370.045C145.558 370.64 146.258 371.634 146.628 373.025C147.03 374.532 146.875 375.816 146.164 376.874C145.568 377.902 144.575 378.602 143.183 378.972C141.676 379.374 140.408 379.277 139.38 378.682C138.322 377.97 137.607 376.919 137.236 375.528ZM128.064 378.158C128.867 381.172 127.761 383.082 124.747 383.885C123.355 384.256 122.087 384.159 120.944 383.594C119.916 382.999 119.216 382.005 118.846 380.614C117.98 377.367 119.055 375.342 122.07 374.539C123.462 374.168 124.671 374.28 125.699 374.876C126.843 375.44 127.6 376.418 127.971 377.81L128.064 378.158ZM130.52 387.376C130.149 385.985 130.262 384.775 130.857 383.747C131.538 382.572 132.574 381.799 133.965 381.429C136.516 380.749 138.406 381.549 139.634 383.83C139.333 381.302 140.516 379.683 143.183 378.972C144.691 378.571 145.974 378.726 147.033 379.437C148.061 380.032 148.76 381.026 149.131 382.417C149.532 383.925 149.378 385.208 148.666 386.267C148.071 387.295 147.077 387.994 145.686 388.365C143.135 389.044 141.245 388.244 140.017 385.963C140.317 388.491 139.134 390.11 136.467 390.821C134.96 391.223 133.692 391.126 132.664 390.53C131.606 389.819 130.891 388.767 130.52 387.376ZM132.976 396.594C132.173 393.58 133.279 391.671 136.294 390.867C139.076 390.126 140.951 390.868 141.917 393.095C141.878 390.621 143.077 389.06 145.512 388.411C148.759 387.546 150.784 388.621 151.587 391.636C151.958 393.027 151.861 394.295 151.296 395.439C150.701 396.467 149.707 397.166 148.316 397.537C145.649 398.247 143.701 397.462 142.473 395.182C142.774 397.71 141.649 399.313 139.098 399.993C135.851 400.858 133.826 399.783 133.023 396.768L132.976 396.594ZM76.6686 411.783C77.4719 414.798 76.3661 416.707 73.3513 417.511C70.5684 418.252 68.694 417.51 67.7282 415.283C67.7664 417.757 66.5679 419.318 64.1329 419.967C60.8861 420.832 58.8611 419.757 58.0579 416.742C57.6871 415.351 57.7995 414.141 58.3949 413.113C58.9594 411.969 59.9374 411.212 61.3288 410.841C63.9958 410.13 65.9436 410.915 67.1721 413.196C66.8712 410.668 67.9962 409.065 70.5472 408.385C73.794 407.52 75.819 408.595 76.6222 411.609L76.6686 411.783ZM144.697 403.531C144.326 402.139 144.439 400.929 145.034 399.901C145.715 398.727 146.751 397.954 148.142 397.583C149.649 397.182 150.933 397.336 151.991 398.048C153.019 398.643 153.719 399.637 154.089 401.028C154.491 402.536 154.336 403.819 153.625 404.877C153.029 405.905 152.036 406.605 150.645 406.976C149.137 407.377 147.869 407.28 146.842 406.685C145.783 405.973 145.068 404.922 144.697 403.531ZM69.9063 423.458C70.2771 424.849 70.1222 426.133 69.4417 427.307C68.8463 428.335 67.8529 429.035 66.4614 429.405C64.954 429.807 63.6863 429.71 62.6584 429.115C61.5996 428.403 60.8848 427.352 60.514 425.96C60.1124 424.453 60.2093 423.185 60.8047 422.157C61.5161 421.099 62.5675 420.384 63.9589 420.013C65.4663 419.611 66.7495 419.766 67.8083 420.478C68.8363 421.073 69.5356 422.066 69.9063 423.458ZM79.1711 421.176C79.9744 424.191 78.8686 426.1 75.8538 426.903C74.4623 427.274 73.1946 427.177 72.0507 426.612C71.0228 426.017 70.3234 425.023 69.9527 423.632C69.0876 420.385 70.1625 418.36 73.1773 417.557C74.5688 417.186 75.7785 417.298 76.8064 417.894C77.9503 418.458 78.7077 419.436 79.0784 420.828L79.1711 421.176ZM144.743 403.705C145.547 406.719 144.441 408.628 141.426 409.432C140.035 409.802 138.767 409.706 137.623 409.141C136.595 408.546 135.896 407.552 135.525 406.161C134.66 402.914 135.735 400.889 138.75 400.086C140.141 399.715 141.351 399.827 142.379 400.423C143.523 400.987 144.28 401.965 144.651 403.357L144.743 403.705ZM79.1247 421.002C78.754 419.61 78.8663 418.401 79.4618 417.373C80.1422 416.198 81.1782 415.425 82.5697 415.054C84.0771 414.653 85.3602 414.808 86.419 415.519C87.447 416.114 88.1463 417.108 88.5171 418.499C88.9187 420.007 88.7638 421.29 88.0525 422.349C87.4571 423.377 86.4636 424.076 85.0722 424.447C83.5648 424.848 82.2971 424.751 81.2691 424.156C80.2103 423.445 79.4955 422.393 79.1247 421.002ZM126.086 408.489C125.716 407.098 125.828 405.888 126.423 404.86C127.104 403.685 128.14 402.913 129.531 402.542C131.039 402.14 132.322 402.295 133.381 403.006C134.409 403.602 135.108 404.595 135.479 405.987C135.88 407.494 135.726 408.777 135.014 409.836C134.419 410.864 133.425 411.563 132.034 411.934C130.526 412.336 129.259 412.239 128.231 411.644C127.172 410.932 126.457 409.881 126.086 408.489ZM128.589 417.882C128.218 416.49 128.331 415.28 128.926 414.252C129.606 413.078 130.642 412.305 132.034 411.934C133.541 411.533 134.824 411.687 135.883 412.399C136.911 412.994 137.611 413.988 137.981 415.379C138.383 416.887 138.228 418.17 137.517 419.228C136.921 420.256 135.928 420.956 134.536 421.327C133.029 421.728 131.761 421.631 130.733 421.036C129.674 420.324 128.96 419.273 128.589 417.882ZM119.197 420.384C118.826 418.993 118.938 417.783 119.534 416.755C120.214 415.58 121.25 414.807 122.641 414.437C124.149 414.035 125.432 414.19 126.491 414.901C127.519 415.497 128.218 416.49 128.589 417.882C128.991 419.389 128.836 420.672 128.124 421.731C127.529 422.759 126.535 423.458 125.144 423.829C123.637 424.231 122.369 424.134 121.341 423.538C120.282 422.827 119.567 421.776 119.197 420.384ZM100.412 425.389C100.041 423.998 100.154 422.788 100.749 421.76C101.429 420.585 102.465 419.812 103.857 419.442C105.364 419.04 106.647 419.195 107.706 419.906C108.734 420.502 109.434 421.495 109.804 422.887C110.206 424.394 110.051 425.677 109.34 426.736C108.744 427.764 107.751 428.463 106.359 428.834C104.852 429.236 103.584 429.139 102.556 428.543C101.497 427.832 100.783 426.781 100.412 425.389ZM91.0196 427.892C90.6488 426.5 90.7612 425.29 91.3566 424.263C92.0371 423.088 93.073 422.315 94.4645 421.944C95.9719 421.543 97.255 421.697 98.3139 422.409C99.3418 423.004 100.041 423.998 100.412 425.389C100.814 426.897 100.659 428.18 99.9473 429.238C99.3519 430.266 98.3585 430.966 96.967 431.337C95.4596 431.738 94.1919 431.641 93.164 431.046C92.1051 430.334 91.3903 429.283 91.0196 427.892ZM81.6273 430.394C81.2565 429.003 81.3688 427.793 81.9643 426.765C82.6447 425.59 83.6807 424.817 85.0722 424.447C86.5796 424.045 87.8627 424.2 88.9215 424.911C89.9495 425.507 90.6488 426.5 91.0196 427.892C91.4212 429.399 91.2664 430.682 90.555 431.741C89.9596 432.769 88.9661 433.468 87.5747 433.839C86.0673 434.241 84.7996 434.144 83.7716 433.548C82.7128 432.837 81.998 431.786 81.6273 430.394ZM147.246 413.097C148.049 416.112 146.943 418.021 143.929 418.824C142.537 419.195 141.27 419.098 140.126 418.533C139.098 417.938 138.398 416.944 138.028 415.553C137.163 412.306 138.237 410.281 141.252 409.478C142.644 409.107 143.853 409.22 144.881 409.815C146.025 410.38 146.783 411.358 147.153 412.749L147.246 413.097ZM81.6736 430.568C82.4769 433.583 81.3711 435.492 78.3563 436.295C76.9648 436.666 75.6971 436.569 74.5532 436.005C73.5253 435.409 72.8259 434.416 72.4552 433.024C71.5901 429.777 72.665 427.752 75.6798 426.949C77.0713 426.578 78.281 426.691 79.3089 427.286C80.4528 427.851 81.2102 428.829 81.5809 430.22L81.6736 430.568ZM109.804 422.887C109.434 421.495 109.546 420.285 110.141 419.257C110.822 418.083 111.858 417.31 113.249 416.939C114.757 416.538 116.04 416.692 117.099 417.404C118.126 417.999 118.826 418.993 119.197 420.384C119.598 421.892 119.443 423.175 118.732 424.233C118.137 425.261 117.143 425.961 115.752 426.332C114.244 426.733 112.977 426.636 111.949 426.041C110.89 425.329 110.175 424.278 109.804 422.887ZM131.091 427.274C130.721 425.882 130.833 424.673 131.428 423.645C132.109 422.47 133.145 421.697 134.536 421.327C136.044 420.925 137.327 421.08 138.386 421.791C139.414 422.387 140.113 423.38 140.484 424.771C140.885 426.279 140.731 427.562 140.019 428.621C139.424 429.649 138.43 430.348 137.039 430.719C135.531 431.12 134.264 431.024 133.236 430.428C132.177 429.717 131.462 428.665 131.091 427.274ZM84.1298 439.786C83.759 438.395 83.8713 437.185 84.4668 436.157C85.1472 434.983 86.1832 434.21 87.5747 433.839C89.0821 433.437 90.3652 433.592 91.424 434.304C92.452 434.899 93.1513 435.892 93.5221 437.284C93.9237 438.791 93.7689 440.074 93.0575 441.133C92.4621 442.161 91.4686 442.861 90.0772 443.231C88.5698 443.633 87.3021 443.536 86.2741 442.941C85.2153 442.229 84.5005 441.178 84.1298 439.786ZM121.699 429.776C121.328 428.385 121.441 427.175 122.036 426.147C122.717 424.973 123.753 424.2 125.144 423.829C126.651 423.427 127.935 423.582 128.993 424.294C130.021 424.889 130.721 425.882 131.091 427.274C131.493 428.781 131.338 430.064 130.627 431.123C130.031 432.151 129.038 432.851 127.646 433.221C126.139 433.623 124.871 433.526 123.843 432.931C122.785 432.219 122.07 431.168 121.699 429.776ZM112.307 432.279C111.936 430.887 112.048 429.678 112.644 428.65C113.324 427.475 114.36 426.702 115.752 426.332C117.259 425.93 118.542 426.085 119.601 426.796C120.629 427.392 121.328 428.385 121.699 429.776C122.101 431.284 121.946 432.567 121.234 433.626C120.639 434.654 119.646 435.353 118.254 435.724C116.747 436.125 115.479 436.029 114.451 435.433C113.392 434.722 112.677 433.67 112.307 432.279ZM102.914 434.781C102.544 433.39 102.656 432.18 103.251 431.152C103.932 429.978 104.968 429.205 106.359 428.834C107.867 428.432 109.15 428.587 110.209 429.299C111.237 429.894 111.936 430.887 112.307 432.279C112.708 433.786 112.554 435.069 111.842 436.128C111.247 437.156 110.253 437.856 108.862 438.226C107.354 438.628 106.087 438.531 105.059 437.936C104 437.224 103.285 436.173 102.914 434.781ZM93.5221 437.284C93.1513 435.892 93.2637 434.683 93.8591 433.655C94.5396 432.48 95.5755 431.707 96.967 431.337C98.4744 430.935 99.7575 431.09 100.816 431.801C101.844 432.397 102.544 433.39 102.914 434.781C103.316 436.289 103.161 437.572 102.45 438.631C101.854 439.659 100.861 440.358 99.4695 440.729C97.9621 441.13 96.6944 441.034 95.6665 440.438C94.6076 439.727 93.8928 438.675 93.5221 437.284Z" fill="#EAE6CF"/>
<path d="M38.92 391.872V408.504C38.92 412.275 37.2773 415 33.992 416.68C30.8933 418.285 26.88 419.088 21.952 419.088C17.024 419.088 13.0667 418.248 10.08 416.568C7.09333 414.851 5.6 412.163 5.6 408.504V391.872C5.6 388.251 7.14933 385.6 10.248 383.92C13.384 382.24 17.4907 381.4 22.568 381.4C33.4693 381.4 38.92 384.891 38.92 391.872ZM20.888 399.88H22.624C25.6107 399.88 27.104 399.077 27.104 397.472V392.824C27.104 391.256 25.592 390.472 22.568 390.472C19.5813 390.472 18.088 391.256 18.088 392.824V411.64C18.088 412.461 17.472 412.872 16.24 412.872C15.0453 412.872 14.448 412.461 14.448 411.64V393.216C14.448 391.125 15.1947 389.595 16.688 388.624C18.1813 387.653 20.1413 387.168 22.568 387.168C25.032 387.168 26.992 387.653 28.448 388.624C29.9413 389.595 30.688 391.125 30.688 393.216V397.08C30.688 399.357 29.7733 400.813 27.944 401.448C28.3173 401.859 28.6347 402.549 28.896 403.52L30.688 410.128C30.9493 411.136 31.08 411.696 31.08 411.808C31.08 412.517 30.5387 412.872 29.456 412.872C28.3733 412.872 27.7387 412.499 27.552 411.752L25.648 404.752C25.4613 404.043 25.2 403.595 24.864 403.408C24.528 403.221 23.7813 403.128 22.624 403.128H20.888C20.1787 403.128 19.824 402.587 19.824 401.504C19.824 400.421 20.1787 399.88 20.888 399.88ZM36.12 408.504V391.872C36.12 386.571 31.4907 383.92 22.232 383.92C13.0107 383.92 8.4 386.571 8.4 391.872V408.504C8.4 413.88 13.0107 416.568 22.232 416.568C31.4907 416.568 36.12 413.88 36.12 408.504Z" fill="#EAE6CF"/>
</svg>
