<svg width="208" height="208" viewBox="0 0 208 208" fill="none" xmlns="http://www.w3.org/2000/svg">
<mask id="mask0_849_125" style="mask-type:alpha" maskUnits="userSpaceOnUse" x="49" y="0" width="110" height="208">
<rect x="126.852" width="34" height="210" transform="rotate(21.6861 126.852 0)" fill="#593D3D"/>
</mask>
<g mask="url(#mask0_849_125)">
<path d="M124.882 7.93359C125.768 5.70345 127.121 4.19659 128.939 3.41302C130.831 2.44359 132.985 2.43925 135.401 3.40001C137.631 4.28686 139.138 5.63941 139.922 7.45766C140.891 9.3498 140.896 11.5039 139.935 13.9198C139.048 16.15 137.659 17.7497 135.766 18.7192C133.948 19.5028 131.831 19.4142 129.415 18.4534C127.185 17.5666 125.585 16.1771 124.616 14.2849C123.906 12.2808 123.995 10.1637 124.882 7.93359ZM139.935 13.9198C140.822 11.6897 142.174 10.1828 143.993 9.39927C145.885 8.42984 148.039 8.4255 150.455 9.38626C152.685 10.2731 154.192 11.6257 154.975 13.4439C155.945 15.336 155.949 17.4901 154.988 19.9061C154.101 22.1362 152.712 23.736 150.82 24.7054C149.002 25.489 146.884 25.4004 144.469 24.4397C142.238 23.5528 140.639 22.1633 139.669 20.2712C138.959 18.2671 139.048 16.15 139.935 13.9198ZM118.895 22.987C119.782 20.7569 121.135 19.25 122.953 18.4664C124.845 17.497 126.999 17.4927 129.415 18.4534C131.645 19.3403 133.152 20.6928 133.936 22.511C134.905 24.4032 134.909 26.5573 133.949 28.9732C133.062 31.2034 131.672 32.8031 129.78 33.7726C127.962 34.5562 125.845 34.4676 123.429 33.5068C121.199 32.62 119.599 31.2305 118.63 29.3383C117.92 27.3342 118.008 25.2171 118.895 22.987ZM133.949 28.9732C134.836 26.7431 136.188 25.2362 138.006 24.4527C139.898 23.4832 142.053 23.4789 144.469 24.4397C146.699 25.3265 148.205 26.6791 148.989 28.4973C149.959 30.3894 149.963 32.5435 149.002 34.9595C148.115 37.1896 146.726 38.7894 144.834 39.7588C143.015 40.5424 140.898 40.4538 138.482 39.4931C136.252 38.6062 134.652 37.2167 133.683 35.3246C132.973 33.3205 133.062 31.2034 133.949 28.9732ZM112.909 38.0404C113.796 35.8103 115.148 34.3034 116.967 33.5198C118.859 32.5504 121.013 32.5461 123.429 33.5068C125.659 34.3937 127.166 35.7462 127.949 37.5644C128.919 39.4566 128.923 41.6107 127.962 44.0266C127.076 46.2568 125.686 47.8565 123.794 48.826C121.976 49.6096 119.859 49.521 117.443 48.5602C115.212 47.6734 113.613 46.2839 112.643 44.3917C111.934 42.3876 112.022 40.2705 112.909 38.0404ZM127.962 44.0266C128.849 41.7965 130.202 40.2896 132.02 39.5061C133.912 38.5366 136.066 38.5323 138.482 39.4931C140.712 40.3799 142.219 41.7325 143.003 43.5507C143.972 45.4428 143.977 47.5969 143.016 50.0129C142.129 52.243 140.739 53.8428 138.847 54.8122C137.029 55.5958 134.912 55.5072 132.496 54.5465C130.266 53.6596 128.666 52.2701 127.697 50.378C126.987 48.3739 127.076 46.2568 127.962 44.0266ZM107.034 52.815C108.955 47.9831 112.518 46.6017 117.721 48.6711C119.952 49.5579 121.421 51.0034 122.131 53.0075C122.915 54.8257 122.863 56.8499 121.976 59.08C120.055 63.912 116.492 65.2933 111.288 63.224C106.456 61.3025 105.001 57.9257 106.923 53.0938L107.034 52.815ZM122.087 58.8013C124.009 53.9693 127.571 52.588 132.775 54.6573C135.005 55.5442 136.475 56.9896 137.184 58.9937C137.968 60.812 137.916 62.8362 137.03 65.0663C135.108 69.8982 131.545 71.2796 126.342 69.2102C121.51 67.2887 120.055 63.912 121.976 59.08L122.087 58.8013ZM101.047 67.8684C101.934 65.6383 103.287 64.1314 105.105 63.3478C106.997 62.3784 109.151 62.3741 111.567 63.3348C113.797 64.2217 115.304 65.5742 116.088 67.3925C117.057 69.2846 117.062 71.4387 116.101 73.8547C115.214 76.0848 113.824 77.6846 111.932 78.654C110.114 79.4376 107.997 79.349 105.581 78.3882C103.351 77.5014 101.751 76.1119 100.782 74.2197C100.072 72.2157 100.161 70.0986 101.047 67.8684ZM116.101 73.8547C116.988 71.6245 118.34 70.1177 120.158 69.3341C122.051 68.3647 124.205 68.3603 126.621 69.3211C128.851 70.2079 130.358 71.5605 131.141 73.3787C132.111 75.2709 132.115 77.4249 131.154 79.8409C130.267 82.0711 128.878 83.6708 126.986 84.6403C125.167 85.4238 123.05 85.3352 120.634 84.3745C118.404 83.4876 116.804 82.0981 115.835 80.206C115.125 78.2019 115.214 76.0848 116.101 73.8547ZM95.0611 82.9218C95.948 80.6917 97.3005 79.1848 99.1188 78.4013C101.011 77.4318 103.165 77.4275 105.581 78.3882C107.811 79.2751 109.318 80.6276 110.102 82.4459C111.071 84.338 111.075 86.4921 110.115 88.9081C109.228 91.1382 107.838 92.738 105.946 93.7074C104.128 94.491 102.011 94.4024 99.5947 93.4416C97.3646 92.5548 95.7648 91.1653 94.7954 89.2732C94.0857 87.2691 94.1743 85.152 95.0611 82.9218ZM110.115 88.9081C111.001 86.6779 112.354 85.1711 114.172 84.3875C116.064 83.4181 118.218 83.4137 120.634 84.3745C122.865 85.2613 124.371 86.6139 125.155 88.4321C126.124 90.3243 126.129 92.4783 125.168 94.8943C124.281 97.1244 122.892 98.7242 120.999 99.6937C119.181 100.477 117.064 100.389 114.648 99.4279C112.418 98.541 110.818 97.1515 109.849 95.2594C109.139 93.2553 109.228 91.1382 110.115 88.9081ZM89.0749 97.9752C89.9618 95.7451 91.3143 94.2382 93.1325 93.4546C95.0247 92.4852 97.1787 92.4809 99.5947 93.4416C101.825 94.3285 103.332 95.681 104.115 97.4993C105.085 99.3914 105.089 101.545 104.128 103.961C103.241 106.192 101.852 107.791 99.9598 108.761C98.1416 109.544 96.0245 109.456 93.6085 108.495C91.3783 107.608 89.7786 106.219 88.8091 104.327C88.0995 102.322 88.1881 100.205 89.0749 97.9752ZM104.128 103.961C105.015 101.731 106.368 100.224 108.186 99.4409C110.078 98.4715 112.232 98.4671 114.648 99.4279C116.878 100.315 118.385 101.667 119.169 103.486C120.138 105.378 120.142 107.532 119.182 109.948C118.295 112.178 116.905 113.778 115.013 114.747C113.195 115.531 111.078 115.442 108.662 114.481C106.432 113.594 104.832 112.205 103.863 110.313C103.153 108.309 103.241 106.192 104.128 103.961ZM83.0887 113.029C83.9755 110.798 85.3281 109.292 87.1463 108.508C89.0384 107.539 91.1925 107.534 93.6085 108.495C95.8386 109.382 97.3455 110.734 98.129 112.553C99.0985 114.445 99.1028 116.599 98.1421 119.015C97.2552 121.245 95.8657 122.845 93.9736 123.814C92.1553 124.598 90.0382 124.509 87.6222 123.548C85.3921 122.662 83.7923 121.272 82.8229 119.38C82.1132 117.376 82.2018 115.259 83.0887 113.029ZM98.1421 119.015C99.0289 116.785 100.381 115.278 102.2 114.494C104.092 113.525 106.246 113.521 108.662 114.481C110.892 115.368 112.399 116.721 113.182 118.539C114.152 120.431 114.156 122.585 113.195 125.001C112.309 127.231 110.919 128.831 109.027 129.8C107.209 130.584 105.092 130.495 102.676 129.535C100.445 128.648 98.8457 127.258 97.8763 125.366C97.1666 123.362 97.2552 121.245 98.1421 119.015ZM77.1024 128.082C77.9893 125.852 79.3418 124.345 81.16 123.561C83.0522 122.592 85.2063 122.588 87.6222 123.548C89.8524 124.435 91.3592 125.788 92.1428 127.606C93.1122 129.498 93.1166 131.652 92.1558 134.068C91.269 136.298 89.8795 137.898 87.9873 138.868C86.1691 139.651 84.052 139.563 81.636 138.602C79.4058 137.715 77.8061 136.325 76.8366 134.433C76.127 132.429 76.2156 130.312 77.1024 128.082ZM92.1558 134.068C93.0427 131.838 94.3952 130.331 96.2134 129.548C98.1056 128.578 100.26 128.574 102.676 129.535C104.906 130.422 106.413 131.774 107.196 133.592C108.166 135.484 108.17 137.639 107.209 140.055C106.322 142.285 104.933 143.884 103.041 144.854C101.222 145.637 99.1054 145.549 96.6894 144.588C94.4592 143.701 92.8595 142.312 91.89 140.42C91.1804 138.416 91.269 136.298 92.1558 134.068ZM71.227 142.857C73.1485 138.025 76.7111 136.643 81.9147 138.713C84.1449 139.6 85.6148 141.045 86.3245 143.049C87.108 144.867 87.0564 146.892 86.1696 149.122C84.248 153.954 80.6855 155.335 75.4818 153.266C70.6499 151.344 69.1946 147.967 71.1162 143.135L71.227 142.857ZM86.2804 148.843C88.2019 144.011 91.7645 142.63 96.9681 144.699C99.1983 145.586 100.668 147.031 101.378 149.035C102.161 150.854 102.11 152.878 101.223 155.108C99.3014 159.94 95.7389 161.321 90.5352 159.252C85.7033 157.33 84.248 153.954 86.1696 149.122L86.2804 148.843ZM65.2408 157.91C66.1276 155.68 67.4802 154.173 69.2984 153.389C71.1906 152.42 73.3446 152.416 75.7606 153.376C77.9907 154.263 79.4976 155.616 80.2812 157.434C81.2506 159.326 81.2549 161.48 80.2942 163.896C79.4073 166.126 78.0178 167.726 76.1257 168.696C74.3074 169.479 72.1903 169.391 69.7743 168.43C67.5442 167.543 65.9444 166.154 64.975 164.261C64.2653 162.257 64.3539 160.14 65.2408 157.91ZM80.2942 163.896C81.181 161.666 82.5336 160.159 84.3518 159.376C86.244 158.406 88.398 158.402 90.814 159.363C93.0441 160.25 94.551 161.602 95.3346 163.42C96.304 165.313 96.3083 167.467 95.3476 169.883C94.4607 172.113 93.0712 173.712 91.1791 174.682C89.3608 175.465 87.2437 175.377 84.8277 174.416C82.5976 173.529 80.9978 172.14 80.0284 170.248C79.3187 168.244 79.4073 166.126 80.2942 163.896ZM59.2545 172.963C60.1414 170.733 61.4939 169.226 63.3122 168.443C65.2043 167.473 67.3584 167.469 69.7743 168.43C72.0045 169.317 73.5113 170.669 74.2949 172.488C75.2643 174.38 75.2687 176.534 74.3079 178.95C73.4211 181.18 72.0316 182.78 70.1394 183.749C68.3212 184.533 66.2041 184.444 63.7881 183.483C61.558 182.596 59.9582 181.207 58.9888 179.315C58.2791 177.311 58.3677 175.194 59.2545 172.963ZM74.3079 178.95C75.1948 176.72 76.5473 175.213 78.3656 174.429C80.2577 173.46 82.4118 173.455 84.8277 174.416C87.0579 175.303 88.5647 176.656 89.3483 178.474C90.3177 180.366 90.3221 182.52 89.3613 184.936C88.4745 187.166 87.085 188.766 85.1928 189.735C83.3746 190.519 81.2575 190.43 78.8415 189.47C76.6114 188.583 75.0116 187.193 74.0422 185.301C73.3325 183.297 73.4211 181.18 74.3079 178.95ZM53.2683 188.017C54.1551 185.787 55.5077 184.28 57.3259 183.496C59.2181 182.527 61.3721 182.523 63.7881 183.483C66.0182 184.37 67.5251 185.723 68.3087 187.541C69.2781 189.433 69.2824 191.587 68.3217 194.003C67.4348 196.233 66.0453 197.833 64.1532 198.802C62.3349 199.586 60.2178 199.497 57.8018 198.537C55.5717 197.65 53.9719 196.26 53.0025 194.368C52.2928 192.364 52.3814 190.247 53.2683 188.017ZM68.3217 194.003C69.2085 191.773 70.5611 190.266 72.3793 189.483C74.2715 188.513 76.4255 188.509 78.8415 189.47C81.0716 190.356 82.5785 191.709 83.3621 193.527C84.3315 195.419 84.3358 197.573 83.3751 199.989C82.4882 202.219 81.0987 203.819 79.2066 204.789C77.3883 205.572 75.2712 205.484 72.8552 204.523C70.6251 203.636 69.0253 202.247 68.0559 200.354C67.3462 198.35 67.4348 196.233 68.3217 194.003Z" fill="#EAE6CF"/>
</g>
<mask id="mask1_849_125" style="mask-type:alpha" maskUnits="userSpaceOnUse" x="0" y="49" width="208" height="110">
<rect y="80.8477" width="34" height="210" transform="rotate(-68.3139 0 80.8477)" fill="#593D3D"/>
</mask>
<g mask="url(#mask1_849_125)">
<path d="M7.93359 82.8177C5.70345 81.9308 4.19659 80.5783 3.41302 78.76C2.44359 76.8679 2.43925 74.7138 3.40001 72.2979C4.28686 70.0677 5.63941 68.5609 7.45766 67.7773C9.3498 66.8079 11.5039 66.8035 13.9198 67.7643C16.15 68.6511 17.7498 70.0406 18.7192 71.9328C19.5028 73.751 19.4142 75.8681 18.4534 78.2841C17.5666 80.5142 16.1771 82.114 14.2849 83.0834C12.2808 83.7931 10.1637 83.7045 7.93359 82.8177ZM13.9198 67.7643C11.6897 66.8774 10.1828 65.5249 9.39927 63.7066C8.42984 61.8145 8.4255 59.6604 9.38626 57.2445C10.2731 55.0143 11.6257 53.5075 13.4439 52.7239C15.336 51.7545 17.4901 51.7501 19.9061 52.7109C22.1362 53.5977 23.736 54.9872 24.7054 56.8794C25.489 58.6976 25.4004 60.8147 24.4397 63.2307C23.5528 65.4608 22.1633 67.0606 20.2712 68.03C18.2671 68.7397 16.15 68.6511 13.9198 67.7643ZM22.987 88.8039C20.7569 87.9171 19.25 86.5645 18.4664 84.7463C17.497 82.8542 17.4927 80.7001 18.4534 78.2841C19.3403 76.054 20.6928 74.5471 22.511 73.7635C24.4032 72.7941 26.5573 72.7898 28.9732 73.7505C31.2034 74.6374 32.8031 76.0269 33.7726 77.919C34.5562 79.7373 34.4676 81.8544 33.5068 84.2704C32.62 86.5005 31.2305 88.1003 29.3383 89.0697C27.3342 89.7794 25.2171 89.6908 22.987 88.8039ZM28.9732 73.7505C26.7431 72.8637 25.2362 71.5111 24.4527 69.6929C23.4832 67.8007 23.4789 65.6467 24.4397 63.2307C25.3265 61.0006 26.6791 59.4937 28.4973 58.7101C30.3894 57.7407 32.5435 57.7364 34.9595 58.6971C37.1896 59.584 38.7894 60.9735 39.7588 62.8656C40.5424 64.6839 40.4538 66.801 39.4931 69.217C38.6062 71.4471 37.2167 73.0469 35.3246 74.0163C33.3205 74.726 31.2034 74.6374 28.9732 73.7505ZM38.0404 94.7902C35.8103 93.9033 34.3034 92.5508 33.5198 90.7325C32.5504 88.8404 32.5461 86.6863 33.5068 84.2704C34.3937 82.0402 35.7462 80.5334 37.5645 79.7498C39.4566 78.7804 41.6107 78.776 44.0266 79.7368C46.2568 80.6236 47.8566 82.0131 48.826 83.9053C49.6096 85.7235 49.521 87.8406 48.5602 90.2566C47.6734 92.4867 46.2839 94.0865 44.3917 95.0559C42.3876 95.7656 40.2705 95.677 38.0404 94.7902ZM44.0266 79.7368C41.7965 78.8499 40.2896 77.4974 39.5061 75.6791C38.5366 73.787 38.5323 71.6329 39.4931 69.217C40.3799 66.9868 41.7325 65.48 43.5507 64.6964C45.4428 63.727 47.5969 63.7226 50.0129 64.6834C52.243 65.5702 53.8428 66.9597 54.8122 68.8519C55.5958 70.6701 55.5072 72.7872 54.5465 75.2032C53.6596 77.4333 52.2701 79.0331 50.378 80.0025C48.3739 80.7122 46.2568 80.6236 44.0266 79.7368ZM52.815 100.666C47.9831 98.7441 46.6017 95.1815 48.6711 89.9778C49.5579 87.7477 51.0034 86.2778 53.0075 85.5681C54.8257 84.7845 56.8499 84.8362 59.08 85.723C63.912 87.6445 65.2933 91.2071 63.224 96.4108C61.3025 101.243 57.9257 102.698 53.0938 100.776L52.815 100.666ZM58.8013 85.6122C53.9693 83.6907 52.588 80.1281 54.6573 74.9244C55.5442 72.6943 56.9896 71.2244 58.9937 70.5147C60.812 69.7311 62.8362 69.7828 65.0663 70.6696C69.8982 72.5911 71.2796 76.1537 69.2102 81.3574C67.2887 86.1893 63.912 87.6445 59.08 85.723L58.8013 85.6122ZM67.8684 106.652C65.6383 105.765 64.1314 104.412 63.3479 102.594C62.3784 100.702 62.3741 98.548 63.3349 96.132C64.2217 93.9019 65.5743 92.395 67.3925 91.6114C69.2846 90.642 71.4387 90.6377 73.8547 91.5984C76.0848 92.4853 77.6846 93.8748 78.654 95.7669C79.4376 97.5852 79.349 99.7023 78.3883 102.118C77.5014 104.348 76.1119 105.948 74.2198 106.918C72.2157 107.627 70.0986 107.539 67.8684 106.652ZM73.8547 91.5984C71.6245 90.7116 70.1177 89.359 69.3341 87.5408C68.3647 85.6486 68.3603 83.4946 69.3211 81.0786C70.208 78.8485 71.5605 77.3416 73.3787 76.558C75.2709 75.5886 77.4249 75.5843 79.8409 76.545C82.0711 77.4319 83.6708 78.8214 84.6403 80.7135C85.4238 82.5318 85.3353 84.6489 84.3745 87.0648C83.4876 89.295 82.0981 90.8948 80.206 91.8642C78.2019 92.5739 76.0848 92.4853 73.8547 91.5984ZM82.9218 112.638C80.6917 111.751 79.1848 110.399 78.4013 108.58C77.4318 106.688 77.4275 104.534 78.3883 102.118C79.2751 99.8881 80.6276 98.3813 82.4459 97.5977C84.338 96.6282 86.4921 96.6239 88.9081 97.5847C91.1382 98.4715 92.738 99.861 93.7074 101.753C94.491 103.571 94.4024 105.689 93.4417 108.104C92.5548 110.335 91.1653 111.934 89.2732 112.904C87.2691 113.614 85.152 113.525 82.9218 112.638ZM88.9081 97.5847C86.6779 96.6978 85.1711 95.3453 84.3875 93.527C83.4181 91.6349 83.4137 89.4808 84.3745 87.0648C85.2613 84.8347 86.6139 83.3279 88.4321 82.5443C90.3243 81.5748 92.4783 81.5705 94.8943 82.5313C97.1245 83.4181 98.7242 84.8076 99.6937 86.6998C100.477 88.518 100.389 90.6351 99.4279 93.0511C98.5411 95.2812 97.1516 96.881 95.2594 97.8504C93.2553 98.5601 91.1382 98.4715 88.9081 97.5847ZM97.9752 118.624C95.7451 117.737 94.2382 116.385 93.4547 114.567C92.4852 112.675 92.4809 110.52 93.4417 108.104C94.3285 105.874 95.6811 104.368 97.4993 103.584C99.3914 102.614 101.545 102.61 103.961 103.571C106.192 104.458 107.791 105.847 108.761 107.739C109.544 109.558 109.456 111.675 108.495 114.091C107.608 116.321 106.219 117.921 104.327 118.89C102.322 119.6 100.205 119.511 97.9752 118.624ZM103.961 103.571C101.731 102.684 100.224 101.332 99.4409 99.5133C98.4715 97.6211 98.4671 95.4671 99.4279 93.0511C100.315 90.821 101.667 89.3141 103.486 88.5305C105.378 87.5611 107.532 87.5568 109.948 88.5175C112.178 89.4044 113.778 90.7939 114.747 92.686C115.531 94.5042 115.442 96.6214 114.481 99.0373C113.594 101.267 112.205 102.867 110.313 103.837C108.309 104.546 106.192 104.458 103.961 103.571ZM113.029 124.611C110.798 123.724 109.292 122.371 108.508 120.553C107.539 118.661 107.534 116.507 108.495 114.091C109.382 111.861 110.734 110.354 112.553 109.57C114.445 108.601 116.599 108.596 119.015 109.557C121.245 110.444 122.845 111.834 123.814 113.726C124.598 115.544 124.509 117.661 123.548 120.077C122.662 122.307 121.272 123.907 119.38 124.876C117.376 125.586 115.259 125.497 113.029 124.611ZM119.015 109.557C116.785 108.67 115.278 107.318 114.494 105.5C113.525 103.607 113.521 101.453 114.481 99.0373C115.368 96.8072 116.721 95.3003 118.539 94.5168C120.431 93.5473 122.585 93.543 125.001 94.5038C127.231 95.3906 128.831 96.7801 129.8 98.6723C130.584 100.49 130.495 102.608 129.535 105.024C128.648 107.254 127.258 108.853 125.366 109.823C123.362 110.533 121.245 110.444 119.015 109.557ZM128.082 130.597C125.852 129.71 124.345 128.357 123.561 126.539C122.592 124.647 122.588 122.493 123.548 120.077C124.435 117.847 125.788 116.34 127.606 115.556C129.498 114.587 131.652 114.583 134.068 115.543C136.298 116.43 137.898 117.82 138.868 119.712C139.651 121.53 139.563 123.647 138.602 126.063C137.715 128.293 136.326 129.893 134.433 130.863C132.429 131.572 130.312 131.484 128.082 130.597ZM134.068 115.543C131.838 114.657 130.331 113.304 129.548 111.486C128.578 109.594 128.574 107.44 129.535 105.024C130.422 102.793 131.774 101.287 133.592 100.503C135.484 99.5336 137.639 99.5292 140.055 100.49C142.285 101.377 143.884 102.766 144.854 104.659C145.637 106.477 145.549 108.594 144.588 111.01C143.701 113.24 142.312 114.84 140.42 115.809C138.416 116.519 136.298 116.43 134.068 115.543ZM142.857 136.472C138.025 134.551 136.643 130.988 138.713 125.784C139.6 123.554 141.045 122.084 143.049 121.375C144.867 120.591 146.892 120.643 149.122 121.53C153.954 123.451 155.335 127.014 153.266 132.217C151.344 137.049 147.967 138.505 143.135 136.583L142.857 136.472ZM148.843 121.419C144.011 119.497 142.63 115.935 144.699 110.731C145.586 108.501 147.031 107.031 149.035 106.321C150.854 105.538 152.878 105.589 155.108 106.476C159.94 108.398 161.321 111.96 159.252 117.164C157.33 121.996 153.954 123.451 149.122 121.53L148.843 121.419ZM157.91 142.458C155.68 141.572 154.173 140.219 153.389 138.401C152.42 136.509 152.416 134.355 153.376 131.939C154.263 129.708 155.616 128.202 157.434 127.418C159.326 126.449 161.48 126.444 163.896 127.405C166.126 128.292 167.726 129.681 168.696 131.574C169.479 133.392 169.391 135.509 168.43 137.925C167.543 140.155 166.154 141.755 164.261 142.724C162.257 143.434 160.14 143.345 157.91 142.458ZM163.896 127.405C161.666 126.518 160.159 125.166 159.376 123.347C158.406 121.455 158.402 119.301 159.363 116.885C160.25 114.655 161.602 113.148 163.42 112.365C165.313 111.395 167.467 111.391 169.883 112.352C172.113 113.238 173.712 114.628 174.682 116.52C175.465 118.338 175.377 120.455 174.416 122.871C173.529 125.102 172.14 126.701 170.248 127.671C168.244 128.38 166.126 128.292 163.896 127.405ZM172.963 148.445C170.733 147.558 169.226 146.205 168.443 144.387C167.473 142.495 167.469 140.341 168.43 137.925C169.317 135.695 170.669 134.188 172.488 133.404C174.38 132.435 176.534 132.431 178.95 133.391C181.18 134.278 182.78 135.668 183.749 137.56C184.533 139.378 184.444 141.495 183.483 143.911C182.596 146.141 181.207 147.741 179.315 148.71C177.311 149.42 175.194 149.332 172.963 148.445ZM178.95 133.391C176.72 132.504 175.213 131.152 174.429 129.334C173.46 127.442 173.455 125.287 174.416 122.871C175.303 120.641 176.656 119.134 178.474 118.351C180.366 117.381 182.52 117.377 184.936 118.338C187.166 119.225 188.766 120.614 189.735 122.506C190.519 124.325 190.43 126.442 189.47 128.858C188.583 131.088 187.193 132.688 185.301 133.657C183.297 134.367 181.18 134.278 178.95 133.391ZM188.017 154.431C185.787 153.544 184.28 152.192 183.496 150.373C182.527 148.481 182.523 146.327 183.483 143.911C184.37 141.681 185.723 140.174 187.541 139.391C189.433 138.421 191.587 138.417 194.003 139.378C196.233 140.264 197.833 141.654 198.802 143.546C199.586 145.364 199.497 147.481 198.537 149.897C197.65 152.127 196.26 153.727 194.368 154.697C192.364 155.406 190.247 155.318 188.017 154.431ZM194.003 139.378C191.773 138.491 190.266 137.138 189.483 135.32C188.513 133.428 188.509 131.274 189.47 128.858C190.356 126.628 191.709 125.121 193.527 124.337C195.419 123.368 197.573 123.363 199.989 124.324C202.219 125.211 203.819 126.6 204.789 128.493C205.572 130.311 205.484 132.428 204.523 134.844C203.636 137.074 202.247 138.674 200.354 139.643C198.35 140.353 196.233 140.264 194.003 139.378Z" fill="#EAE6CF"/>
</g>
<mask id="mask2_849_125" style="mask-type:alpha" maskUnits="userSpaceOnUse" x="0" y="46" width="208" height="116">
<rect x="14.1523" y="161.016" width="34" height="210" transform="rotate(-113.314 14.1523 161.016)" fill="#593D3D"/>
</mask>
<g mask="url(#mask2_849_125)">
<path d="M21.1565 156.799C18.9524 157.749 16.9305 157.858 15.0908 157.126C13.0673 156.474 11.5411 154.954 10.5121 152.566C9.56226 150.362 9.45315 148.34 10.1848 146.5C10.8372 144.477 12.3573 142.951 14.745 141.922C16.9491 140.972 19.0628 140.823 21.0862 141.476C22.926 142.207 24.3604 143.767 25.3894 146.155C26.3392 148.359 26.4879 150.472 25.8355 152.496C24.9202 154.415 23.3605 155.849 21.1565 156.799ZM14.745 141.922C12.541 142.872 10.5191 142.981 8.67931 142.249C6.65587 141.597 5.12965 140.077 4.10066 137.689C3.15081 135.485 3.0417 133.463 3.77332 131.623C4.42578 129.6 5.94586 128.073 8.33358 127.044C10.5376 126.095 12.6514 125.946 14.6748 126.598C16.5146 127.33 17.9489 128.89 18.9779 131.277C19.9278 133.481 20.0765 135.595 19.424 137.619C18.5087 139.537 16.9491 140.972 14.745 141.922ZM36.0337 150.388C33.8297 151.337 31.8078 151.447 29.968 150.715C27.9446 150.062 26.4184 148.542 25.3894 146.155C24.4395 143.951 24.3304 141.929 25.062 140.089C25.7145 138.065 27.2346 136.539 29.6223 135.51C31.8263 134.56 33.9401 134.412 35.9635 135.064C37.8033 135.796 39.2377 137.355 40.2667 139.743C41.2165 141.947 41.3652 144.061 40.7127 146.084C39.7974 148.003 38.2378 149.438 36.0337 150.388ZM29.6223 135.51C27.4183 136.46 25.3964 136.569 23.5566 135.838C21.5332 135.185 20.0069 133.665 18.9779 131.277C18.0281 129.073 17.919 127.051 18.6506 125.212C19.3031 123.188 20.8231 121.662 23.2109 120.633C25.4149 119.683 27.5286 119.534 29.5521 120.187C31.3918 120.919 32.8262 122.478 33.8552 124.866C34.8051 127.07 34.9538 129.184 34.3013 131.207C33.386 133.126 31.8263 134.56 29.6223 135.51ZM50.911 143.976C48.707 144.926 46.6851 145.035 44.8453 144.303C42.8219 143.651 41.2957 142.131 40.2667 139.743C39.3168 137.539 39.2077 135.517 39.9393 133.677C40.5918 131.654 42.1119 130.128 44.4996 129.099C46.7036 128.149 48.8174 128 50.8408 128.653C52.6806 129.384 54.1149 130.944 55.1439 133.332C56.0938 135.536 56.2425 137.65 55.59 139.673C54.6747 141.592 53.1151 143.026 50.911 143.976ZM44.4996 129.099C42.2955 130.049 40.2736 130.158 38.4339 129.426C36.4104 128.774 34.8842 127.254 33.8552 124.866C32.9054 122.662 32.7963 120.64 33.5279 118.8C34.1803 116.777 35.7004 115.251 38.0881 114.222C40.2922 113.272 42.4059 113.123 44.4294 113.775C46.2691 114.507 47.7035 116.067 48.7325 118.454C49.6823 120.659 49.831 122.772 49.1786 124.796C48.2633 126.715 46.7036 128.149 44.4996 129.099ZM65.5128 137.683C60.7374 139.741 57.2415 138.199 55.0252 133.056C54.0754 130.852 54.0581 128.791 54.9734 126.872C55.705 125.032 57.1728 123.637 59.3769 122.687C64.1523 120.629 67.6481 122.172 69.8644 127.315C71.9224 132.09 70.5637 135.507 65.7883 137.565L65.5128 137.683ZM59.1014 122.806C54.3259 124.864 50.8301 123.322 48.6138 118.179C47.6639 115.975 47.6466 113.913 48.5619 111.995C49.2935 110.155 50.7614 108.76 52.9654 107.81C57.7408 105.752 61.2367 107.294 63.453 112.437C65.511 117.213 64.1523 120.629 59.3769 122.687L59.1014 122.806ZM80.3901 131.272C78.186 132.222 76.1641 132.331 74.3244 131.599C72.3009 130.947 70.7747 129.427 69.7457 127.039C68.7959 124.835 68.6868 122.813 69.4184 120.973C70.0708 118.95 71.5909 117.424 73.9786 116.395C76.1827 115.445 78.2964 115.296 80.3198 115.949C82.1596 116.68 83.594 118.24 84.623 120.628C85.5728 122.832 85.7215 124.945 85.0691 126.969C84.1538 128.888 82.5941 130.322 80.3901 131.272ZM73.9786 116.395C71.7746 117.345 69.7527 117.454 67.9129 116.722C65.8895 116.07 64.3633 114.549 63.3343 112.162C62.3844 109.958 62.2753 107.936 63.0069 106.096C63.6594 104.073 65.1795 102.546 67.5672 101.517C69.7712 100.568 71.885 100.419 73.9084 101.071C75.7482 101.803 77.1825 103.363 78.2115 105.75C79.1614 107.954 79.3101 110.068 78.6576 112.092C77.7423 114.01 76.1827 115.445 73.9786 116.395ZM95.2674 124.861C93.0633 125.81 91.0414 125.919 89.2016 125.188C87.1782 124.535 85.652 123.015 84.623 120.628C83.6731 118.424 83.564 116.402 84.2956 114.562C84.9481 112.538 86.4682 111.012 88.8559 109.983C91.06 109.033 93.1737 108.885 95.1971 109.537C97.0369 110.269 98.4713 111.828 99.5003 114.216C100.45 116.42 100.599 118.534 99.9463 120.557C99.0311 122.476 97.4714 123.911 95.2674 124.861ZM88.8559 109.983C86.6519 110.933 84.63 111.042 82.7902 110.311C80.7668 109.658 79.2405 108.138 78.2115 105.75C77.2617 103.546 77.1526 101.524 77.8842 99.6846C78.5367 97.6612 80.0568 96.1349 82.4445 95.106C84.6485 94.1561 86.7622 94.0074 88.7857 94.6599C90.6254 95.3915 92.0598 96.9512 93.0888 99.3389C94.0387 101.543 94.1874 103.657 93.5349 105.68C92.6196 107.599 91.06 109.033 88.8559 109.983ZM110.145 118.449C107.941 119.399 105.919 119.508 104.079 118.776C102.055 118.124 100.529 116.604 99.5003 114.216C98.5504 112.012 98.4413 109.99 99.1729 108.15C99.8254 106.127 101.345 104.601 103.733 103.572C105.937 102.622 108.051 102.473 110.074 103.126C111.914 103.857 113.349 105.417 114.378 107.805C115.327 110.009 115.476 112.122 114.824 114.146C113.908 116.065 112.349 117.499 110.145 118.449ZM103.733 103.572C101.529 104.522 99.5072 104.631 97.6675 103.899C95.644 103.247 94.1178 101.727 93.0888 99.3389C92.139 97.1348 92.0299 95.1129 92.7615 93.2732C93.4139 91.2497 94.934 89.7235 97.3217 88.6945C99.5258 87.7447 101.64 87.596 103.663 88.2484C105.503 88.98 106.937 90.5397 107.966 92.9274C108.916 95.1315 109.065 97.2452 108.412 99.2686C107.497 101.188 105.937 102.622 103.733 103.572ZM125.022 112.038C122.818 112.987 120.796 113.097 118.956 112.365C116.933 111.712 115.407 110.192 114.378 107.805C113.428 105.601 113.319 103.579 114.05 101.739C114.703 99.7156 116.223 98.1893 118.61 97.1603C120.815 96.2105 122.928 96.0618 124.952 96.7143C126.791 97.4459 128.226 99.0055 129.255 101.393C130.205 103.597 130.353 105.711 129.701 107.734C128.786 109.653 127.226 111.088 125.022 112.038ZM118.61 97.1603C116.406 98.1102 114.385 98.2193 112.545 97.4877C110.521 96.8352 108.995 95.3151 107.966 92.9274C107.016 90.7234 106.907 88.7015 107.639 86.8617C108.291 84.8383 109.811 83.3121 112.199 82.2831C114.403 81.3332 116.517 81.1845 118.54 81.837C120.38 82.5686 121.814 84.1283 122.843 86.516C123.793 88.72 123.942 90.8338 123.289 92.8572C122.374 94.7761 120.815 96.2105 118.61 97.1603ZM139.899 105.626C137.695 106.576 135.673 106.685 133.833 105.954C131.81 105.301 130.284 103.781 129.255 101.393C128.305 99.1892 128.196 97.1673 128.927 95.3275C129.58 93.3041 131.1 91.7779 133.488 90.7489C135.692 89.7991 137.806 89.6504 139.829 90.3028C141.669 91.0344 143.103 92.5941 144.132 94.9818C145.082 97.1859 145.231 99.2996 144.578 101.323C143.663 103.242 142.103 104.676 139.899 105.626ZM133.488 90.7489C131.284 91.6987 129.262 91.8079 127.422 91.0762C125.399 90.4238 123.872 88.9037 122.843 86.516C121.894 84.3119 121.784 82.29 122.516 80.4503C123.168 78.4268 124.689 76.9006 127.076 75.8716C129.28 74.9218 131.394 74.7731 133.418 75.4255C135.257 76.1572 136.692 77.7168 137.721 80.1045C138.671 82.3086 138.819 84.4223 138.167 86.4457C137.251 88.3647 135.692 89.7991 133.488 90.7489ZM154.501 99.3335C149.726 101.391 146.23 99.8491 144.013 94.7063C143.064 92.5023 143.046 90.4408 143.962 88.5219C144.693 86.6821 146.161 85.2873 148.365 84.3375C153.14 82.2795 156.636 83.8218 158.853 88.9646C160.911 93.74 159.552 97.1567 154.776 99.2147L154.501 99.3335ZM148.09 84.4562C143.314 86.5142 139.818 84.9718 137.602 79.829C136.652 77.625 136.635 75.5635 137.55 73.6446C138.282 71.8048 139.75 70.41 141.954 69.4602C146.729 67.4022 150.225 68.9446 152.441 74.0873C154.499 78.8627 153.14 82.2795 148.365 84.3375L148.09 84.4562ZM169.378 92.922C167.174 93.8719 165.152 93.981 163.313 93.2494C161.289 92.5969 159.763 91.0768 158.734 88.6891C157.784 86.4851 157.675 84.4632 158.407 82.6234C159.059 80.5999 160.579 79.0737 162.967 78.0447C165.171 77.0949 167.285 76.9462 169.308 77.5987C171.148 78.3303 172.582 79.8899 173.611 82.2777C174.561 84.4817 174.71 86.5954 174.057 88.6189C173.142 90.5378 171.582 91.9722 169.378 92.922ZM162.967 78.0447C160.763 78.9946 158.741 79.1037 156.901 78.3721C154.878 77.7196 153.351 76.1995 152.322 73.8118C151.373 71.6078 151.263 69.5859 151.995 67.7461C152.648 65.7227 154.168 64.1965 156.555 63.1675C158.759 62.2176 160.873 62.0689 162.897 62.7214C164.736 63.453 166.171 65.0127 167.2 67.4004C168.15 69.6044 168.298 71.7182 167.646 73.7416C166.73 75.6605 165.171 77.0949 162.967 78.0447ZM184.256 86.5106C182.051 87.4604 180.03 87.5695 178.19 86.8379C176.166 86.1854 174.64 84.6654 173.611 82.2777C172.661 80.0736 172.552 78.0517 173.284 76.2119C173.936 74.1885 175.456 72.6623 177.844 71.6333C180.048 70.6834 182.162 70.5348 184.185 71.1872C186.025 71.9188 187.459 73.4785 188.488 75.8662C189.438 78.0702 189.587 80.184 188.935 82.2074C188.019 84.1263 186.46 85.5607 184.256 86.5106ZM177.844 71.6333C175.64 72.5831 173.618 72.6922 171.778 71.9606C169.755 71.3082 168.229 69.7881 167.2 67.4004C166.25 65.1963 166.141 63.1744 166.872 61.3347C167.525 59.3112 169.045 57.785 171.433 56.756C173.637 55.8062 175.75 55.6575 177.774 56.3099C179.614 57.0416 181.048 58.6012 182.077 60.9889C183.027 63.193 183.176 65.3067 182.523 67.3301C181.608 69.2491 180.048 70.6834 177.844 71.6333ZM199.133 80.0991C196.929 81.049 194.907 81.1581 193.067 80.4265C191.044 79.774 189.517 78.2539 188.488 75.8662C187.539 73.6622 187.429 71.6403 188.161 69.8005C188.814 67.7771 190.334 66.2508 192.721 65.2218C194.925 64.272 197.039 64.1233 199.063 64.7758C200.902 65.5074 202.337 67.0671 203.366 69.4548C204.316 71.6588 204.464 73.7725 203.812 75.796C202.896 77.7149 201.337 79.1493 199.133 80.0991ZM192.721 65.2218C190.517 66.1717 188.495 66.2808 186.656 65.5492C184.632 64.8967 183.106 63.3766 182.077 60.9889C181.127 58.7849 181.018 56.763 181.75 54.9232C182.402 52.8998 183.922 51.3736 186.31 50.3446C188.514 49.3947 190.628 49.246 192.651 49.8985C194.491 50.6301 195.925 52.1898 196.954 54.5775C197.904 56.7815 198.053 58.8953 197.4 60.9187C196.485 62.8376 194.925 64.272 192.721 65.2218Z" fill="#EAE6CF"/>
</g>
<mask id="mask3_849_125" style="mask-type:alpha" maskUnits="userSpaceOnUse" x="46" y="0" width="116" height="208">
<rect x="161.02" y="193.547" width="34" height="210" transform="rotate(156.686 161.02 193.547)" fill="#593D3D"/>
</mask>
<g mask="url(#mask3_849_125)">
<path d="M156.803 186.543C157.753 188.747 157.862 190.769 157.13 192.608C156.478 194.632 154.958 196.158 152.57 197.187C150.366 198.137 148.344 198.246 146.504 197.514C144.481 196.862 142.955 195.342 141.926 192.954C140.976 190.75 140.827 188.636 141.48 186.613C142.211 184.773 143.771 183.339 146.159 182.31C148.363 181.36 150.476 181.211 152.5 181.864C154.419 182.779 155.853 184.339 156.803 186.543ZM141.926 192.954C142.875 195.158 142.985 197.18 142.253 199.02C141.601 201.043 140.08 202.57 137.693 203.599C135.489 204.548 133.467 204.658 131.627 203.926C129.604 203.273 128.077 201.753 127.048 199.366C126.099 197.162 125.95 195.048 126.602 193.024C127.334 191.185 128.894 189.75 131.281 188.721C133.485 187.771 135.599 187.623 137.622 188.275C139.541 189.19 140.976 190.75 141.926 192.954ZM150.391 171.665C151.341 173.87 151.45 175.891 150.719 177.731C150.066 179.755 148.546 181.281 146.159 182.31C143.955 183.26 141.933 183.369 140.093 182.637C138.069 181.985 136.543 180.465 135.514 178.077C134.564 175.873 134.416 173.759 135.068 171.736C135.8 169.896 137.359 168.462 139.747 167.433C141.951 166.483 144.065 166.334 146.088 166.986C148.007 167.902 149.442 169.461 150.391 171.665ZM135.514 178.077C136.464 180.281 136.573 182.303 135.842 184.143C135.189 186.166 133.669 187.692 131.281 188.721C129.077 189.671 127.055 189.78 125.216 189.049C123.192 188.396 121.666 186.876 120.637 184.488C119.687 182.284 119.538 180.171 120.191 178.147C120.922 176.307 122.482 174.873 124.87 173.844C127.074 172.894 129.188 172.745 131.211 173.398C133.13 174.313 134.564 175.873 135.514 178.077ZM143.98 156.788C144.93 158.992 145.039 161.014 144.307 162.854C143.655 164.877 142.135 166.404 139.747 167.433C137.543 168.382 135.521 168.492 133.681 167.76C131.658 167.107 130.132 165.587 129.103 163.2C128.153 160.996 128.004 158.882 128.657 156.858C129.388 155.019 130.948 153.584 133.336 152.555C135.54 151.605 137.653 151.457 139.677 152.109C141.596 153.024 143.03 154.584 143.98 156.788ZM129.103 163.2C130.053 165.404 130.162 167.426 129.43 169.265C128.778 171.289 127.258 172.815 124.87 173.844C122.666 174.794 120.644 174.903 118.804 174.171C116.781 173.519 115.254 171.999 114.225 169.611C113.276 167.407 113.127 165.293 113.779 163.27C114.511 161.43 116.071 159.996 118.458 158.967C120.662 158.017 122.776 157.868 124.8 158.521C126.719 159.436 128.153 160.996 129.103 163.2ZM137.687 142.186C139.745 146.962 138.203 150.458 133.06 152.674C130.856 153.624 128.795 153.641 126.876 152.726C125.036 151.994 123.641 150.526 122.691 148.322C120.633 143.547 122.176 140.051 127.318 137.835C132.094 135.777 135.511 137.135 137.569 141.911L137.687 142.186ZM122.81 148.598C124.868 153.373 123.326 156.869 118.183 159.085C115.979 160.035 113.917 160.053 111.998 159.137C110.159 158.406 108.764 156.938 107.814 154.734C105.756 149.958 107.298 146.463 112.441 144.246C117.217 142.188 120.633 143.547 122.691 148.322L122.81 148.598ZM131.276 127.309C132.226 129.513 132.335 131.535 131.603 133.375C130.951 135.398 129.431 136.925 127.043 137.954C124.839 138.903 122.817 139.012 120.977 138.281C118.954 137.628 117.428 136.108 116.399 133.721C115.449 131.517 115.3 129.403 115.953 127.379C116.684 125.54 118.244 124.105 120.632 123.076C122.836 122.126 124.949 121.978 126.973 122.63C128.892 123.545 130.326 125.105 131.276 127.309ZM116.399 133.721C117.348 135.925 117.458 137.947 116.726 139.786C116.073 141.81 114.553 143.336 112.166 144.365C109.962 145.315 107.94 145.424 106.1 144.692C104.077 144.04 102.55 142.52 101.521 140.132C100.571 137.928 100.423 135.814 101.075 133.791C101.807 131.951 103.367 130.517 105.754 129.488C107.958 128.538 110.072 128.389 112.095 129.042C114.014 129.957 115.449 131.517 116.399 133.721ZM124.864 112.432C125.814 114.636 125.923 116.658 125.192 118.498C124.539 120.521 123.019 122.047 120.632 123.076C118.427 124.026 116.406 124.135 114.566 123.404C112.542 122.751 111.016 121.231 109.987 118.843C109.037 116.639 108.889 114.526 109.541 112.502C110.273 110.662 111.832 109.228 114.22 108.199C116.424 107.249 118.538 107.1 120.561 107.753C122.48 108.668 123.915 110.228 124.864 112.432ZM109.987 118.843C110.937 121.047 111.046 123.069 110.314 124.909C109.662 126.932 108.142 128.459 105.754 129.488C103.55 130.438 101.528 130.547 99.6885 129.815C97.6651 129.163 96.1389 127.642 95.1099 125.255C94.16 123.051 94.0113 120.937 94.6638 118.914C95.3954 117.074 96.9551 115.639 99.3428 114.61C101.547 113.661 103.661 113.512 105.684 114.164C107.603 115.08 109.037 116.639 109.987 118.843ZM118.453 97.5546C119.403 99.7586 119.512 101.781 118.78 103.62C118.128 105.644 116.608 107.17 114.22 108.199C112.016 109.149 109.994 109.258 108.154 108.526C106.131 107.874 104.605 106.354 103.576 103.966C102.626 101.762 102.477 99.6483 103.13 97.6248C103.861 95.785 105.421 94.3507 107.809 93.3217C110.013 92.3718 112.126 92.2231 114.15 92.8756C116.069 93.7909 117.503 95.3505 118.453 97.5546ZM103.576 103.966C104.526 106.17 104.635 108.192 103.903 110.032C103.251 112.055 101.73 113.581 99.3428 114.61C97.1387 115.56 95.1168 115.669 93.2771 114.938C91.2536 114.285 89.7274 112.765 88.6984 110.377C87.7486 108.173 87.5999 106.06 88.2524 104.036C88.984 102.196 90.5436 100.762 92.9313 99.7331C95.1354 98.7833 97.2491 98.6346 99.2726 99.287C101.191 100.202 102.626 101.762 103.576 103.966ZM112.042 82.6773C112.991 84.8814 113.1 86.9033 112.369 88.743C111.716 90.7665 110.196 92.2927 107.809 93.3217C105.605 94.2715 103.583 94.3806 101.743 93.649C99.7195 92.9965 98.1933 91.4765 97.1643 89.0887C96.2144 86.8847 96.0657 84.771 96.7182 82.7475C97.4498 80.9078 99.0095 79.4734 101.397 78.4444C103.601 77.4946 105.715 77.3459 107.738 77.9983C109.657 78.9136 111.092 80.4733 112.042 82.6773ZM97.1643 89.0887C98.1141 91.2928 98.2232 93.3147 97.4916 95.1545C96.8391 97.1779 95.3191 98.7041 92.9313 99.7331C90.7273 100.683 88.7054 100.792 86.8656 100.06C84.8422 99.408 83.316 97.8879 82.287 95.5002C81.3371 93.2962 81.1884 91.1824 81.8409 89.159C82.5725 87.3192 84.1322 85.8848 86.5199 84.8558C88.7239 83.906 90.8377 83.7573 92.8611 84.4098C94.78 85.325 96.2144 86.8847 97.1643 89.0887ZM105.63 67.8C106.58 70.0041 106.689 72.026 105.957 73.8657C105.305 75.8892 103.785 77.4154 101.397 78.4444C99.1931 79.3942 97.1712 79.5034 95.3315 78.7717C93.308 78.1193 91.7818 76.5992 90.7528 74.2115C89.803 72.0074 89.6543 69.8937 90.3067 67.8703C91.0384 66.0305 92.598 64.5961 94.9857 63.5671C97.1898 62.6173 99.3035 62.4686 101.327 63.121C103.246 64.0363 104.68 65.596 105.63 67.8ZM90.7528 74.2115C91.7027 76.4155 91.8118 78.4374 91.0802 80.2772C90.4277 82.3006 88.9076 83.8268 86.5199 84.8558C84.3159 85.8057 82.294 85.9148 80.4542 85.1832C78.4308 84.5307 76.9045 83.0106 75.8755 80.6229C74.9257 78.4189 74.777 76.3051 75.4295 74.2817C76.1611 72.4419 77.7207 71.0076 80.1085 69.9786C82.3125 69.0287 84.4262 68.88 86.4497 69.5325C88.3686 70.4478 89.803 72.0074 90.7528 74.2115ZM99.3374 53.1983C101.395 57.9737 99.853 61.4695 94.7102 63.6858C92.5062 64.6357 90.4447 64.653 88.5258 63.7377C86.686 63.0061 85.2912 61.5382 84.3414 59.3342C82.2834 54.5588 83.8258 51.0629 88.9685 48.8466C93.7439 46.7886 97.1607 48.1473 99.2187 52.9228L99.3374 53.1983ZM84.4601 59.6097C86.5181 64.3851 84.9757 67.881 79.8329 70.0973C77.6289 71.0471 75.5674 71.0644 73.6485 70.1491C71.8087 69.4175 70.4139 67.9497 69.4641 65.7456C67.4061 60.9702 68.9485 57.4744 74.0912 55.2581C78.8667 53.2001 82.2834 54.5588 84.3414 59.3342L84.4601 59.6097ZM92.9259 38.321C93.8758 40.525 93.9849 42.5469 93.2533 44.3867C92.6008 46.4101 91.0807 47.9363 88.693 48.9653C86.489 49.9152 84.4671 50.0243 82.6273 49.2927C80.6039 48.6402 79.0777 47.1201 78.0487 44.7324C77.0988 42.5284 76.9501 40.4146 77.6026 38.3912C78.3342 36.5514 79.8939 35.1171 82.2816 34.0881C84.4856 33.1382 86.5994 32.9895 88.6228 33.642C90.5417 34.5573 91.9761 36.1169 92.9259 38.321ZM78.0487 44.7324C78.9985 46.9365 79.1076 48.9584 78.376 50.7981C77.7235 52.8216 76.2035 54.3478 73.8157 55.3768C71.6117 56.3266 69.5898 56.4357 67.75 55.7041C65.7266 55.0517 64.2004 53.5316 63.1714 51.1439C62.2215 48.9398 62.0728 46.8261 62.7253 44.8026C63.4569 42.9629 65.0166 41.5285 67.4043 40.4995C69.6083 39.5497 71.7221 39.401 73.7455 40.0534C75.6644 40.9687 77.0988 42.5284 78.0487 44.7324ZM86.5145 23.4437C87.4643 25.6477 87.5735 27.6696 86.8418 29.5094C86.1894 31.5328 84.6693 33.0591 82.2816 34.0881C80.0775 35.0379 78.0556 35.147 76.2159 34.4154C74.1924 33.7629 72.6662 32.2429 71.6372 29.8551C70.6874 27.6511 70.5387 25.5374 71.1911 23.5139C71.9228 21.6742 73.4824 20.2398 75.8701 19.2108C78.0742 18.2609 80.1879 18.1122 82.2113 18.7647C84.1303 19.68 85.5647 21.2397 86.5145 23.4437ZM71.6372 29.8551C72.5871 32.0592 72.6962 34.0811 71.9646 35.9209C71.3121 37.9443 69.792 39.4705 67.4043 40.4995C65.2003 41.4493 63.1784 41.5585 61.3386 40.8268C59.3152 40.1744 57.7889 38.6543 56.7599 36.2666C55.8101 34.0625 55.6614 31.9488 56.3139 29.9254C57.0455 28.0856 58.6051 26.6512 60.9929 25.6222C63.1969 24.6724 65.3106 24.5237 67.3341 25.1762C69.253 26.0914 70.6874 27.6511 71.6372 29.8551ZM80.103 8.56642C81.0529 10.7705 81.162 12.7924 80.4304 14.6321C79.7779 16.6556 78.2578 18.1818 75.8701 19.2108C73.6661 20.1606 71.6442 20.2697 69.8044 19.5381C67.781 18.8857 66.2548 17.3656 65.2258 14.9779C64.2759 12.7738 64.1272 10.6601 64.7797 8.63665C65.5113 6.79688 67.071 5.3625 69.4587 4.33351C71.6627 3.38366 73.7765 3.23497 75.7999 3.88743C77.7188 4.80272 79.1532 6.36238 80.103 8.56642ZM65.2258 14.9779C66.1756 17.1819 66.2847 19.2038 65.5531 21.0436C64.9007 23.067 63.3806 24.5932 60.9929 25.6222C58.7888 26.5721 56.7669 26.6812 54.9271 25.9496C52.9037 25.2971 51.3775 23.777 50.3485 21.3893C49.3987 19.1853 49.25 17.0715 49.9024 15.0481C50.634 13.2083 52.1937 11.7739 54.5814 10.7449C56.7855 9.79511 58.8992 9.64641 60.9226 10.2989C62.8415 11.2142 64.2759 12.7738 65.2258 14.9779Z" fill="#EAE6CF"/>
</g>
</svg>
