<svg width="575" height="575" viewBox="0 0 575 575" fill="none" xmlns="http://www.w3.org/2000/svg">
<path d="M282.566 4.95174C283.486 -0.631426 291.514 -0.631426 292.434 4.95174L331.111 239.768C331.46 241.883 333.117 243.54 335.232 243.889L570.048 282.566C575.631 283.486 575.631 291.514 570.048 292.434L335.232 331.111C333.117 331.46 331.46 333.117 331.111 335.232L292.434 570.048C291.514 575.631 283.486 575.631 282.566 570.048L243.889 335.232C243.54 333.117 241.883 331.46 239.768 331.111L4.95174 292.434C-0.631426 291.514 -0.631426 283.486 4.95174 282.566L239.768 243.889C241.883 243.54 243.54 241.883 243.889 239.768L282.566 4.95174Z" fill="white"/>
</svg>
