<svg width="415" height="224" viewBox="0 0 415 224" fill="none" xmlns="http://www.w3.org/2000/svg">
<path d="M301.974 42.6997C300.65 42.3289 299.707 42.3289 298.954 42.8901C295.753 45.3348 292.924 46.847 290.667 47.0279C289.692 47.039 288.73 47.2637 287.852 47.6859C286.973 48.1085 286.197 48.7183 285.58 49.4722L283.323 51.5461C283.132 51.9169 282.189 52.4971 279.169 52.8679C278.607 53.2388 276.912 54.1807 277.664 55.1223C278.654 56.4947 279.536 57.9418 280.303 59.4501C280.729 61.1886 280.689 63.0081 280.187 64.7265C279.685 66.4445 278.74 68.0006 277.445 69.238C276.886 69.8473 276.181 70.3039 275.396 70.5654C274.611 70.8268 273.772 70.8837 272.959 70.7312C272.006 70.5413 270.873 69.9801 270.873 68.8288C270.922 68.2553 271.101 67.7008 271.397 67.2064C271.692 66.7123 272.096 66.2913 272.578 65.9753C274.483 63.531 274.483 61.4666 272.387 59.5836C271.692 59.2088 270.915 59.0125 270.125 59.0125C269.335 59.0125 268.558 59.2088 267.863 59.5836C264.843 60.9054 264.471 63.531 266.358 65.9753C266.32 66.9508 266.127 67.9141 265.786 68.8288C265.043 70.3319 263.719 70.7312 262.023 70.5219C259.166 69.0192 257.88 66.3845 258.213 61.8663C259.479 59.9189 260.944 58.108 262.586 56.4635C260.943 53.5346 258.448 51.1728 255.432 49.691C252.411 51.1697 249.912 53.5318 248.268 56.4635C249.8 58.0389 251.016 59.892 251.85 61.9232C252.231 64.5583 252.041 67.1929 249.945 69.6376C248.04 70.95 246.135 71.7016 244.287 70.5887C242.972 69.2759 242.972 67.7352 243.725 66.0705C244.395 65.1957 244.691 64.0926 244.55 63.0006C244.409 61.9086 243.842 60.9161 242.972 60.2396C242.291 59.734 241.464 59.4607 240.615 59.4607C239.765 59.4607 238.939 59.734 238.257 60.2396C236.352 61.7427 236.571 63.6258 238.076 66.0705C238.215 66.8916 238.149 67.7344 237.885 68.5247C236.38 71.7111 234.075 71.3782 231.475 70.2083C226.769 65.6997 226.96 61.0006 232.427 56.473C233.561 54.9702 232.999 53.2771 230.922 52.9062C226.969 51.7743 223.578 50.0524 221.311 46.8849C219.054 42.129 216.034 42.129 213.767 46.8849C211.51 49.8908 207.937 51.7743 204.165 52.9062C202.088 53.2771 201.527 54.9702 202.47 56.2826C208.118 61.0389 208.118 65.5093 203.593 70.2083C200.955 71.3402 198.698 71.5302 197.192 68.5247C196.84 67.6878 196.773 66.7589 197.002 65.8801C198.507 63.6258 198.697 61.5618 196.821 60.2396C196.103 59.7332 195.247 59.4611 194.368 59.4611C193.49 59.4611 192.632 59.7332 191.915 60.2396C190.01 61.7427 190.01 64.0444 191.344 66.0705C191.677 66.7696 191.801 67.5496 191.701 68.3173C191.602 69.0847 191.282 69.8075 190.782 70.3983C188.705 71.5302 186.971 70.9595 185.133 69.6471C184.263 68.5823 183.641 67.3379 183.311 66.0042C182.982 64.67 182.953 63.2794 183.228 61.9327C184.017 59.8651 185.165 57.9528 186.619 56.2826C184.97 53.3553 182.473 50.9943 179.456 49.5105C176.605 51.2001 174.165 53.5002 172.312 56.2447C174.063 57.8727 175.528 59.7826 176.646 61.8948C177.217 66.2226 175.903 69.0476 173.064 70.3604C171.159 70.7407 169.864 70.3604 169.111 68.6673C168.906 67.8023 168.782 66.9204 168.739 66.0326C170.644 63.5879 170.054 60.9627 167.225 59.6404C166.498 59.2652 165.691 59.0693 164.872 59.0693C164.054 59.0693 163.246 59.2652 162.519 59.6404C160.614 61.5429 160.443 63.5879 162.329 66.0326C162.809 66.2956 163.216 66.6748 163.512 67.1349C163.808 67.595 163.984 68.1218 164.024 68.6673C164.215 69.9895 163.072 70.5697 161.948 70.7407C161.159 70.8541 160.355 70.7763 159.602 70.5148C158.85 70.2533 158.171 69.8154 157.623 69.238C156.26 68.0053 155.258 66.4256 154.727 64.6677C154.194 62.9098 154.152 61.0401 154.603 59.2601C155.378 57.766 156.338 56.3758 157.461 55.1223C158.214 54.1712 156.509 53.0488 155.766 52.8679C152.746 52.2972 151.803 51.9169 151.803 51.5461L149.546 49.2818C148.175 47.9461 146.37 47.1464 144.459 47.0279C142.192 46.847 139.172 45.3348 135.972 42.8901C135.551 42.618 135.068 42.4576 134.567 42.4244C134.067 42.3913 133.567 42.4861 133.114 42.6997C132.695 43.0295 132.395 43.4857 132.257 43.9999C132.12 44.5145 132.153 45.0595 132.352 45.5532C144.068 55.8738 148.021 67.8778 148.965 74.127H286.132C287.085 67.9157 291.029 55.8739 302.526 45.7151C302.808 45.2281 302.906 44.6567 302.803 44.1037C302.7 43.5508 302.402 43.0532 301.964 42.6997" fill="black"/>
<path d="M142.273 41.0041C145.859 41.8145 149.306 43.1452 152.501 44.9532C153.535 45.1873 154.606 45.2082 155.648 45.0135C156.69 44.8192 157.68 44.414 158.557 43.8235C167.134 36.9107 176.96 31.6846 187.51 28.4255C189.223 27.8654 190.161 28.4255 189.596 30.1153C185.164 33.4982 181.866 38.1307 180.133 43.4057C180.133 45.0955 181.272 45.8551 183.721 45.6651C184.458 45.3789 185.25 45.2646 186.038 45.3304C186.826 45.3962 187.589 45.6406 188.266 46.0446C189.969 46.4152 191.299 45.8551 192.429 43.1968C193.567 35.8681 198.112 30.7988 204.742 27.2293C207.766 26.8591 209.086 28.1787 208.713 31.0266C206.324 33.3744 204.567 36.2794 203.604 39.4755C203.795 42.3233 205.297 43.2729 207.766 42.4755C209.277 42.4755 210.416 41.1653 211.363 38.6781C211.913 37.6579 212.732 36.8049 213.732 36.2103C214.732 35.6156 215.876 35.3015 217.042 35.3015C218.208 35.3015 219.352 35.6156 220.352 36.2103C221.352 36.8049 222.171 37.6579 222.721 38.6781C223.677 41.118 224.797 42.4755 226.127 42.4755C228.777 43.2346 230.289 42.295 230.48 39.4755C229.519 36.2781 227.762 33.3724 225.371 31.0266C224.988 28.1787 226.328 26.8971 229.342 27.2293C235.972 30.7988 240.508 35.8681 241.646 43.1968C242.603 45.8263 244.105 46.3864 245.626 46.0446C246.34 45.6458 247.131 45.4049 247.948 45.3395C248.764 45.2741 249.585 45.3852 250.353 45.6651C252.812 45.8551 253.95 45.0955 253.95 43.4057C252.222 38.1291 248.922 33.4957 244.488 30.1153C243.914 28.4255 244.871 27.8654 246.574 28.4255C257.125 31.6878 266.954 36.9135 275.536 43.8235C276.411 44.414 277.4 44.8188 278.441 45.0135C279.481 45.2078 280.551 45.1873 281.583 44.9532C284.76 43.1152 288.208 41.7829 291.802 41.0041C294.079 40.6335 294.835 38.9439 294.27 36.3143C293.415 35.0781 292.291 34.0483 290.981 33.3007C289.671 32.5531 288.209 32.1069 286.702 31.9949C286.084 32.0974 285.451 32.048 284.857 31.8511C284.263 31.6542 283.727 31.3156 283.296 30.8652C281.21 27.2958 277.421 25.9762 272.311 26.7357C269.852 23.8878 266.437 23.3562 262.849 23.546C259.634 20.1665 256.036 19.7488 252.247 20.5367C248.085 17.9071 244.296 16.9673 241.091 18.6381C235.781 16.5781 231.236 17.328 227.447 19.7678C226.879 18.3946 226.032 17.1524 224.959 16.1185C223.886 15.0847 222.609 14.2813 221.209 13.7586V10.398H226.127V5.50907H221.209V0.449219H212.875V5.50907H207.957V10.398H212.875V13.7776C211.458 14.2721 210.166 15.0654 209.087 16.1027C208.009 17.14 207.169 18.3969 206.627 19.7868C204.633 18.4826 202.341 17.695 199.961 17.496C197.581 17.2971 195.188 17.693 193.002 18.6475C189.596 16.9578 185.807 17.8976 181.837 20.5462C178.057 19.7962 174.459 20.176 171.235 23.5555C167.408 23.3657 164.231 23.9257 161.773 26.7452C156.663 25.9857 152.874 27.3053 150.798 30.8747C150.366 31.3266 149.828 31.666 149.232 31.863C148.636 32.06 148.001 32.1085 147.382 32.0044C145.875 32.1151 144.412 32.5607 143.102 33.3084C141.792 34.0561 140.668 35.0867 139.814 36.3238C139.25 38.9534 140.005 40.643 142.273 41.0135V41.0041ZM217.228 16.4167C219.879 16.4167 221.965 19.0463 221.965 22.4258C221.965 25.8054 219.879 28.6248 217.228 28.6248C214.578 28.6248 212.311 25.7769 212.311 22.4258C212.311 19.0747 214.588 16.4167 217.228 16.4167Z" fill="black"/>
<path d="M148.961 95.5762H286.056V82.5195H148.961V95.5762ZM270.623 85.4027C271.378 85.4027 272.116 85.6316 272.744 86.0605C273.371 86.4894 273.859 87.0988 274.146 87.811C274.433 88.5233 274.505 89.3064 274.354 90.061C274.203 90.8155 273.836 91.5076 273.299 92.0485C272.761 92.5894 272.078 92.9554 271.336 93.0997C270.595 93.244 269.827 93.1602 269.133 92.8591C268.437 92.5576 267.846 92.0521 267.433 91.4072C267.021 90.7623 266.805 90.007 266.815 89.2371C266.828 88.2157 267.234 87.2403 267.947 86.5224C268.66 85.805 269.621 85.4023 270.623 85.4027ZM244.442 85.4027C245.197 85.4027 245.935 85.6316 246.562 86.0605C247.19 86.4894 247.678 87.0988 247.964 87.811C248.251 88.5233 248.324 89.3064 248.173 90.061C248.022 90.8155 247.655 91.5076 247.117 92.0485C246.58 92.5894 245.897 92.9554 245.155 93.0997C244.413 93.244 243.646 93.1602 242.951 92.8591C242.256 92.5576 241.665 92.0521 241.252 91.4072C240.839 90.7623 240.624 90.007 240.634 89.2371C240.646 88.2157 241.053 87.2403 241.765 86.5224C242.478 85.805 243.44 85.4023 244.442 85.4027ZM217.518 85.4027C218.273 85.4027 219.011 85.6316 219.638 86.0605C220.266 86.4894 220.754 87.0988 221.041 87.811C221.327 88.5233 221.4 89.3064 221.249 90.061C221.098 90.8155 220.731 91.5076 220.193 92.0485C219.656 92.5894 218.973 92.9554 218.231 93.0997C217.489 93.244 216.722 93.1602 216.027 92.8591C215.332 92.5576 214.741 92.0521 214.328 91.4072C213.915 90.7623 213.7 90.007 213.709 89.2371C213.722 88.2157 214.129 87.2403 214.842 86.5224C215.554 85.805 216.516 85.4023 217.518 85.4027ZM190.575 85.4027C191.33 85.4027 192.068 85.6316 192.695 86.0605C193.323 86.4894 193.811 87.0988 194.098 87.811C194.384 88.5233 194.457 89.3064 194.306 90.061C194.155 90.8155 193.788 91.5076 193.25 92.0485C192.713 92.5894 192.03 92.9554 191.288 93.0997C190.546 93.244 189.779 93.1602 189.084 92.8591C188.389 92.5576 187.798 92.0521 187.385 91.4072C186.972 90.7623 186.757 90.007 186.766 89.2371C186.779 88.2157 187.186 87.2403 187.899 86.5224C188.611 85.805 189.573 85.4023 190.575 85.4027ZM164.213 85.4027C164.968 85.4027 165.706 85.6316 166.333 86.0605C166.96 86.4894 167.448 87.0988 167.735 87.811C168.022 88.5233 168.094 89.3064 167.944 90.061C167.793 90.8155 167.425 91.5076 166.888 92.0485C166.351 92.5894 165.668 92.9554 164.926 93.0997C164.184 93.244 163.417 93.1602 162.722 92.8591C162.027 92.5576 161.435 92.0521 161.023 91.4072C160.61 90.7623 160.395 90.007 160.405 89.2371C160.417 88.2157 160.823 87.2403 161.536 86.5224C162.249 85.805 163.211 85.4023 164.213 85.4027Z" fill="black"/>
<path d="M286.056 76.9238H148.961V79.7217H286.056V76.9238Z" fill="black"/>
<path d="M126.579 106.961C126.579 106.961 108.27 106.377 100.898 89.9805C100.898 89.9805 83.7775 109.027 57.1454 115.773L58.9145 120.489V181.157L53.9021 186.082C53.9021 186.082 33.7091 173.186 32.0256 153.837C30.5037 136.234 33.1765 122.999 52.951 105.999C57.8845 101.956 63.4959 98.8046 69.5293 96.6879V94.6409C37.6183 94.6409 0.675781 123.366 0.675781 156.771C0.675781 189.893 26.0238 209.524 59.4853 209.524C59.4853 209.524 80.7622 209.723 96.5229 201.128V209.383C96.5229 210.043 95.2388 209.921 95.2388 209.921C90.6828 209.921 86.983 212.921 86.983 216.638C86.983 220.355 90.6828 223.345 95.2388 223.345C99.7948 223.345 103.504 220.336 103.504 216.638V197.959C103.504 197.959 107.946 194.591 109.42 193.412C109.736 193.179 109.959 192.844 110.05 192.464C110.141 192.085 110.095 191.685 109.919 191.337C109.743 190.988 109.449 190.712 109.088 190.556C108.728 190.401 108.323 190.376 107.946 190.487C106.167 191.072 103.514 192.242 103.514 192.242V114.584C103.514 114.584 118.884 116.046 126.56 106.961H126.579ZM96.4468 194.006C69.8147 196.931 62.7572 191.072 62.7572 191.072L84.6333 172.611V109.301C84.6333 106.377 96.4561 113.706 96.4561 113.706L96.4468 194.006Z" fill="black"/>
<path d="M161.284 134.559C161.284 132.365 164.228 129.829 164.228 129.829C153.324 128.656 135.931 120.756 135.931 120.756C126.204 128.978 110.578 129.857 110.578 129.857C110.284 131.617 112.934 134.853 112.934 134.853V173.831C112.934 173.831 112.05 174.256 109.315 177.71C108.781 178.391 108.317 179.123 107.928 179.895C129.776 182.241 138.581 193.5 138.581 193.5C148.308 182.639 164.817 180.255 164.817 180.255C162.167 179.091 161.284 175.382 161.284 174.682V134.559ZM143.597 177.672C131.808 175.326 129.443 172.677 129.443 172.677V132.242C129.443 131.352 143.597 137.227 143.597 137.227V177.672Z" fill="black"/>
<path d="M270.39 134.559C270.39 132.365 273.344 129.829 273.344 129.829C262.431 128.656 245.042 120.756 245.042 120.756C235.316 128.978 219.693 129.857 219.693 129.857C219.408 131.617 222.058 134.853 222.058 134.853V173.831C222.058 173.831 221.174 174.256 218.43 177.71C217.896 178.391 217.432 179.123 217.043 179.895C238.887 182.241 247.701 193.5 247.701 193.5C257.426 182.639 273.933 180.255 273.933 180.255C271.273 179.091 270.39 175.382 270.39 174.682V134.559ZM252.706 177.672C240.92 175.326 238.564 172.677 238.564 172.677V132.242C238.564 131.352 252.706 137.227 252.706 137.227V177.672Z" fill="black"/>
<path d="M397.983 179.172C396.538 178.989 395.19 178.356 394.137 177.365C393.081 176.375 392.374 175.079 392.118 173.665V130.091C379.483 126.039 367.154 121.689 367.154 121.689C359.6 126.018 351.359 129.054 342.778 130.669C342.485 132.405 345.135 135.598 345.135 135.598V175.97C345.135 175.97 344.662 176.652 343.573 178.108C343.1 178.734 342.267 179.714 342.012 180.041C354.606 181.553 368.507 193.464 368.507 193.464L378.613 182.747L390.034 193.501L403.564 180.078L397.983 179.21V179.172ZM374.497 177.884C370.602 175.091 366.355 172.81 361.864 171.098V132.919C362.451 133.657 374.497 137.848 374.497 137.848V177.884Z" fill="black"/>
<path d="M198.697 179.908C186.986 186.524 183.792 193.5 183.792 193.5C183.792 193.5 180.598 186.496 168.896 179.908H174.336V137.543C174.336 135.294 172.071 130.303 166.68 129.915L181.846 120.822C181.846 120.822 191.457 126.389 192.967 128.743C192.967 128.743 191.148 130.142 203.459 122.221L205.559 120.756C205.559 120.756 213.06 129.055 218.906 130.321C217.416 135.634 211.947 142.165 196.916 134.045C196.916 134.045 193.258 133.261 193.258 135.605V179.908H198.697Z" fill="black"/>
<path d="M335.365 129.894C329.561 127.645 318.661 120.756 318.661 120.756L316.613 122.23C304.609 130.187 301.844 129.025 301.844 129.025C300.381 126.672 291 121.105 291 121.105L276.73 129.894C281.987 130.281 284.196 135.271 284.196 137.52V179.874H278.882C290.302 186.488 293.416 193.491 293.416 193.491C293.416 193.491 296.53 186.488 307.94 179.902H302.646V137.189L310.252 132.852L316.104 137.189V179.902H310.8C322.209 186.517 324.682 193.5 324.682 193.5C324.682 193.5 327.796 186.488 339.216 179.902H333.931V135.488C333.931 135.488 336.847 130.499 335.394 129.913" fill="black"/>
<path d="M409.356 195.769C409.88 195.657 410.347 195.399 410.691 195.033C411.036 194.667 411.237 194.212 411.272 193.736C411.272 192.592 410.39 191.637 408.156 191.637H404.5V199.098H406.018V195.968H407.689C408.623 196.918 409.413 197.97 410.05 199.098H411.961C411.254 197.896 410.377 196.78 409.347 195.778L409.356 195.769ZM408.03 194.833H406.018V192.696H408.03C408.75 192.696 409.614 192.875 409.614 193.726C409.614 194.578 408.763 194.795 408.03 194.795" fill="black"/>
<path d="M400.768 194.899C400.768 196.282 401.179 197.635 401.949 198.785C402.715 199.935 403.808 200.832 405.086 201.361C406.364 201.89 407.772 202.029 409.127 201.759C410.485 201.489 411.732 200.823 412.71 199.845C413.688 198.867 414.353 197.62 414.623 196.263C414.892 194.907 414.754 193.5 414.226 192.222C413.695 190.944 412.798 189.852 411.648 189.083C410.497 188.315 409.146 187.904 407.764 187.904C405.909 187.907 404.131 188.645 402.819 189.956C401.51 191.267 400.771 193.045 400.768 194.899ZM402.072 194.899C402.072 193.773 402.407 192.673 403.031 191.737C403.658 190.801 404.547 190.072 405.586 189.641C406.625 189.21 407.768 189.098 408.873 189.317C409.977 189.537 410.99 190.079 411.786 190.875C412.583 191.67 413.126 192.685 413.345 193.789C413.564 194.893 413.453 196.037 413.022 197.077C412.591 198.117 411.859 199.006 410.924 199.631C409.989 200.257 408.888 200.59 407.764 200.59C406.252 200.59 404.805 199.991 403.739 198.923C402.673 197.856 402.072 196.408 402.072 194.899Z" fill="black"/>
</svg>
