<svg width="446" height="94" viewBox="0 0 446 94" fill="none" xmlns="http://www.w3.org/2000/svg">
<path d="M73.0406 84.4584C52.3354 84.4584 35.7712 67.5984 35.7712 47.1889C35.7712 26.4837 52.6312 9.91947 73.0406 9.91947C80.4354 9.91947 87.2385 11.99 92.8585 15.5395L73.0406 47.1889L110.31 25.5963C106.169 19.0889 100.549 13.4689 93.4501 9.32789C84.5764 4.00368 72.1533 0.75 58.2512 0.75C38.7291 0.75 21.2775 7.84894 11.8123 18.4974C4.71332 26.4837 0.572266 36.2447 0.572266 47.1889C0.572266 58.1331 4.71332 67.8942 11.8123 75.8805C21.5733 86.5289 38.4333 93.6278 57.6596 93.6278C76.8859 93.6278 94.0417 86.5289 103.507 75.8805C104.098 75.2889 104.394 74.6973 104.986 74.1057L103.507 68.7815C96.9995 78.2468 85.7596 84.4584 73.0406 84.4584Z" fill="black"/>
<path d="M196.682 91.2635L181.005 32.993C178.343 23.5278 169.765 16.7246 159.708 16.7246C157.046 16.7246 154.384 17.3162 152.018 18.2036L118.298 30.3309H152.905L158.821 52.5151C153.201 47.4867 145.511 44.5288 137.524 44.5288C121.256 44.5288 107.945 55.473 107.945 68.7835C107.945 82.094 121.256 93.0382 137.524 93.0382C149.356 93.0382 159.708 87.4182 165.92 78.5446L169.469 91.2635H196.682ZM149.06 82.094C141.665 82.094 135.454 75.8825 135.454 68.4877C135.454 61.093 141.665 54.8814 149.06 54.8814C156.455 54.8814 162.666 61.093 162.666 68.4877C162.666 76.1782 156.455 82.094 149.06 82.094Z" fill="black"/>
<path d="M260.572 16.4277C258.501 16.4277 256.431 17.0193 254.952 17.6109L233.359 27.6677C232.176 21.1604 226.852 16.4277 220.049 16.4277C217.978 16.4277 215.908 17.0193 214.429 17.6109L188.104 30.034H206.147V91.2624H233.359V36.8372C233.359 32.9919 236.317 30.034 240.162 30.034C244.008 30.034 246.966 32.9919 246.966 36.8372V91.2624H274.178V30.034C274.178 22.6393 267.967 16.4277 260.572 16.4277Z" fill="black"/>
<path d="M430.945 16.4277C428.874 16.4277 426.804 17.0193 425.325 17.6109L403.732 27.6677C402.549 21.1604 396.929 16.4277 390.422 16.4277C388.351 16.4277 386.281 17.0193 384.802 17.6109L358.477 30.034H377.111V91.2624H404.324V36.8372C404.324 32.9919 407.282 30.034 411.127 30.034C414.972 30.034 417.93 32.9919 417.93 36.8372V91.2624H445.143V30.034C444.551 22.6393 438.34 16.4277 430.945 16.4277Z" fill="black"/>
<path d="M362.325 54.8803C362.325 76.1772 345.169 93.3329 323.873 93.3329C302.576 93.3329 285.42 76.1772 285.42 54.8803C285.42 33.5835 302.576 16.4277 323.873 16.4277C345.169 16.4277 362.325 33.5835 362.325 54.8803ZM325.647 28.2593C324.464 23.8225 319.731 21.1604 315.295 22.3435C310.858 23.5267 308.196 28.2593 309.379 32.6961L322.689 81.7971C323.873 86.234 328.605 88.8961 333.042 87.7129C337.479 86.5298 340.141 81.7971 338.958 77.3603L325.647 28.2593Z" fill="black"/>
</svg>
