<svg width="465" height="147" viewBox="0 0 465 147" fill="none" xmlns="http://www.w3.org/2000/svg">
<path fill-rule="evenodd" clip-rule="evenodd" d="M383.244 31.2226L383.215 31.2081C386.638 27.4414 390.43 23.4409 394.399 19.592C389.57 17.2192 385.109 14.5296 380.794 11.9277C371.443 6.28982 362.775 1.06369 352.516 0.364299C344.559 -0.13208 336.593 1.19496 329.217 4.24576C329.217 4.24576 325.229 -1.21038 312.949 0.557682C300.669 2.32575 262.843 18.2521 230.608 70.1891C201.47 117.14 215.162 144.061 236.09 143.771C258.772 143.453 280.344 118.037 287.663 97.0832C294.981 76.1289 286.347 70.4515 279.714 70.9902C272.382 71.6118 259.43 78.187 252.303 92.7184C245.176 107.25 245.176 116.2 245.176 116.2C248.089 113.12 251.257 110.297 254.647 107.761C257.697 105.359 261.059 103.389 264.638 101.904C265.475 98.1488 266.721 94.4992 268.352 91.0189C270.929 85.6047 275.013 79.9686 280.056 78.6981C290.294 76.1148 285.388 94.9281 277.864 107.194C273.821 113.741 259.471 132.679 247.15 132.679C234.829 132.679 232.471 120.717 235.062 109.487C237.652 98.2568 241.256 84.0575 259.265 58.1993C277.274 32.3414 296.749 17.009 308.029 10.5859C319.61 3.9695 324.324 6.87023 324.324 6.87023C324.324 6.87023 309.537 16.0144 301.122 27.0649C293.09 37.618 288.28 49.4834 292.007 55.2986C295.571 60.8377 308.084 60.9482 321.885 40.8917C335.508 21.0838 332.082 9.30136 332.082 9.30136C332.979 9.00746 333.894 8.77665 334.822 8.61069C341.47 7.71281 346.788 9.49467 355.01 13.7491C359.021 15.8247 362.957 18.483 367.161 21.3225C371.987 24.5815 377.167 28.0799 383.215 31.2081L383.203 31.2226H383.244ZM327.422 10.8346C327.422 10.8346 318.65 14.3569 308.453 25.6835C298.257 37.0102 292.309 49.7597 296.708 53.13C298.394 54.4146 302.286 54.6356 309.358 48.2264C315.879 42.5185 320.997 35.3648 324.31 27.3273C328.614 16.7521 327.568 11.5675 327.435 10.9054C327.427 10.8652 327.422 10.8417 327.422 10.8346Z" fill="black"/>
<path d="M399.901 38.9194L399.895 38.9267C423.028 43.8057 443.29 28.5342 454.062 15.533C457.993 10.8803 461.375 5.73282 464.133 0.205078C459.227 5.64747 453.736 10.456 447.776 14.5318L447.709 14.5177C437.679 21.3709 423.796 27.5894 410.456 26.2216C407.081 29.9443 403.469 34.2451 399.869 38.9126L399.901 38.9194Z" fill="black"/>
<path fill-rule="evenodd" clip-rule="evenodd" d="M407.426 123.39C405.464 126.553 403.23 132.619 409.714 128.843C417.606 124.248 428.854 107.029 428.854 107.029H433.944C429.305 114.226 424.138 121.062 418.485 127.48C410.486 136.41 400.726 144.522 393.85 143.718C385.823 142.777 388.341 132.156 388.341 132.156C388.341 132.156 376.808 144.426 368.89 143.595C358.156 142.395 361.431 129.034 361.431 129.034C361.431 129.034 349.249 144.031 341.019 143.581C328.052 142.831 331.314 126.894 334.915 115.741C336.851 109.756 338.637 105.052 338.637 105.052C338.637 105.052 337.351 105.393 334.576 105.802C333.128 106.006 330.516 106.157 330.516 106.157C327.539 111.443 324.296 116.571 320.797 121.522C316.479 127.303 298.138 147.167 287.309 143.186C277.319 139.505 280.622 124.099 286.443 111.828C294.93 93.982 318.807 68.3369 332.573 71.7043C346.854 75.1947 332.898 101.426 332.898 101.426C332.898 101.426 332.898 101.521 333.046 101.59C333.948 101.753 334.876 101.702 335.754 101.439C337.539 101.076 339.287 100.551 340.978 99.8712C340.978 99.8712 355.327 69.6048 371.177 49.8086C387.028 30.0125 418.688 -4.04446 431.101 4.20393C434.133 6.23535 432.752 13.2158 428.665 21.696C426.823 22.2828 424.952 22.7742 423.061 23.1684C425.327 19.3816 427.041 15.2859 428.15 11.0072C430.018 0.781872 406.303 22.3368 389.356 45.5413C379.164 59.5203 370.11 74.3064 362.284 89.7556C365.346 87.8811 368.269 85.7847 371.029 83.4839C378.589 77.1692 385.775 70.4132 392.551 63.2515C399.052 56.5054 405.149 49.376 410.811 41.9011C412.624 41.8152 414.431 41.6286 416.225 41.3421C410.03 49.8047 403.278 57.8393 396.016 65.392C395.417 65.9946 394.815 66.6023 394.209 67.2133C387.963 73.5136 381.376 80.1576 375.577 85.0789C369.915 89.9571 363.942 94.4572 357.695 98.5493C357.695 98.5493 342.806 128.652 350.928 130.588C355.665 131.733 365.032 117.214 365.032 117.214C365.032 117.214 377.215 98.4398 384.605 89.9462C394.595 78.494 403.244 71.8952 411.839 71.718C416.874 71.6226 419.839 77.0349 419.839 77.0349L422.208 73.3404H436.786C436.786 73.3404 409.565 119.859 407.386 123.362L407.426 123.39ZM416.564 82.243C416.741 81.927 416.886 81.5934 416.996 81.2481C416.927 80.7029 416.674 80.1985 416.28 79.8189C415.886 79.4393 415.374 79.2072 414.831 79.1619C412.584 79.0532 409.498 79.489 401.444 88.4739C394.751 95.9135 388.996 104.156 384.307 113.015C379.692 121.508 377.823 127.834 380.477 129.47C381.337 129.916 382.333 130.018 383.265 129.757C385.065 129.32 387.095 127.63 390.196 124.017C391.355 122.663 392.619 120.854 394.064 118.787L394.078 118.767C394.433 118.26 394.799 117.736 395.177 117.2C400.51 109.893 413.91 86.8789 416.564 82.2299V82.243ZM332.83 92.0046C334.184 88.46 335.89 81.5073 332.329 78.7802C328.499 75.8765 318.794 82.6796 318.699 89.687C318.604 96.6952 325.562 100.062 327.226 100.512C328.174 100.771 328.499 100.73 328.959 99.9668C330.431 97.4157 331.725 94.7645 332.83 92.0323V92.0046ZM325.453 105.025C323.037 103.9 320.783 102.451 318.753 100.717C316.709 98.9975 314.997 96.9127 313.704 94.5682C313.592 94.3762 313.48 94.5017 313.36 94.6353C313.335 94.6638 313.31 94.6923 313.284 94.7178C313.131 94.8718 312.525 95.4828 307.329 103.144C302.104 110.847 294.145 126.716 301.372 129.43C306.002 131.161 313.704 122.994 317.927 117.582C320.786 113.807 323.377 109.834 325.683 105.693C325.9 105.23 325.683 105.12 325.453 105.025Z" fill="black"/>
<path d="M241.262 37.1211H228.16L220.752 49.4269H233.854L241.262 37.1211Z" fill="black"/>
<path fill-rule="evenodd" clip-rule="evenodd" d="M208.563 72.4978H213.56C213.56 72.4978 188.303 108.087 174.023 106.463C166.056 105.559 168.421 95.9836 168.421 95.9836C168.421 95.9836 157.203 108.755 146.926 106.201C137.602 103.869 143.621 88.7665 143.621 88.7665C143.462 88.8289 142.876 89.378 141.946 90.2491C136.662 95.2003 120.275 110.553 108.221 106.031C93.4434 100.451 101.087 81.8895 103.909 76.3092C106.3 71.6071 108.947 67.0225 108.947 67.0225C108.947 67.0225 106.676 67.6512 105.252 67.9656C103.828 68.28 101.692 68.6861 101.692 68.6861C101.692 68.6861 94.6791 79.8066 90.3937 85.3476C86.1083 90.8887 67.8775 109.961 57.1431 106.162C46.4094 102.363 49.0829 87.7188 55.1011 76.0343C64.8818 57.1723 88.0963 33.9874 102.121 37.4717C116.147 40.9559 104.553 63.3156 104.553 63.3156C104.553 63.3156 107.361 63.6692 114.092 59.1894C116.872 57.3451 119.902 54.6082 123.136 51.6881C131.2 44.405 140.526 35.9831 150.365 37.4323C156.867 38.3886 162.926 44.8986 154.637 57.2508C151.95 61.1804 147.53 64.7695 144.118 61.2591C141.995 59.0978 143.849 55.1026 146.079 52.3781C146.951 51.2678 148.09 50.3836 149.394 49.8034C150.699 49.2232 152.13 48.9648 153.562 49.051C153.562 49.051 155.846 43.9294 150.029 44.0341C145.313 44.1258 133.383 54.8275 126.653 65.6471C120.554 75.6156 111.217 92.5388 120.554 96.2326C129.165 99.6255 145.555 80.658 153.145 70.7164C160.736 60.7744 178.013 38.2445 192.522 37.3407C197.52 37.0263 200.489 41.4668 200.489 41.4668L202.168 38.847H216.65C216.65 38.847 189.378 83.37 187.242 86.7103C185.563 89.3297 183.333 95.2634 189.513 91.9497C195.693 88.6354 208.563 72.4978 208.563 72.4978ZM175.715 81.3656C181.573 73.5064 197.721 46.1299 197.721 46.1299C197.652 45.6065 197.401 45.1219 197.01 44.7571C196.618 44.3924 196.111 44.1695 195.572 44.1259C193.341 44.021 189.633 44.7546 182.137 53.7927C174.641 62.8309 169.052 70.0222 164.888 77.5014C160.293 85.6618 158.291 91.4259 160.924 92.9842C161.78 93.4063 162.766 93.5038 163.691 93.2591C165.411 92.8404 167.655 91.1636 170.732 87.7054C172.182 86.0945 173.821 83.9198 175.742 81.3656H175.715ZM101.92 44.2962C98.118 41.493 88.4862 48.0424 88.392 54.7751C88.2977 61.5079 97.124 63.6037 98.2662 63.6561C98.5208 63.7216 98.7905 63.7031 99.0336 63.6037C99.2768 63.5041 99.4788 63.3292 99.6098 63.106C100.643 61.1324 101.571 59.1081 102.39 57.0413C103.734 53.6356 105.413 46.9552 101.88 44.3354L101.92 44.2962ZM96.1436 67.9133C93.5225 67.114 91.0166 65.9915 88.6876 64.5731C86.4154 63.1425 84.564 61.1609 83.3139 58.8226C83.1966 58.6286 83.0693 58.7728 82.9492 58.9085C82.9319 58.9285 82.9147 58.9483 82.8974 58.9668C82.7629 59.1109 81.9839 60.1064 76.8116 67.5072C71.6393 74.908 63.9683 90.0499 71.1553 92.644C75.75 94.3075 83.475 86.4347 87.6533 81.2345C90.8015 77.176 93.7124 72.9468 96.3716 68.5682C96.5464 68.1228 96.3716 68.018 96.1162 67.9394L96.1436 67.9133Z" fill="black"/>
<path d="M201.608 146.508C190.799 138.988 177.857 135.19 164.72 135.686C161.165 135.783 157.681 136.721 154.554 138.427C151.427 140.131 148.745 142.553 146.725 145.497C141.125 135.673 130.061 129.648 112.949 129.784C98.4604 129.949 84.0285 133.547 70.4481 136.933C58.1156 140.007 46.4854 142.907 36.1549 142.901C15.3047 142.901 0.122569 129.73 0.625413 106.352C1.52267 65.3632 35.9643 28.4731 61.7891 11.8316C76.5906 2.26753 88.9726 -0.547042 97.128 0.368374C103.041 1.0242 110.149 7.89671 105.663 18.0209C99.0716 32.8453 89.9651 31.602 90.305 24.5245C90.4462 22.6782 91.0218 20.892 91.9831 19.3126C92.9451 17.7331 94.2659 16.4055 95.8363 15.4386C97.5042 14.5263 99.3751 14.056 101.274 14.0724C102.632 12.9657 103.57 4.8635 92.9684 7.52781C82.3672 10.1921 69.4548 20.6716 57.2766 34.1979C45.0984 47.7243 26.1512 73.274 21.4618 100.108C19.2736 112.555 20.7276 135.25 50.0046 135.003C61.2928 134.91 75.0261 131.468 89.8145 127.761C107.596 123.305 126.901 118.466 145.311 118.608C157.054 118.558 168.586 121.733 178.665 127.79C187.392 133.255 197.844 141.07 201.554 146.453L201.608 146.508Z" fill="black"/>
</svg>
