<svg width="283" height="392" viewBox="0 0 283 392" fill="none" xmlns="http://www.w3.org/2000/svg">
<path d="M185.5 391.516C185.5 391.516 187.022 314.174 159.302 280.794C138.362 255.579 88 240.112 88 240.112C88 240.112 138.362 224.645 159.302 199.43C187.022 166.049 185.5 88.7081 185.5 88.7081C185.5 88.7081 183.978 166.049 211.698 199.43C232.638 224.645 283 240.112 283 240.112C283 240.112 232.638 255.579 211.698 280.794C183.978 314.174 185.5 391.516 185.5 391.516Z" fill="#C7C7C7"/>
<path d="M66 204.926C66 204.926 67.0302 152.639 48.2658 130.072C34.0912 113.025 8.39259e-06 102.568 8.39259e-06 102.568C8.39259e-06 102.568 34.0912 92.1118 48.2658 75.0648C67.0302 52.4978 66 0.21084 66 0.21084C66 0.21084 64.9698 52.4978 83.7342 75.0648C97.9088 92.1118 132 102.568 132 102.568C132 102.568 97.9088 113.025 83.7342 130.072C64.9698 152.639 66 204.926 66 204.926Z" fill="#C7C7C7"/>
</svg>
