<svg width="283" height="392" viewBox="0 0 283 392" fill="none" xmlns="http://www.w3.org/2000/svg">
<path d="M97.5 0.210938C97.5 0.210938 95.9782 77.5521 123.698 110.932C144.638 136.148 195 151.615 195 151.615C195 151.615 144.638 167.082 123.698 192.297C95.9782 225.677 97.5 303.018 97.5 303.018C97.5 303.018 99.0218 225.677 71.3017 192.297C50.362 167.082 0 151.615 0 151.615C0 151.615 50.362 136.148 71.3017 110.932C99.0218 77.5521 97.5 0.210938 97.5 0.210938Z" fill="#C7C7C7"/>
<path d="M217 186.801C217 186.801 215.97 239.088 234.734 261.655C248.909 278.702 283 289.158 283 289.158C283 289.158 248.909 299.615 234.734 316.662C215.97 339.229 217 391.516 217 391.516C217 391.516 218.03 339.229 199.266 316.662C185.091 299.615 151 289.158 151 289.158C151 289.158 185.091 278.702 199.266 261.655C218.03 239.088 217 186.801 217 186.801Z" fill="#C7C7C7"/>
</svg>
